AndadaPro-Bold.ufo
<glyph name="exclam" format="2">
  <advance width="328.40000000000003"/>
  <unicode hex="0021"/>
  <outline>
    <contour>
      <point x="196.1818181818182" y="221.72727272727272" type="line"/>
      <point x="209.1818181818182" y="233.72727272727272" type="line"/>
      <point x="206.1818181818182" y="314.0" type="line" smooth="yes"/>
      <point x="204.1818181818182" y="371.1818181818182"/>
      <point x="221.0" y="620.1818181818181"/>
      <point x="229.0" y="747.3636363636364" type="curve"/>
      <point x="204.0" y="771.3636363636364" type="line"/>
      <point x="106.0" y="763.0909090909091" type="line"/>
      <point x="121.0" y="292.0" type="line"/>
      <point x="120.0" y="226.0" type="line"/>
    </contour>
    <contour>
      <point x="165.1818181818182" y="-13.181818181818182" type="curve" smooth="yes"/>
      <point x="209.1818181818182" y="-13.181818181818182"/>
      <point x="233.0" y="17.0"/>
      <point x="233.0" y="60.36363636363636" type="curve" smooth="yes"/>
      <point x="233.0" y="105.63636363636364"/>
      <point x="207.9090909090909" y="134.1818181818182"/>
      <point x="165.1818181818182" y="134.1818181818182" type="curve" smooth="yes"/>
      <point x="121.18181818181819" y="134.1818181818182"/>
      <point x="97.0" y="103.72727272727272"/>
      <point x="97.0" y="60.36363636363636" type="curve" smooth="yes"/>
      <point x="97.0" y="15.90909090909091"/>
      <point x="121.54545454545455" y="-13.181818181818182"/>
    </contour>
  </outline>
</glyph>
<glyph name="quotedbl" format="2">
  <advance width="469.8"/>
  <unicode hex="0022"/>
  <outline>
    <contour>
      <point x="346.54545454545456" y="462.3636363636364" type="line"/>
      <point x="359.54545454545456" y="705.0" type="line"/>
      <point x="262.54545454545456" y="705.0" type="line"/>
      <point x="265.90909090909093" y="660.7272727272727"/>
      <point x="271.54545454545456" y="575.0"/>
      <point x="271.54545454545456" y="560.0" type="curve" smooth="yes"/>
      <point x="270.54545454545456" y="466.6363636363636" type="line"/>
    </contour>
    <contour>
      <point x="194.54545454545456" y="462.3636363636364" type="line"/>
      <point x="207.54545454545456" y="705.0" type="line"/>
      <point x="110.54545454545455" y="705.0" type="line"/>
      <point x="113.9090909090909" y="660.7272727272727"/>
      <point x="119.54545454545455" y="575.0"/>
      <point x="119.54545454545455" y="560.0" type="curve" smooth="yes"/>
      <point x="118.54545454545455" y="466.6363636363636" type="line"/>
    </contour>
  </outline>
</glyph>
<glyph name="numbersign" format="2">
  <advance width="661.0"/>
  <unicode hex="0023"/>
  <outline>
    <contour>
      <point x="405.09090909090907" y="-15.0" type="line"/>
      <point x="496.09090909090907" y="562.0" type="line"/>
      <point x="424.09090909090907" y="572.0" type="line"/>
      <point x="333.09090909090907" y="-5.0" type="line"/>
    </contour>
    <contour>
      <point x="73.0909090909091" y="144.0" type="line"/>
      <point x="568.0909090909091" y="144.0" type="line"/>
      <point x="568.0909090909091" y="227.0" type="line"/>
      <point x="73.0909090909091" y="222.0" type="line"/>
    </contour>
    <contour>
      <point x="233.0909090909091" y="-15.0" type="line"/>
      <point x="324.09090909090907" y="562.0" type="line"/>
      <point x="252.0909090909091" y="572.0" type="line"/>
      <point x="161.0909090909091" y="-5.0" type="line"/>
    </contour>
    <contour>
      <point x="93.0909090909091" y="331.0" type="line"/>
      <point x="588.0909090909091" y="336.0" type="line"/>
      <point x="588.0909090909091" y="414.0" type="line"/>
      <point x="93.0909090909091" y="414.0" type="line"/>
    </contour>
  </outline>
</glyph>
<glyph name="dollar" format="2">
  <advance width="591.4"/>
  <unicode hex="0024"/>
  <outline>
    <contour>
      <point x="287.6363636363636" y="-13.636363636363637" type="curve" smooth="yes"/>
      <point x="414.27272727272725" y="-13.636363636363637"/>
      <point x="514.7272727272727" y="56.09090909090909"/>
      <point x="514.7272727272727" y="178.27272727272728" type="curve" smooth="yes"/>
      <point x="514.7272727272727" y="383.09090909090907"/>
      <point x="222.54545454545456" y="365.72727272727275"/>
      <point x="222.54545454545456" y="490.72727272727275" type="curve" smooth="yes"/>
      <point x="222.54545454545456" y="541.0909090909091"/>
      <point x="261.27272727272725" y="570.2727272727273"/>
      <point x="315.6363636363636" y="570.2727272727273" type="curve" smooth="yes"/>
      <point x="363.6363636363636" y="570.2727272727273"/>
      <point x="414.0909090909091" y="545.1818181818181"/>
      <point x="450.0909090909091" y="527.1818181818181" type="curve"/>
      <point x="382.90909090909093" y="589.9090909090909" type="line"/>
      <point x="392.72727272727275" y="558.9090909090909"/>
      <point x="410.09090909090907" y="515.5454545454545"/>
      <point x="410.09090909090907" y="505.09090909090907" type="curve"/>
      <point x="412.0" y="453.6363636363636" type="line"/>
      <point x="477.09090909090907" y="449.90909090909093" type="line"/>
      <point x="489.45454545454544" y="613.9090909090909" type="line"/>
      <point x="429.1818181818182" y="631.0909090909091"/>
      <point x="358.1818181818182" y="645.0909090909091"/>
      <point x="296.0" y="645.0909090909091" type="curve" smooth="yes"/>
      <point x="176.36363636363637" y="645.0909090909091"/>
      <point x="88.27272727272727" y="579.0909090909091"/>
      <point x="88.27272727272727" y="469.90909090909093" type="curve" smooth="yes"/>
      <point x="88.27272727272727" y="261.0"/>
      <point x="380.0" y="285.54545454545456"/>
      <point x="380.0" y="149.72727272727272" type="curve" smooth="yes"/>
      <point x="380.0" y="93.36363636363636"/>
      <point x="336.1818181818182" y="65.54545454545455"/>
      <point x="280.09090909090907" y="65.54545454545455" type="curve" smooth="yes"/>
      <point x="220.0909090909091" y="65.54545454545455"/>
      <point x="172.0909090909091" y="93.0"/>
      <point x="134.36363636363637" y="109.9090909090909" type="curve"/>
      <point x="195.0909090909091" y="45.09090909090909" type="line"/>
      <point x="193.63636363636363" y="52.36363636363636"/>
      <point x="163.0" y="113.0"/>
      <point x="166.1818181818182" y="132.54545454545453" type="curve"/>
      <point x="167.54545454545453" y="190.54545454545456" type="line"/>
      <point x="94.72727272727273" y="194.9090909090909" type="line"/>
      <point x="80.72727272727273" y="30.454545454545453" type="line"/>
      <point x="117.9090909090909" y="11.727272727272727"/>
      <point x="199.0" y="-13.636363636363637"/>
    </contour>
    <contour>
      <point x="304.27272727272725" y="-154.0" type="line"/>
      <point x="311.27272727272725" y="15.0" type="line"/>
      <point x="254.27272727272728" y="15.0" type="line"/>
      <point x="247.27272727272728" y="-151.0" type="line"/>
    </contour>
    <contour>
      <point x="277.27272727272725" y="616.0" type="line"/>
      <point x="333.27272727272725" y="616.0" type="line"/>
      <point x="340.27272727272725" y="785.0" type="line"/>
      <point x="284.27272727272725" y="788.0" type="line"/>
    </contour>
  </outline>
</glyph>
<glyph name="ampersand" format="2">
  <advance width="845.0"/>
  <unicode hex="0026"/>
  <outline>
    <contour>
      <point x="582.7272727272727" y="0.0" type="line"/>
      <point x="756.0909090909091" y="0.0" type="line"/>
      <point x="762.1818181818181" y="63.18181818181818" type="line"/>
      <point x="699.9090909090909" y="68.27272727272728" type="line"/>
      <point x="632.0909090909091" y="120.0909090909091" type="line"/>
      <point x="505.27272727272725" y="234.1818181818182"/>
      <point x="404.54545454545456" y="326.3636363636364"/>
      <point x="334.0" y="404.72727272727275" type="curve" smooth="yes"/>
      <point x="303.3636363636364" y="438.6363636363636"/>
      <point x="285.6363636363636" y="476.3636363636364"/>
      <point x="285.6363636363636" y="515.3636363636364" type="curve" smooth="yes"/>
      <point x="285.6363636363636" y="560.2727272727273"/>
      <point x="315.27272727272725" y="592.1818181818181"/>
      <point x="364.1818181818182" y="592.1818181818181" type="curve" smooth="yes"/>
      <point x="403.1818181818182" y="592.1818181818181"/>
      <point x="443.72727272727275" y="576.7272727272727"/>
      <point x="484.0" y="560.2727272727273" type="curve"/>
      <point x="425.90909090909093" y="621.4545454545455" type="line"/>
      <point x="437.3636363636364" y="589.3636363636364"/>
      <point x="447.0" y="539.6363636363636"/>
      <point x="447.0" y="529.9090909090909" type="curve" smooth="yes"/>
      <point x="446.27272727272725" y="485.45454545454544" type="line"/>
      <point x="506.6363636363636" y="482.1818181818182" type="line"/>
      <point x="519.0" y="631.0" type="line"/>
      <point x="490.6363636363636" y="641.3636363636364"/>
      <point x="416.3636363636364" y="662.0"/>
      <point x="355.6363636363636" y="662.0" type="curve" smooth="yes"/>
      <point x="249.54545454545453" y="662.0"/>
      <point x="157.54545454545453" y="616.7272727272727"/>
      <point x="157.54545454545453" y="513.4545454545455" type="curve" smooth="yes"/>
      <point x="157.54545454545453" y="457.90909090909093"/>
      <point x="188.0" y="396.1818181818182"/>
      <point x="248.1818181818182" y="334.1818181818182" type="curve" smooth="yes"/>
      <point x="383.72727272727275" y="193.9090909090909"/>
      <point x="474.0" y="135.1818181818182"/>
      <point x="574.0909090909091" y="26.90909090909091" type="curve"/>
    </contour>
    <contour>
      <point x="325.72727272727275" y="-10.0" type="curve" smooth="yes"/>
      <point x="507.45454545454544" y="-10.0"/>
      <point x="625.9090909090909" y="100.36363636363636"/>
      <point x="635.3636363636364" y="267.6363636363636" type="curve" smooth="yes"/>
      <point x="639.1818181818181" y="324.3636363636364"/>
      <point x="640.0" y="331.09090909090907"/>
      <point x="641.6363636363636" y="342.54545454545456" type="curve"/>
      <point x="542.0909090909091" y="342.54545454545456" type="line"/>
      <point x="546.0" y="328.1818181818182"/>
      <point x="550.4545454545455" y="298.54545454545456"/>
      <point x="550.4545454545455" y="280.90909090909093" type="curve" smooth="yes"/>
      <point x="550.4545454545455" y="164.9090909090909"/>
      <point x="479.3636363636364" y="71.45454545454545"/>
      <point x="345.3636363636364" y="71.45454545454545" type="curve" smooth="yes"/>
      <point x="276.9090909090909" y="71.45454545454545"/>
      <point x="217.1818181818182" y="115.9090909090909"/>
      <point x="217.1818181818182" y="193.54545454545453" type="curve" smooth="yes"/>
      <point x="217.1818181818182" y="240.36363636363637"/>
      <point x="237.45454545454544" y="294.45454545454544"/>
      <point x="310.0909090909091" y="341.09090909090907" type="curve"/>
      <point x="276.3636363636364" y="402.54545454545456" type="line"/>
      <point x="160.27272727272728" y="351.3636363636364"/>
      <point x="90.9090909090909" y="286.09090909090907"/>
      <point x="90.9090909090909" y="181.45454545454547" type="curve" smooth="yes"/>
      <point x="90.9090909090909" y="54.0"/>
      <point x="195.0909090909091" y="-10.0"/>
    </contour>
    <contour>
      <point x="552.7272727272727" y="333.1818181818182" type="line"/>
      <point x="637.9090909090909" y="333.1818181818182" type="line"/>
      <point x="711.7272727272727" y="339.54545454545456" type="line"/>
      <point x="707.0909090909091" y="405.1818181818182" type="line"/>
      <point x="670.7272727272727" y="402.45454545454544"/>
      <point x="621.7272727272727" y="400.1818181818182"/>
      <point x="583.4545454545455" y="400.1818181818182" type="curve" smooth="yes"/>
      <point x="558.0909090909091" y="400.1818181818182"/>
      <point x="521.0" y="402.54545454545456"/>
      <point x="484.90909090909093" y="405.1818181818182" type="curve"/>
      <point x="479.90909090909093" y="345.1818181818182" type="line"/>
    </contour>
  </outline>
</glyph>
<glyph name="quotesingle" format="2">
  <advance width="317.8"/>
  <unicode hex="0027"/>
  <outline>
    <contour>
      <point x="194.54545454545456" y="462.3636363636364" type="line"/>
      <point x="207.54545454545456" y="705.0" type="line"/>
      <point x="110.54545454545455" y="705.0" type="line"/>
      <point x="113.9090909090909" y="660.7272727272727"/>
      <point x="119.54545454545455" y="575.0"/>
      <point x="119.54545454545455" y="560.0" type="curve" smooth="yes"/>
      <point x="118.54545454545455" y="466.6363636363636" type="line"/>
    </contour>
  </outline>
</glyph>
<glyph name="parenleft" format="2">
  <advance width="424.8"/>
  <unicode hex="0028"/>
  <outline>
    <contour>
      <point x="310.0" y="-103.36363636363636" type="curve"/>
      <point x="342.0" y="-77.36363636363636" type="line"/>
      <point x="257.27272727272725" y="44.45454545454545"/>
      <point x="216.72727272727272" y="203.54545454545453"/>
      <point x="216.72727272727272" y="358.0" type="curve" smooth="yes"/>
      <point x="216.72727272727272" y="514.7272727272727"/>
      <point x="258.54545454545456" y="674.3636363636364"/>
      <point x="342.0" y="793.3636363636364" type="curve"/>
      <point x="310.0" y="819.3636363636364" type="line"/>
      <point x="161.0" y="688.4545454545455"/>
      <point x="98.9090909090909" y="535.4545454545455"/>
      <point x="98.9090909090909" y="358.0" type="curve" smooth="yes"/>
      <point x="98.9090909090909" y="182.0"/>
      <point x="159.9090909090909" y="28.636363636363637"/>
    </contour>
  </outline>
</glyph>
<glyph name="parenright" format="2">
  <advance width="424.8"/>
  <unicode hex="0029"/>
  <outline>
    <contour>
      <point x="114.9090909090909" y="818.3636363636364" type="curve"/>
      <point x="82.9090909090909" y="792.3636363636364" type="line"/>
      <point x="167.63636363636363" y="670.5454545454545"/>
      <point x="208.1818181818182" y="511.45454545454544"/>
      <point x="208.1818181818182" y="357.0" type="curve" smooth="yes"/>
      <point x="208.1818181818182" y="200.27272727272728"/>
      <point x="166.36363636363637" y="40.63636363636364"/>
      <point x="82.9090909090909" y="-78.36363636363636" type="curve"/>
      <point x="114.9090909090909" y="-104.36363636363636" type="line"/>
      <point x="263.90909090909093" y="26.545454545454547"/>
      <point x="326.0" y="179.54545454545453"/>
      <point x="326.0" y="357.0" type="curve" smooth="yes"/>
      <point x="326.0" y="533.0"/>
      <point x="265.0" y="686.3636363636364"/>
    </contour>
  </outline>
</glyph>
<glyph name="asterisk" format="2">
  <advance width="491.59999999999997"/>
  <unicode hex="002A"/>
  <outline>
    <contour>
      <point x="166.45454545454547" y="428.3636363636364" type="line"/>
      <point x="271.3636363636364" y="575.5454545454545" type="line"/>
      <point x="224.0909090909091" y="611.5454545454545" type="line"/>
      <point x="102.9090909090909" y="476.3636363636364" type="line"/>
    </contour>
    <contour>
      <point x="249.27272727272728" y="555.9090909090909" type="line"/>
      <point x="265.45454545454544" y="611.7272727272727" type="line"/>
      <point x="96.63636363636364" y="680.0909090909091" type="line"/>
      <point x="73.45454545454545" y="602.6363636363636" type="line"/>
    </contour>
    <contour>
      <point x="326.45454545454544" y="425.3636363636364" type="line"/>
      <point x="387.3636363636364" y="477.0" type="line"/>
      <point x="268.1818181818182" y="610.5454545454545" type="line"/>
      <point x="222.9090909090909" y="571.5454545454545" type="line"/>
    </contour>
    <contour>
      <point x="214.36363636363637" y="577.9090909090909" type="line"/>
      <point x="274.1818181818182" y="580.5454545454545" type="line"/>
      <point x="281.45454545454544" y="761.0" type="line"/>
      <point x="201.36363636363637" y="756.3636363636364" type="line"/>
    </contour>
    <contour>
      <point x="244.36363636363637" y="556.9090909090909" type="line"/>
      <point x="420.1818181818182" y="604.6363636363636" type="line"/>
      <point x="392.3636363636364" y="680.0909090909091" type="line"/>
      <point x="225.54545454545453" y="612.7272727272727" type="line"/>
    </contour>
  </outline>
</glyph>
<glyph name="plus" format="2">
  <advance width="693.8000000000001"/>
  <unicode hex="002B"/>
  <outline>
    <contour>
      <point x="89.45454545454545" y="209.1818181818182" type="line"/>
      <point x="604.4545454545455" y="214.1818181818182" type="line"/>
      <point x="604.4545454545455" y="302.1818181818182" type="line"/>
      <point x="89.45454545454545" y="302.1818181818182" type="line"/>
    </contour>
    <contour>
      <point x="300.6363636363636" y="0.0" type="line"/>
      <point x="393.6363636363636" y="0.0" type="line"/>
      <point x="388.6363636363636" y="511.0" type="line"/>
      <point x="300.6363636363636" y="511.0" type="line"/>
    </contour>
  </outline>
</glyph>
<glyph name="comma" format="2">
  <advance width="331.59999999999997"/>
  <unicode hex="002C"/>
  <outline>
    <contour>
      <point x="95.9090909090909" y="-150.0" type="line"/>
      <point x="195.27272727272728" y="-129.0"/>
      <point x="242.36363636363637" y="-33.90909090909091"/>
      <point x="242.36363636363637" y="48.27272727272727" type="curve" smooth="yes"/>
      <point x="242.36363636363637" y="100.0"/>
      <point x="225.0909090909091" y="145.1818181818182"/>
      <point x="171.45454545454547" y="145.1818181818182" type="curve" smooth="yes"/>
      <point x="126.18181818181819" y="145.1818181818182"/>
      <point x="101.9090909090909" y="113.27272727272728"/>
      <point x="101.9090909090909" y="67.63636363636364" type="curve" smooth="yes"/>
      <point x="101.9090909090909" y="16.0"/>
      <point x="138.54545454545453" y="-27.636363636363637"/>
      <point x="212.1818181818182" y="-1.2727272727272725" type="curve"/>
      <point x="162.0909090909091" y="23.636363636363637" type="line"/>
      <point x="175.0909090909091" y="-40.45454545454545"/>
      <point x="144.72727272727272" y="-90.0909090909091"/>
      <point x="84.63636363636364" y="-114.0" type="curve"/>
    </contour>
  </outline>
</glyph>
<glyph name="hyphen" format="2">
  <advance width="368.59999999999997"/>
  <unicode hex="002D"/>
  <outline>
    <contour>
      <point x="75.72727272727273" y="212.9090909090909" type="line"/>
      <point x="290.72727272727275" y="212.9090909090909" type="line"/>
      <point x="295.72727272727275" y="295.54545454545456" type="line"/>
      <point x="73.72727272727273" y="295.54545454545456" type="line"/>
    </contour>
  </outline>
</glyph>
<glyph name="period" format="2">
  <advance width="341.2"/>
  <unicode hex="002E"/>
  <outline>
    <contour>
      <point x="170.45454545454547" y="-13.181818181818182" type="curve" smooth="yes"/>
      <point x="217.1818181818182" y="-13.181818181818182"/>
      <point x="243.63636363636363" y="18.636363636363637"/>
      <point x="243.63636363636363" y="65.0" type="curve" smooth="yes"/>
      <point x="243.63636363636363" y="114.36363636363636"/>
      <point x="216.1818181818182" y="144.1818181818182"/>
      <point x="170.45454545454547" y="144.1818181818182" type="curve" smooth="yes"/>
      <point x="124.0909090909091" y="144.1818181818182"/>
      <point x="97.63636363636364" y="111.36363636363636"/>
      <point x="97.63636363636364" y="65.0" type="curve" smooth="yes"/>
      <point x="97.63636363636364" y="18.636363636363637"/>
      <point x="124.0909090909091" y="-13.181818181818182"/>
    </contour>
  </outline>
</glyph>
<glyph name="slash" format="2">
  <advance width="421.2"/>
  <unicode hex="002F"/>
  <outline>
    <contour>
      <point x="97.45454545454545" y="-65.72727272727273" type="line"/>
      <point x="404.6363636363636" y="747.0" type="line"/>
      <point x="324.27272727272725" y="773.0" type="line"/>
      <point x="16.09090909090909" y="-39.72727272727273" type="line"/>
    </contour>
  </outline>
</glyph>
<glyph name="zero" format="2">
  <advance width="667.6"/>
  <unicode hex="0030"/>
  <outline>
    <contour>
      <point x="333.90909090909093" y="-10.0" type="curve" smooth="yes"/>
      <point x="515.0909090909091" y="-10.0"/>
      <point x="585.9090909090909" y="146.0"/>
      <point x="585.9090909090909" y="326.0" type="curve"/>
      <point x="585.9090909090909" y="506.0"/>
      <point x="515.0909090909091" y="662.0"/>
      <point x="333.90909090909093" y="662.0" type="curve" smooth="yes"/>
      <point x="152.36363636363637" y="662.0"/>
      <point x="81.9090909090909" y="506.0"/>
      <point x="81.9090909090909" y="326.0" type="curve"/>
      <point x="81.9090909090909" y="146.0"/>
      <point x="152.36363636363637" y="-10.0"/>
    </contour>
    <contour>
      <point x="333.90909090909093" y="65.18181818181819" type="curve" smooth="yes"/>
      <point x="238.63636363636363" y="65.18181818181819"/>
      <point x="219.72727272727272" y="205.27272727272728"/>
      <point x="219.72727272727272" y="326.0" type="curve"/>
      <point x="219.72727272727272" y="446.72727272727275"/>
      <point x="238.63636363636363" y="587.1818181818181"/>
      <point x="333.90909090909093" y="587.1818181818181" type="curve" smooth="yes"/>
      <point x="429.1818181818182" y="587.1818181818181"/>
      <point x="447.72727272727275" y="446.72727272727275"/>
      <point x="447.72727272727275" y="326.0" type="curve" smooth="yes"/>
      <point x="447.72727272727275" y="205.27272727272728"/>
      <point x="429.1818181818182" y="65.18181818181819"/>
    </contour>
  </outline>
</glyph>
<glyph name="one" format="2">
  <advance width="524.8"/>
  <unicode hex="0031"/>
  <outline>
    <contour>
      <point x="80.45454545454545" y="-5.0" type="line"/>
      <point x="124.54545454545455" y="-3.0"/>
      <point x="244.27272727272728" y="0.0"/>
      <point x="264.0" y="0.0" type="curve" smooth="yes"/>
      <point x="461.72727272727275" y="0.0" type="line"/>
      <point x="468.0909090909091" y="64.0909090909091" type="line"/>
      <point x="306.54545454545456" y="74.72727272727272" type="line"/>
      <point x="364.54545454545456" y="18.363636363636363" type="line"/>
      <point x="357.27272727272725" y="73.27272727272727"/>
      <point x="349.72727272727275" y="139.27272727272728"/>
      <point x="349.72727272727275" y="182.45454545454544" type="curve" smooth="yes"/>
      <point x="349.72727272727275" y="426.0" type="line" smooth="yes"/>
      <point x="349.72727272727275" y="463.0"/>
      <point x="354.3636363636364" y="581.0"/>
      <point x="357.3636363636364" y="660.0" type="curve"/>
      <point x="276.90909090909093" y="672.0" type="line"/>
      <point x="63.09090909090909" y="507.0" type="line"/>
      <point x="96.0909090909091" y="453.0" type="line"/>
      <point x="277.90909090909093" y="520.1818181818181" type="line"/>
      <point x="229.45454545454547" y="552.0909090909091" type="line"/>
      <point x="229.45454545454547" y="152.45454545454544" type="line" smooth="yes"/>
      <point x="229.45454545454547" y="128.54545454545453"/>
      <point x="219.54545454545453" y="63.27272727272727"/>
      <point x="212.0" y="18.363636363636363" type="curve"/>
      <point x="272.27272727272725" y="77.72727272727272" type="line"/>
      <point x="75.45454545454545" y="57.0" type="line"/>
    </contour>
  </outline>
</glyph>
<glyph name="two" format="2">
  <advance width="617.0"/>
  <unicode hex="0032"/>
  <outline>
    <contour>
      <point x="505.45454545454544" y="-3.0" type="line"/>
      <point x="531.0909090909091" y="17.0" type="line"/>
      <point x="539.4545454545455" y="189.63636363636363" type="line"/>
      <point x="470.90909090909093" y="194.9090909090909" type="line"/>
      <point x="464.6363636363636" y="153.9090909090909" type="line"/>
      <point x="454.72727272727275" y="122.36363636363636"/>
      <point x="444.09090909090907" y="91.18181818181819"/>
      <point x="432.54545454545456" y="59.63636363636364" type="curve"/>
      <point x="501.45454545454544" y="115.36363636363636" type="line"/>
      <point x="455.45454545454544" y="108.72727272727272"/>
      <point x="389.09090909090907" y="100.18181818181819"/>
      <point x="363.45454545454544" y="100.18181818181819" type="curve" smooth="yes"/>
      <point x="164.0909090909091" y="100.18181818181819" type="line"/>
      <point x="165.45454545454544" y="56.54545454545455" type="line"/>
      <point x="438.9090909090909" y="290.45454545454544"/>
      <point x="507.45454545454544" y="377.90909090909093"/>
      <point x="507.45454545454544" y="494.3636363636364" type="curve" smooth="yes"/>
      <point x="507.45454545454544" y="600.4545454545455"/>
      <point x="428.0" y="662.0"/>
      <point x="289.45454545454544" y="662.0" type="curve" smooth="yes"/>
      <point x="219.45454545454547" y="662.0"/>
      <point x="161.36363636363637" y="651.7272727272727"/>
      <point x="94.0" y="626.6363636363636" type="curve"/>
      <point x="103.54545454545455" y="464.1818181818182" type="line"/>
      <point x="172.72727272727272" y="468.09090909090907" type="line"/>
      <point x="172.0" y="512.1818181818181" type="line" smooth="yes"/>
      <point x="171.63636363636363" y="524.4545454545455"/>
      <point x="183.9090909090909" y="575.5454545454545"/>
      <point x="191.54545454545456" y="606.7272727272727" type="curve"/>
      <point x="146.9090909090909" y="532.6363636363636" type="line"/>
      <point x="190.36363636363637" y="565.9090909090909"/>
      <point x="229.36363636363637" y="580.7272727272727"/>
      <point x="273.1818181818182" y="580.7272727272727" type="curve" smooth="yes"/>
      <point x="332.6363636363636" y="580.7272727272727"/>
      <point x="373.0" y="543.0909090909091"/>
      <point x="373.0" y="480.6363636363636" type="curve" smooth="yes"/>
      <point x="373.0" y="391.72727272727275"/>
      <point x="322.27272727272725" y="326.45454545454544"/>
      <point x="71.72727272727273" y="88.45454545454545" type="curve"/>
      <point x="85.72727272727273" y="0.0" type="line"/>
      <point x="391.72727272727275" y="0.0" type="line"/>
    </contour>
  </outline>
</glyph>
<glyph name="three" format="2">
  <advance width="554.8000000000001"/>
  <unicode hex="0033"/>
  <outline>
    <contour>
      <point x="79.72727272727272" y="-105.0" type="line"/>
      <point x="312.45454545454544" y="-84.0909090909091"/>
      <point x="480.1818181818182" y="32.0"/>
      <point x="480.1818181818182" y="171.45454545454547" type="curve" smooth="yes"/>
      <point x="480.1818181818182" y="259.90909090909093"/>
      <point x="404.1818181818182" y="332.3636363636364"/>
      <point x="298.09090909090907" y="338.54545454545456" type="curve"/>
      <point x="297.6363636363636" y="317.09090909090907" type="line"/>
      <point x="396.0" y="348.6363636363636"/>
      <point x="452.1818181818182" y="413.90909090909093"/>
      <point x="452.1818181818182" y="491.72727272727275" type="curve" smooth="yes"/>
      <point x="452.1818181818182" y="603.0909090909091"/>
      <point x="377.09090909090907" y="662.0"/>
      <point x="237.36363636363637" y="662.0" type="curve" smooth="yes"/>
      <point x="180.0" y="662.0"/>
      <point x="124.9090909090909" y="652.7272727272727"/>
      <point x="66.0909090909091" y="633.0" type="curve"/>
      <point x="79.72727272727273" y="474.09090909090907" type="line"/>
      <point x="149.27272727272728" y="478.3636363636364" type="line"/>
      <point x="148.54545454545456" y="528.0909090909091" type="line" smooth="yes"/>
      <point x="148.1818181818182" y="540.0909090909091"/>
      <point x="161.0909090909091" y="591.0909090909091"/>
      <point x="168.72727272727272" y="623.2727272727273" type="curve"/>
      <point x="130.72727272727272" y="557.0" type="line"/>
      <point x="157.0909090909091" y="576.5454545454545"/>
      <point x="191.63636363636363" y="587.4545454545455"/>
      <point x="232.45454545454547" y="587.4545454545455" type="curve" smooth="yes"/>
      <point x="290.72727272727275" y="587.4545454545455"/>
      <point x="323.09090909090907" y="553.2727272727273"/>
      <point x="323.09090909090907" y="489.72727272727275" type="curve" smooth="yes"/>
      <point x="323.09090909090907" y="406.27272727272725"/>
      <point x="264.54545454545456" y="354.09090909090907"/>
      <point x="148.72727272727272" y="337.1818181818182" type="curve"/>
      <point x="162.72727272727272" y="274.0" type="line"/>
      <point x="177.0" y="275.6363636363636"/>
      <point x="205.0" y="277.6363636363636"/>
      <point x="227.63636363636363" y="277.6363636363636" type="curve" smooth="yes"/>
      <point x="301.09090909090907" y="277.6363636363636"/>
      <point x="343.45454545454544" y="236.54545454545453"/>
      <point x="343.45454545454544" y="164.0909090909091" type="curve" smooth="yes"/>
      <point x="343.45454545454544" y="66.0909090909091"/>
      <point x="230.63636363636363" y="-15.363636363636363"/>
      <point x="59.54545454545455" y="-38.09090909090909" type="curve"/>
    </contour>
  </outline>
</glyph>
<glyph name="four" format="2">
  <advance width="628.0"/>
  <unicode hex="0034"/>
  <outline>
    <contour>
      <point x="116.54545454545455" y="189.63636363636363" type="line"/>
      <point x="361.09090909090907" y="189.63636363636363" type="line"/>
      <point x="361.09090909090907" y="266.45454545454544" type="line"/>
      <point x="130.36363636363637" y="265.0" type="line"/>
      <point x="152.36363636363637" y="222.72727272727272" type="line"/>
      <point x="371.3636363636364" y="531.4545454545455" type="line" smooth="yes"/>
      <point x="382.3636363636364" y="548.4545454545455"/>
      <point x="450.09090909090907" y="619.0"/>
      <point x="498.3636363636364" y="668.0909090909091" type="curve"/>
      <point x="410.72727272727275" y="739.0" type="line"/>
      <point x="54.54545454545455" y="266.0" type="line"/>
    </contour>
    <contour>
      <point x="237.27272727272728" y="-5.0" type="line"/>
      <point x="280.72727272727275" y="-3.0"/>
      <point x="339.1818181818182" y="0.0"/>
      <point x="368.6363636363636" y="0.0" type="curve" smooth="yes"/>
      <point x="549.1818181818181" y="0.0" type="line"/>
      <point x="554.9090909090909" y="64.0909090909091" type="line"/>
      <point x="415.3636363636364" y="74.0909090909091" type="line"/>
      <point x="473.3636363636364" y="18.363636363636363" type="line"/>
      <point x="468.0" y="66.63636363636364"/>
      <point x="461.09090909090907" y="124.63636363636364"/>
      <point x="461.09090909090907" y="162.9090909090909" type="curve" smooth="yes"/>
      <point x="461.09090909090907" y="421.27272727272725" type="line"/>
      <point x="346.1818181818182" y="381.6363636363636" type="line"/>
      <point x="346.1818181818182" y="151.54545454545456" type="line" smooth="yes"/>
      <point x="346.1818181818182" y="117.27272727272728"/>
      <point x="337.45454545454544" y="62.63636363636363"/>
      <point x="331.3636363636364" y="18.363636363636363" type="curve"/>
      <point x="391.1818181818182" y="77.0909090909091" type="line"/>
      <point x="232.27272727272728" y="57.0" type="line"/>
    </contour>
    <contour>
      <point x="445.45454545454544" y="189.63636363636363" type="line"/>
      <point x="554.3636363636364" y="189.63636363636363" type="line"/>
      <point x="554.3636363636364" y="279.3636363636364" type="line"/>
      <point x="445.45454545454544" y="273.0" type="line"/>
    </contour>
  </outline>
</glyph>
<glyph name="five" format="2">
  <advance width="551.1999999999999"/>
  <unicode hex="0035"/>
  <outline>
    <contour>
      <point x="96.0909090909091" y="-105.0" type="line"/>
      <point x="331.6363636363636" y="-72.9090909090909"/>
      <point x="474.1818181818182" y="23.0"/>
      <point x="474.1818181818182" y="182.63636363636363" type="curve" smooth="yes"/>
      <point x="474.1818181818182" y="304.72727272727275"/>
      <point x="391.54545454545456" y="375.3636363636364"/>
      <point x="249.27272727272728" y="375.3636363636364" type="curve" smooth="yes"/>
      <point x="216.54545454545456" y="375.3636363636364"/>
      <point x="177.72727272727272" y="369.0"/>
      <point x="141.63636363636363" y="360.09090909090907" type="curve"/>
      <point x="176.36363636363637" y="320.0" type="line"/>
      <point x="189.36363636363637" y="541.3636363636364" type="line"/>
      <point x="271.3636363636364" y="541.3636363636364" type="line"/>
      <point x="449.3636363636364" y="559.0" type="line"/>
      <point x="443.3636363636364" y="662.0" type="line"/>
      <point x="200.36363636363637" y="652.0" type="line"/>
      <point x="120.36363636363636" y="652.0" type="line"/>
      <point x="101.36363636363636" y="634.0" type="line"/>
      <point x="79.63636363636364" y="314.1818181818182" type="line"/>
      <point x="122.63636363636364" y="273.27272727272725" type="line"/>
      <point x="162.0909090909091" y="283.90909090909093"/>
      <point x="191.45454545454547" y="286.90909090909093"/>
      <point x="214.54545454545453" y="286.90909090909093" type="curve" smooth="yes"/>
      <point x="300.6363636363636" y="286.90909090909093"/>
      <point x="342.54545454545456" y="242.45454545454547"/>
      <point x="342.54545454545456" y="164.72727272727272" type="curve" smooth="yes"/>
      <point x="342.54545454545456" y="53.72727272727273"/>
      <point x="246.36363636363637" y="-6.272727272727273"/>
      <point x="75.9090909090909" y="-39.36363636363636" type="curve"/>
    </contour>
  </outline>
</glyph>
<glyph name="six" format="2">
  <advance width="623.1999999999999"/>
  <unicode hex="0036"/>
  <outline>
    <contour>
      <point x="320.54545454545456" y="-11.0" type="curve" smooth="yes"/>
      <point x="448.54545454545456" y="-11.0"/>
      <point x="552.9090909090909" y="76.72727272727273"/>
      <point x="552.9090909090909" y="204.72727272727272" type="curve" smooth="yes"/>
      <point x="552.9090909090909" y="331.54545454545456"/>
      <point x="476.72727272727275" y="409.0"/>
      <point x="350.27272727272725" y="409.0" type="curve" smooth="yes"/>
      <point x="323.90909090909093" y="409.0"/>
      <point x="296.90909090909093" y="404.1818181818182"/>
      <point x="270.90909090909093" y="396.45454545454544" type="curve"/>
      <point x="276.90909090909093" y="334.27272727272725" type="line"/>
      <point x="292.27272727272725" y="336.6363636363636"/>
      <point x="307.90909090909093" y="338.0"/>
      <point x="323.27272727272725" y="338.0" type="curve" smooth="yes"/>
      <point x="391.6363636363636" y="338.0"/>
      <point x="418.72727272727275" y="273.09090909090907"/>
      <point x="418.72727272727275" y="204.72727272727272" type="curve" smooth="yes"/>
      <point x="418.72727272727275" y="135.45454545454544"/>
      <point x="389.1818181818182" y="67.18181818181819"/>
      <point x="319.90909090909093" y="67.18181818181819" type="curve" smooth="yes"/>
      <point x="237.45454545454544" y="67.18181818181819"/>
      <point x="209.72727272727272" y="163.9090909090909"/>
      <point x="209.72727272727272" y="246.0" type="curve" smooth="yes"/>
      <point x="209.72727272727272" y="413.54545454545456"/>
      <point x="290.0909090909091" y="612.0909090909091"/>
      <point x="531.2727272727273" y="687.1818181818181" type="curve"/>
      <point x="516.7272727272727" y="747.0" type="line"/>
      <point x="220.54545454545453" y="693.6363636363636"/>
      <point x="76.9090909090909" y="457.0"/>
      <point x="76.9090909090909" y="246.0" type="curve" smooth="yes"/>
      <point x="76.9090909090909" y="93.18181818181819"/>
      <point x="167.36363636363637" y="-11.0"/>
    </contour>
  </outline>
</glyph>
<glyph name="seven" format="2">
  <advance width="592.4"/>
  <unicode hex="0037"/>
  <outline>
    <contour>
      <point x="227.36363636363637" y="-105.0" type="line"/>
      <point x="531.3636363636364" y="595.0" type="line"/>
      <point x="515.3636363636364" y="652.0" type="line"/>
      <point x="217.72727272727272" y="652.0" type="line" smooth="yes"/>
      <point x="200.36363636363637" y="652.0"/>
      <point x="139.0" y="657.0"/>
      <point x="97.0" y="661.0" type="curve"/>
      <point x="78.63636363636364" y="641.0" type="line"/>
      <point x="68.36363636363636" y="455.72727272727275" type="line"/>
      <point x="137.9090909090909" y="452.3636363636364" type="line"/>
      <point x="144.45454545454544" y="499.54545454545456" type="line" smooth="yes"/>
      <point x="145.45454545454544" y="507.9090909090909"/>
      <point x="167.27272727272728" y="558.0909090909091"/>
      <point x="180.45454545454544" y="587.7272727272727" type="curve"/>
      <point x="107.0" y="534.0" type="line"/>
      <point x="146.36363636363637" y="538.0"/>
      <point x="205.0909090909091" y="543.6363636363636"/>
      <point x="226.72727272727272" y="543.6363636363636" type="curve" smooth="yes"/>
      <point x="438.0" y="543.6363636363636" type="line"/>
      <point x="400.27272727272725" y="593.4545454545455" type="line"/>
      <point x="382.3636363636364" y="527.9090909090909"/>
      <point x="353.90909090909093" y="421.9090909090909"/>
      <point x="341.90909090909093" y="396.09090909090907" type="curve" smooth="yes"/>
      <point x="121.27272727272728" y="-69.27272727272728" type="line"/>
    </contour>
  </outline>
</glyph>
<glyph name="eight" format="2">
  <advance width="616.4"/>
  <unicode hex="0038"/>
  <outline>
    <contour>
      <point x="307.54545454545456" y="-10.0" type="curve" smooth="yes"/>
      <point x="426.45454545454544" y="-10.0"/>
      <point x="540.1818181818181" y="45.09090909090909"/>
      <point x="540.1818181818181" y="163.27272727272728" type="curve" smooth="yes"/>
      <point x="540.1818181818181" y="278.72727272727275"/>
      <point x="445.90909090909093" y="327.3636363636364"/>
      <point x="359.54545454545456" y="374.90909090909093" type="curve" smooth="yes"/>
      <point x="286.27272727272725" y="414.90909090909093"/>
      <point x="218.63636363636363" y="449.3636363636364"/>
      <point x="218.63636363636363" y="521.7272727272727" type="curve" smooth="yes"/>
      <point x="218.63636363636363" y="572.6363636363636"/>
      <point x="257.72727272727275" y="614.1818181818181"/>
      <point x="308.1818181818182" y="614.1818181818181" type="curve" smooth="yes"/>
      <point x="362.0" y="614.1818181818181"/>
      <point x="396.72727272727275" y="573.3636363636364"/>
      <point x="396.72727272727275" y="518.3636363636364" type="curve" smooth="yes"/>
      <point x="396.72727272727275" y="444.90909090909093"/>
      <point x="335.1818181818182" y="379.54545454545456"/>
      <point x="273.45454545454544" y="342.27272727272725" type="curve"/>
      <point x="339.54545454545456" y="310.27272727272725" type="line"/>
      <point x="451.0" y="365.45454545454544"/>
      <point x="518.1818181818181" y="441.09090909090907"/>
      <point x="518.1818181818181" y="519.0" type="curve" smooth="yes"/>
      <point x="518.1818181818181" y="625.2727272727273"/>
      <point x="413.0" y="682.0"/>
      <point x="308.1818181818182" y="682.0" type="curve" smooth="yes"/>
      <point x="202.27272727272728" y="682.0"/>
      <point x="97.54545454545455" y="624.9090909090909"/>
      <point x="97.54545454545455" y="521.6363636363636" type="curve" smooth="yes"/>
      <point x="97.54545454545455" y="399.72727272727275"/>
      <point x="191.0909090909091" y="350.54545454545456"/>
      <point x="277.1818181818182" y="305.54545454545456" type="curve" smooth="yes"/>
      <point x="348.72727272727275" y="267.45454545454544"/>
      <point x="414.72727272727275" y="233.0"/>
      <point x="414.72727272727275" y="161.27272727272728" type="curve" smooth="yes"/>
      <point x="414.72727272727275" y="97.0909090909091"/>
      <point x="370.27272727272725" y="58.18181818181818"/>
      <point x="308.1818181818182" y="58.18181818181818" type="curve" smooth="yes"/>
      <point x="243.63636363636363" y="58.18181818181818"/>
      <point x="200.0" y="99.63636363636364"/>
      <point x="200.0" y="164.63636363636363" type="curve" smooth="yes"/>
      <point x="200.0" y="231.72727272727272"/>
      <point x="255.9090909090909" y="295.6363636363636"/>
      <point x="357.9090909090909" y="344.54545454545456" type="curve"/>
      <point x="290.27272727272725" y="387.72727272727275" type="line"/>
      <point x="213.0909090909091" y="350.45454545454544"/>
      <point x="75.54545454545455" y="280.0"/>
      <point x="75.54545454545455" y="164.0" type="curve" smooth="yes"/>
      <point x="75.54545454545455" y="45.36363636363637"/>
      <point x="188.36363636363637" y="-10.0"/>
    </contour>
  </outline>
</glyph>
<glyph name="nine" format="2">
  <advance width="622.4"/>
  <unicode hex="0039"/>
  <outline>
    <contour>
      <point x="111.45454545454545" y="-105.72727272727273" type="line"/>
      <point x="410.54545454545456" y="-49.09090909090909"/>
      <point x="545.2727272727273" y="190.36363636363637"/>
      <point x="545.2727272727273" y="403.54545454545456" type="curve" smooth="yes"/>
      <point x="545.2727272727273" y="554.2727272727273"/>
      <point x="459.1818181818182" y="662.0"/>
      <point x="300.54545454545456" y="662.0" type="curve" smooth="yes"/>
      <point x="171.1818181818182" y="662.0"/>
      <point x="68.18181818181819" y="568.2727272727273"/>
      <point x="68.18181818181819" y="445.54545454545456" type="curve" smooth="yes"/>
      <point x="68.18181818181819" y="318.09090909090907"/>
      <point x="151.9090909090909" y="242.0"/>
      <point x="279.0" y="242.0" type="curve" smooth="yes"/>
      <point x="309.27272727272725" y="242.0"/>
      <point x="334.09090909090907" y="247.36363636363637"/>
      <point x="351.6363636363636" y="254.1818181818182" type="curve"/>
      <point x="345.27272727272725" y="316.0" type="line"/>
      <point x="331.54545454545456" y="314.27272727272725"/>
      <point x="317.27272727272725" y="313.0"/>
      <point x="300.0" y="313.0" type="curve" smooth="yes"/>
      <point x="241.0909090909091" y="313.0"/>
      <point x="202.72727272727272" y="373.3636363636364"/>
      <point x="202.72727272727272" y="445.54545454545456" type="curve" smooth="yes"/>
      <point x="202.72727272727272" y="515.5454545454545"/>
      <point x="230.45454545454544" y="584.1818181818181"/>
      <point x="300.09090909090907" y="584.1818181818181" type="curve" smooth="yes"/>
      <point x="377.45454545454544" y="584.1818181818181"/>
      <point x="410.6363636363636" y="493.27272727272725"/>
      <point x="410.6363636363636" y="403.54545454545456" type="curve" smooth="yes"/>
      <point x="410.6363636363636" y="236.0"/>
      <point x="348.27272727272725" y="32.45454545454545"/>
      <point x="92.72727272727273" y="-40.45454545454545" type="curve"/>
    </contour>
  </outline>
</glyph>
<glyph name="colon" format="2">
  <advance width="302.40000000000003"/>
  <unicode hex="003A"/>
  <outline>
    <contour>
      <point x="151.27272727272728" y="334.1818181818182" type="curve" smooth="yes"/>
      <point x="195.27272727272728" y="334.1818181818182"/>
      <point x="219.0909090909091" y="363.6363636363636"/>
      <point x="219.0909090909091" y="407.0" type="curve" smooth="yes"/>
      <point x="219.0909090909091" y="453.3636363636364"/>
      <point x="193.63636363636363" y="481.1818181818182"/>
      <point x="151.27272727272728" y="481.1818181818182" type="curve" smooth="yes"/>
      <point x="107.27272727272727" y="481.1818181818182"/>
      <point x="83.0909090909091" y="450.3636363636364"/>
      <point x="83.0909090909091" y="407.0" type="curve" smooth="yes"/>
      <point x="83.0909090909091" y="363.6363636363636"/>
      <point x="107.27272727272727" y="334.1818181818182"/>
    </contour>
    <contour>
      <point x="151.27272727272728" y="-13.181818181818182" type="curve" smooth="yes"/>
      <point x="195.27272727272728" y="-13.181818181818182"/>
      <point x="219.0909090909091" y="16.636363636363637"/>
      <point x="219.0909090909091" y="60.0" type="curve" smooth="yes"/>
      <point x="219.0909090909091" y="106.36363636363636"/>
      <point x="193.63636363636363" y="134.1818181818182"/>
      <point x="151.27272727272728" y="134.1818181818182" type="curve" smooth="yes"/>
      <point x="107.27272727272727" y="134.1818181818182"/>
      <point x="83.0909090909091" y="103.36363636363636"/>
      <point x="83.0909090909091" y="60.0" type="curve" smooth="yes"/>
      <point x="83.0909090909091" y="16.636363636363637"/>
      <point x="107.27272727272727" y="-13.181818181818182"/>
    </contour>
  </outline>
</glyph>
<glyph name="semicolon" format="2">
  <advance width="314.40000000000003"/>
  <unicode hex="003B"/>
  <outline>
    <contour>
      <point x="86.0909090909091" y="-151.0" type="line"/>
      <point x="185.45454545454547" y="-130.0"/>
      <point x="232.9090909090909" y="-34.90909090909091"/>
      <point x="232.9090909090909" y="47.27272727272727" type="curve" smooth="yes"/>
      <point x="232.9090909090909" y="99.0"/>
      <point x="215.63636363636363" y="144.1818181818182"/>
      <point x="162.0" y="144.1818181818182" type="curve" smooth="yes"/>
      <point x="116.36363636363636" y="144.1818181818182"/>
      <point x="92.0909090909091" y="112.27272727272728"/>
      <point x="92.0909090909091" y="66.63636363636364" type="curve" smooth="yes"/>
      <point x="92.0909090909091" y="15.0"/>
      <point x="128.72727272727272" y="-28.636363636363637"/>
      <point x="202.36363636363637" y="-2.2727272727272725" type="curve"/>
      <point x="152.63636363636363" y="22.636363636363637" type="line"/>
      <point x="165.63636363636363" y="-41.45454545454545"/>
      <point x="135.27272727272728" y="-91.0909090909091"/>
      <point x="75.18181818181819" y="-115.0" type="curve"/>
    </contour>
    <contour>
      <point x="161.0" y="328.1818181818182" type="curve" smooth="yes"/>
      <point x="205.0" y="328.1818181818182"/>
      <point x="229.1818181818182" y="357.6363636363636"/>
      <point x="229.1818181818182" y="401.0" type="curve" smooth="yes"/>
      <point x="229.1818181818182" y="447.3636363636364"/>
      <point x="203.36363636363637" y="475.1818181818182"/>
      <point x="161.0" y="475.1818181818182" type="curve" smooth="yes"/>
      <point x="117.0" y="475.1818181818182"/>
      <point x="93.18181818181819" y="444.3636363636364"/>
      <point x="93.18181818181819" y="401.0" type="curve" smooth="yes"/>
      <point x="93.18181818181819" y="357.6363636363636"/>
      <point x="117.0" y="328.1818181818182"/>
    </contour>
  </outline>
</glyph>
<glyph name="less" format="2">
  <advance width="525.6"/>
  <unicode hex="003C"/>
  <outline>
    <contour>
      <point x="377.1818181818182" y="-15.0" type="line"/>
      <point x="437.09090909090907" y="51.27272727272727" type="line"/>
      <point x="167.0909090909091" y="283.0" type="line"/>
      <point x="167.0909090909091" y="214.27272727272728" type="line"/>
      <point x="436.72727272727275" y="446.72727272727275" type="line"/>
      <point x="376.45454545454544" y="513.0" type="line"/>
      <point x="78.27272727272727" y="248.27272727272728" type="line"/>
    </contour>
  </outline>
</glyph>
<glyph name="equal" format="2">
  <advance width="718.4"/>
  <unicode hex="003D"/>
  <outline>
    <contour>
      <point x="132.0" y="295.6363636363636" type="line"/>
      <point x="587.0" y="300.6363636363636" type="line"/>
      <point x="587.0" y="387.45454545454544" type="line"/>
      <point x="132.0" y="387.45454545454544" type="line"/>
    </contour>
    <contour>
      <point x="132.0" y="106.36363636363636" type="line"/>
      <point x="587.0" y="109.54545454545455" type="line"/>
      <point x="587.0" y="198.54545454545453" type="line"/>
      <point x="132.0" y="196.36363636363637" type="line"/>
    </contour>
  </outline>
</glyph>
<glyph name="greater" format="2">
  <advance width="525.6"/>
  <unicode hex="003E"/>
  <outline>
    <contour>
      <point x="148.45454545454547" y="-15.636363636363637" type="line"/>
      <point x="447.3636363636364" y="247.63636363636363" type="line"/>
      <point x="149.1818181818182" y="512.3636363636364" type="line"/>
      <point x="88.9090909090909" y="446.09090909090907" type="line"/>
      <point x="358.54545454545456" y="213.63636363636363" type="line"/>
      <point x="358.54545454545456" y="282.3636363636364" type="line"/>
      <point x="88.54545454545455" y="50.63636363636364" type="line"/>
    </contour>
  </outline>
</glyph>
<glyph name="question" format="2">
  <advance width="504.2"/>
  <unicode hex="003F"/>
  <outline>
    <contour>
      <point x="204.36363636363637" y="221.72727272727272" type="line"/>
      <point x="217.36363636363637" y="233.72727272727272" type="line"/>
      <point x="212.0" y="409.09090909090907" type="line"/>
      <point x="172.72727272727272" y="358.6363636363636" type="line"/>
      <point x="333.3636363636364" y="343.72727272727275"/>
      <point x="438.72727272727275" y="425.27272727272725"/>
      <point x="438.72727272727275" y="565.3636363636364" type="curve" smooth="yes"/>
      <point x="438.72727272727275" y="696.3636363636364"/>
      <point x="352.54545454545456" y="767.0"/>
      <point x="226.27272727272728" y="767.0" type="curve" smooth="yes"/>
      <point x="183.36363636363637" y="767.0"/>
      <point x="136.1818181818182" y="759.0"/>
      <point x="85.9090909090909" y="743.3636363636364" type="curve"/>
      <point x="94.63636363636364" y="591.0" type="line"/>
      <point x="159.27272727272728" y="594.1818181818181" type="line"/>
      <point x="157.27272727272728" y="630.1818181818181" type="line" smooth="yes"/>
      <point x="156.27272727272728" y="647.9090909090909"/>
      <point x="166.54545454545453" y="698.5454545454545"/>
      <point x="171.45454545454547" y="734.9090909090909" type="curve"/>
      <point x="97.27272727272727" y="675.0" type="line"/>
      <point x="134.0" y="690.6363636363636"/>
      <point x="168.63636363636363" y="698.6363636363636"/>
      <point x="199.0" y="698.6363636363636" type="curve" smooth="yes"/>
      <point x="275.27272727272725" y="698.6363636363636"/>
      <point x="320.72727272727275" y="648.6363636363636"/>
      <point x="320.72727272727275" y="561.0" type="curve" smooth="yes"/>
      <point x="320.72727272727275" y="481.3636363636364"/>
      <point x="279.09090909090907" y="420.72727272727275"/>
      <point x="198.63636363636363" y="420.72727272727275" type="curve" smooth="yes"/>
      <point x="186.0" y="420.72727272727275"/>
      <point x="159.1818181818182" y="422.09090909090907"/>
      <point x="142.9090909090909" y="424.09090909090907" type="curve"/>
      <point x="113.72727272727272" y="394.09090909090907" type="line"/>
      <point x="113.72727272727272" y="225.36363636363637" type="line"/>
    </contour>
    <contour>
      <point x="158.36363636363637" y="-13.181818181818182" type="curve" smooth="yes"/>
      <point x="202.36363636363637" y="-13.181818181818182"/>
      <point x="226.54545454545456" y="17.0"/>
      <point x="226.54545454545456" y="60.36363636363636" type="curve" smooth="yes"/>
      <point x="226.54545454545456" y="105.63636363636364"/>
      <point x="201.0909090909091" y="134.1818181818182"/>
      <point x="158.36363636363637" y="134.1818181818182" type="curve" smooth="yes"/>
      <point x="114.36363636363636" y="134.1818181818182"/>
      <point x="90.54545454545455" y="103.72727272727272"/>
      <point x="90.54545454545455" y="60.36363636363636" type="curve" smooth="yes"/>
      <point x="90.54545454545455" y="15.90909090909091"/>
      <point x="114.72727272727273" y="-13.181818181818182"/>
    </contour>
  </outline>
</glyph>
<glyph name="at" format="2">
  <advance width="1059.0"/>
  <unicode hex="0040"/>
  <outline>
    <contour>
      <point x="542.9090909090909" y="-213.0" type="curve" smooth="yes"/>
      <point x="583.4545454545455" y="-213.0"/>
      <point x="683.7272727272727" y="-166.63636363636363"/>
      <point x="753.2727272727273" y="-133.1818181818182" type="curve"/>
      <point x="737.2727272727273" y="-97.72727272727272" type="line"/>
      <point x="672.3636363636364" y="-114.36363636363636"/>
      <point x="576.2727272727273" y="-139.0"/>
      <point x="542.9090909090909" y="-139.0" type="curve" smooth="yes"/>
      <point x="299.45454545454544" y="-139.0"/>
      <point x="207.27272727272728" y="18.272727272727273"/>
      <point x="207.27272727272728" y="232.0" type="curve" smooth="yes"/>
      <point x="207.27272727272728" y="360.54545454545456"/>
      <point x="254.45454545454544" y="606.0"/>
      <point x="537.9090909090909" y="606.0" type="curve" smooth="yes"/>
      <point x="742.6363636363636" y="606.0"/>
      <point x="866.0" y="475.72727272727275"/>
      <point x="866.0" y="287.0" type="curve" smooth="yes"/>
      <point x="866.0" y="197.36363636363637"/>
      <point x="833.9090909090909" y="79.0"/>
      <point x="746.1818181818181" y="58.0" type="curve"/>
      <point x="691.6363636363636" y="0.0" type="line"/>
      <point x="870.1818181818181" y="14.0"/>
      <point x="967.5454545454545" y="158.63636363636363"/>
      <point x="967.5454545454545" y="287.0" type="curve" smooth="yes"/>
      <point x="967.5454545454545" y="527.0"/>
      <point x="798.2727272727273" y="667.0"/>
      <point x="537.9090909090909" y="667.0" type="curve" smooth="yes"/>
      <point x="216.63636363636363" y="667.0"/>
      <point x="98.27272727272727" y="447.0"/>
      <point x="98.27272727272727" y="232.0" type="curve" smooth="yes"/>
      <point x="98.27272727272727" y="25.0"/>
      <point x="192.36363636363637" y="-213.0"/>
    </contour>
    <contour>
      <point x="483.0" y="-10.0" type="curve" smooth="yes"/>
      <point x="559.4545454545455" y="-10.0"/>
      <point x="619.7272727272727" y="33.27272727272727"/>
      <point x="645.2727272727273" y="111.0" type="curve"/>
      <point x="622.7272727272727" y="127.0" type="line"/>
      <point x="639.9090909090909" y="0.0" type="line"/>
      <point x="691.6363636363636" y="0.0" type="line"/>
      <point x="750.0909090909091" y="36.18181818181818" type="line"/>
      <point x="745.0909090909091" y="65.0"/>
      <point x="735.0909090909091" y="117.36363636363636"/>
      <point x="735.0909090909091" y="182.45454545454544" type="curve" smooth="yes"/>
      <point x="735.0909090909091" y="310.27272727272725" type="line" smooth="yes"/>
      <point x="735.0909090909091" y="439.90909090909093"/>
      <point x="670.4545454545455" y="503.0"/>
      <point x="543.9090909090909" y="503.0" type="curve" smooth="yes"/>
      <point x="493.3636363636364" y="503.0"/>
      <point x="427.6363636363636" y="492.45454545454544"/>
      <point x="367.6363636363636" y="477.09090909090907" type="curve"/>
      <point x="381.1818181818182" y="324.3636363636364" type="line"/>
      <point x="449.6363636363636" y="327.3636363636364" type="line"/>
      <point x="448.6363636363636" y="366.45454545454544" type="line"/>
      <point x="464.45454545454544" y="459.0" type="line"/>
      <point x="420.1818181818182" y="398.45454545454544" type="line"/>
      <point x="448.1818181818182" y="409.3636363636364"/>
      <point x="498.27272727272725" y="426.90909090909093"/>
      <point x="536.0909090909091" y="426.90909090909093" type="curve" smooth="yes"/>
      <point x="593.7272727272727" y="426.90909090909093"/>
      <point x="618.7272727272727" y="393.90909090909093"/>
      <point x="618.7272727272727" y="317.6363636363636" type="curve" smooth="yes"/>
      <point x="618.7272727272727" y="161.0" type="line"/>
      <point x="608.7272727272727" y="111.18181818181819"/>
      <point x="570.0909090909091" y="77.36363636363636"/>
      <point x="522.3636363636364" y="77.36363636363636" type="curve" smooth="yes"/>
      <point x="481.3636363636364" y="77.36363636363636"/>
      <point x="460.72727272727275" y="101.0"/>
      <point x="460.72727272727275" y="145.63636363636363" type="curve" smooth="yes"/>
      <point x="460.72727272727275" y="181.9090909090909"/>
      <point x="479.0" y="203.0909090909091"/>
      <point x="517.0909090909091" y="209.45454545454547" type="curve" smooth="yes"/>
      <point x="633.6363636363636" y="230.27272727272728" type="line"/>
      <point x="633.6363636363636" y="289.45454545454544" type="line"/>
      <point x="469.45454545454544" y="262.3636363636364" type="line" smooth="yes"/>
      <point x="380.72727272727275" y="248.0"/>
      <point x="336.72727272727275" y="202.0"/>
      <point x="336.72727272727275" y="126.54545454545455" type="curve" smooth="yes"/>
      <point x="336.72727272727275" y="42.54545454545455"/>
      <point x="392.72727272727275" y="-10.0"/>
    </contour>
  </outline>
</glyph>
<glyph name="A" format="2">
  <advance width="745.0"/>
  <unicode hex="0041"/>
  <anchor x="359.6363636363636" y="0.0" name="bottom"/>
  <anchor x="696.3636363636364" y="0.0" name="ogonek"/>
  <anchor x="370.90909090909093" y="705.0" name="top"/>
  <outline>
    <contour>
      <point x="48.09090909090909" y="-5.0" type="line"/>
      <point x="91.54545454545455" y="-3.0"/>
      <point x="160.63636363636363" y="0.0"/>
      <point x="185.63636363636363" y="0.0" type="curve" smooth="yes"/>
      <point x="280.1818181818182" y="0.0" type="line"/>
      <point x="285.1818181818182" y="61.90909090909091" type="line"/>
      <point x="166.8181818181818" y="76.27272727272728" type="line"/>
      <point x="216.27272727272728" y="29.272727272727273" type="line"/>
      <point x="217.36363636363637" y="65.45454545454545"/>
      <point x="220.27272727272728" y="94.27272727272727"/>
      <point x="228.63636363636363" y="121.63636363636364" type="curve" smooth="yes"/>
      <point x="372.54545454545456" y="580.9090909090909" type="line"/>
      <point x="341.3636363636364" y="580.9090909090909" type="line"/>
      <point x="477.6363636363636" y="152.72727272727272" type="line" smooth="yes"/>
      <point x="490.1818181818182" y="116.36363636363636"/>
      <point x="495.6363636363636" y="83.27272727272727"/>
      <point x="503.6363636363636" y="19.363636363636363" type="curve"/>
      <point x="548.1818181818181" y="82.27272727272728" type="line"/>
      <point x="428.1818181818182" y="53.45454545454545" type="line"/>
      <point x="432.45454545454544" y="-5.0" type="line"/>
      <point x="487.72727272727275" y="-3.0"/>
      <point x="578.2727272727273" y="0.0"/>
      <point x="603.2727272727273" y="0.0" type="curve" smooth="yes"/>
      <point x="696.3636363636364" y="0.0" type="line"/>
      <point x="701.3636363636364" y="61.90909090909091" type="line"/>
      <point x="587.8181818181819" y="80.81818181818181" type="line"/>
      <point x="654.0" y="43.09090909090909" type="line"/>
      <point x="640.2727272727273" y="71.9090909090909"/>
      <point x="620.9090909090909" y="105.72727272727272"/>
      <point x="610.1818181818181" y="139.54545454545453" type="curve" smooth="yes"/>
      <point x="407.0" y="715.6363636363636" type="line"/>
      <point x="324.0" y="705.0" type="line"/>
      <point x="141.27272727272728" y="160.63636363636363" type="line" smooth="yes"/>
      <point x="125.36363636363636" y="115.0909090909091"/>
      <point x="107.0909090909091" y="80.63636363636364"/>
      <point x="77.18181818181819" y="29.363636363636363" type="curve"/>
      <point x="149.63636363636363" y="77.27272727272728" type="line"/>
      <point x="43.45454545454545" y="53.45454545454545" type="line"/>
    </contour>
    <contour>
      <point x="226.45454545454547" y="204.0" type="line"/>
      <point x="493.54545454545456" y="204.0" type="line"/>
      <point x="493.54545454545456" y="271.54545454545456" type="line"/>
      <point x="226.45454545454547" y="271.54545454545456" type="line"/>
    </contour>
  </outline>
</glyph>
<glyph name="B" format="2">
  <advance width="651.1999999999999"/>
  <unicode hex="0042"/>
  <anchor x="326.1818181818182" y="0.0" name="bottom"/>
  <anchor x="326.1818181818182" y="705.0" name="top"/>
  <outline>
    <contour>
      <point x="59.72727272727273" y="-5.0" type="line"/>
      <point x="102.54545454545455" y="-3.0"/>
      <point x="174.45454545454547" y="0.0"/>
      <point x="201.36363636363637" y="0.0" type="curve" smooth="yes"/>
      <point x="251.36363636363637" y="0.0"/>
      <point x="319.6363636363636" y="-4.636363636363637"/>
      <point x="369.6363636363636" y="-4.636363636363637" type="curve" smooth="yes"/>
      <point x="490.27272727272725" y="-4.636363636363637"/>
      <point x="589.0909090909091" y="63.63636363636364"/>
      <point x="589.0909090909091" y="186.1818181818182" type="curve" smooth="yes"/>
      <point x="589.0909090909091" y="300.72727272727275"/>
      <point x="501.6363636363636" y="361.54545454545456"/>
      <point x="382.6363636363636" y="367.27272727272725" type="curve"/>
      <point x="419.09090909090907" y="315.6363636363636" type="line"/>
      <point x="419.09090909090907" y="418.6363636363636" type="line"/>
      <point x="385.27272727272725" y="365.0" type="line"/>
      <point x="484.0" y="373.54545454545456"/>
      <point x="558.0909090909091" y="443.45454545454544"/>
      <point x="558.0909090909091" y="543.0" type="curve" smooth="yes"/>
      <point x="558.0909090909091" y="648.0"/>
      <point x="462.90909090909093" y="710.0"/>
      <point x="352.6363636363636" y="710.0" type="curve" smooth="yes"/>
      <point x="302.6363636363636" y="710.0"/>
      <point x="228.63636363636363" y="705.0"/>
      <point x="178.63636363636363" y="705.0" type="curve" smooth="yes"/>
      <point x="154.54545454545453" y="705.0"/>
      <point x="97.45454545454545" y="708.0"/>
      <point x="61.09090909090909" y="710.0" type="curve"/>
      <point x="56.09090909090909" y="646.5454545454545" type="line"/>
      <point x="168.72727272727272" y="627.7272727272727" type="line"/>
      <point x="123.0909090909091" y="668.7272727272727" type="line"/>
      <point x="124.54545454545455" y="660.5454545454545"/>
      <point x="136.72727272727272" y="584.0"/>
      <point x="136.72727272727272" y="556.6363636363636" type="curve" smooth="yes"/>
      <point x="136.72727272727272" y="149.0" type="line" smooth="yes"/>
      <point x="136.72727272727272" y="124.45454545454545"/>
      <point x="127.0909090909091" y="56.63636363636364"/>
      <point x="123.0909090909091" y="31.636363636363637" type="curve"/>
      <point x="175.72727272727272" y="77.18181818181819" type="line"/>
      <point x="54.72727272727273" y="54.18181818181818" type="line"/>
    </contour>
    <contour>
      <point x="267.45454545454544" y="36.54545454545455" type="line"/>
      <point x="263.72727272727275" y="56.72727272727273"/>
      <point x="256.45454545454544" y="129.72727272727272"/>
      <point x="256.45454545454544" y="179.0" type="curve" smooth="yes"/>
      <point x="256.45454545454544" y="526.6363636363636" type="line" smooth="yes"/>
      <point x="256.45454545454544" y="577.7272727272727"/>
      <point x="264.1818181818182" y="651.3636363636364"/>
      <point x="265.54545454545456" y="666.3636363636364" type="curve"/>
      <point x="232.36363636363637" y="642.6363636363636" type="line"/>
      <point x="261.3636363636364" y="643.3636363636364"/>
      <point x="297.1818181818182" y="643.3636363636364"/>
      <point x="329.72727272727275" y="643.3636363636364" type="curve" smooth="yes"/>
      <point x="399.72727272727275" y="643.3636363636364"/>
      <point x="441.72727272727275" y="597.1818181818181"/>
      <point x="441.72727272727275" y="526.9090909090909" type="curve" smooth="yes"/>
      <point x="441.72727272727275" y="446.09090909090907"/>
      <point x="391.09090909090907" y="400.0"/>
      <point x="316.1818181818182" y="400.0" type="curve" smooth="yes"/>
      <point x="309.45454545454544" y="400.0" type="line"/>
      <point x="302.45454545454544" y="329.09090909090907" type="line"/>
      <point x="313.1818181818182" y="329.09090909090907" type="line" smooth="yes"/>
      <point x="396.1818181818182" y="329.09090909090907"/>
      <point x="464.72727272727275" y="292.0"/>
      <point x="464.72727272727275" y="196.36363636363637" type="curve" smooth="yes"/>
      <point x="464.72727272727275" y="111.45454545454545"/>
      <point x="412.27272727272725" y="64.0909090909091"/>
      <point x="336.72727272727275" y="64.0909090909091" type="curve" smooth="yes"/>
      <point x="297.27272727272725" y="64.0909090909091"/>
      <point x="262.54545454545456" y="68.0909090909091"/>
      <point x="234.36363636363637" y="72.0" type="curve"/>
    </contour>
  </outline>
</glyph>
<glyph name="C" format="2">
  <advance width="690.1999999999999"/>
  <unicode hex="0043"/>
  <anchor x="390.3636363636364" y="0.0" name="bottom"/>
  <anchor x="390.3636363636364" y="720.0" name="top"/>
  <outline>
    <contour>
      <point x="399.72727272727275" y="-15.0" type="curve" smooth="yes"/>
      <point x="482.0" y="-15.0"/>
      <point x="555.9090909090909" y="3.0"/>
      <point x="620.1818181818181" y="19.0" type="curve"/>
      <point x="612.9090909090909" y="179.45454545454547" type="line"/>
      <point x="546.6363636363636" y="177.45454545454547" type="line"/>
      <point x="544.0" y="130.45454545454547" type="line" smooth="yes"/>
      <point x="543.0" y="116.45454545454545"/>
      <point x="526.9090909090909" y="71.36363636363636"/>
      <point x="515.2727272727273" y="43.0" type="curve"/>
      <point x="563.0" y="87.18181818181819" type="line"/>
      <point x="504.45454545454544" y="68.9090909090909"/>
      <point x="449.27272727272725" y="58.45454545454545"/>
      <point x="398.72727272727275" y="58.45454545454545" type="curve" smooth="yes"/>
      <point x="264.90909090909093" y="58.45454545454545"/>
      <point x="205.63636363636363" y="189.1818181818182"/>
      <point x="205.63636363636363" y="353.0" type="curve" smooth="yes"/>
      <point x="205.63636363636363" y="517.1818181818181"/>
      <point x="265.54545454545456" y="646.5454545454545"/>
      <point x="399.72727272727275" y="646.5454545454545" type="curve" smooth="yes"/>
      <point x="448.54545454545456" y="646.5454545454545"/>
      <point x="501.6363636363636" y="634.0909090909091"/>
      <point x="553.3636363636364" y="617.7272727272727" type="curve"/>
      <point x="508.27272727272725" y="660.2727272727273" type="line"/>
      <point x="516.5454545454545" y="634.3636363636364"/>
      <point x="531.7272727272727" y="594.0909090909091"/>
      <point x="531.7272727272727" y="581.0909090909091" type="curve" smooth="yes"/>
      <point x="533.0" y="528.0909090909091" type="line"/>
      <point x="599.9090909090909" y="524.0909090909091" type="line"/>
      <point x="611.1818181818181" y="686.0" type="line"/>
      <point x="545.6363636363636" y="703.2727272727273"/>
      <point x="483.0" y="720.0"/>
      <point x="399.72727272727275" y="720.0" type="curve" smooth="yes"/>
      <point x="180.27272727272728" y="720.0"/>
      <point x="67.9090909090909" y="570.0"/>
      <point x="67.9090909090909" y="352.0" type="curve" smooth="yes"/>
      <point x="67.9090909090909" y="134.0"/>
      <point x="180.27272727272728" y="-15.0"/>
    </contour>
  </outline>
</glyph>
<glyph name="D" format="2">
  <advance width="771.0"/>
  <unicode hex="0044"/>
  <anchor x="349.3636363636364" y="0.0" name="bottom"/>
  <anchor x="205.0" y="353.0" name="center"/>
  <anchor x="351.0" y="720.0" name="top"/>
  <outline>
    <contour>
      <point x="59.72727272727273" y="-5.0" type="line"/>
      <point x="106.63636363636364" y="-3.0"/>
      <point x="174.1818181818182" y="0.0"/>
      <point x="201.36363636363637" y="0.0" type="curve" smooth="yes"/>
      <point x="251.36363636363637" y="0.0"/>
      <point x="307.1818181818182" y="-4.636363636363637"/>
      <point x="357.1818181818182" y="-4.636363636363637" type="curve" smooth="yes"/>
      <point x="580.0909090909091" y="-4.636363636363637"/>
      <point x="705.6363636363636" y="141.63636363636363"/>
      <point x="705.6363636363636" y="352.0" type="curve" smooth="yes"/>
      <point x="705.6363636363636" y="566.5454545454545"/>
      <point x="584.2727272727273" y="710.0"/>
      <point x="357.1818181818182" y="710.0" type="curve" smooth="yes"/>
      <point x="298.09090909090907" y="710.0"/>
      <point x="236.27272727272728" y="705.0"/>
      <point x="178.27272727272728" y="705.0" type="curve" smooth="yes"/>
      <point x="154.1818181818182" y="705.0"/>
      <point x="97.45454545454545" y="708.0"/>
      <point x="61.09090909090909" y="710.0" type="curve"/>
      <point x="56.09090909090909" y="646.5454545454545" type="line"/>
      <point x="175.72727272727272" y="626.6363636363636" type="line"/>
      <point x="122.72727272727272" y="675.2727272727273" type="line"/>
      <point x="126.36363636363636" y="651.2727272727273"/>
      <point x="136.72727272727272" y="582.0909090909091"/>
      <point x="136.72727272727272" y="556.6363636363636" type="curve" smooth="yes"/>
      <point x="136.72727272727272" y="149.0" type="line" smooth="yes"/>
      <point x="136.72727272727272" y="124.18181818181819"/>
      <point x="127.0" y="60.90909090909091"/>
      <point x="121.72727272727272" y="27.727272727272727" type="curve"/>
      <point x="175.72727272727272" y="77.18181818181819" type="line"/>
      <point x="54.72727272727273" y="54.18181818181818" type="line"/>
    </contour>
    <contour>
      <point x="265.45454545454544" y="35.36363636363637" type="line"/>
      <point x="263.1818181818182" y="53.90909090909091"/>
      <point x="256.45454545454544" y="126.63636363636364"/>
      <point x="256.45454545454544" y="179.0" type="curve" smooth="yes"/>
      <point x="256.45454545454544" y="526.6363636363636" type="line" smooth="yes"/>
      <point x="256.45454545454544" y="575.6363636363636"/>
      <point x="263.45454545454544" y="661.9090909090909"/>
      <point x="265.90909090909093" y="673.5454545454545" type="curve"/>
      <point x="240.27272727272728" y="638.0" type="line"/>
      <point x="260.45454545454544" y="638.0"/>
      <point x="308.1818181818182" y="639.9090909090909"/>
      <point x="351.54545454545456" y="639.9090909090909" type="curve" smooth="yes"/>
      <point x="509.3636363636364" y="639.9090909090909"/>
      <point x="576.0" y="508.0"/>
      <point x="576.0" y="353.27272727272725" type="curve" smooth="yes"/>
      <point x="576.0" y="194.36363636363637"/>
      <point x="510.0" y="65.0909090909091"/>
      <point x="350.90909090909093" y="65.0909090909091" type="curve" smooth="yes"/>
      <point x="305.72727272727275" y="65.0909090909091"/>
      <point x="262.72727272727275" y="68.0909090909091"/>
      <point x="238.0" y="68.0909090909091" type="curve"/>
    </contour>
  </outline>
</glyph>
<glyph name="E" format="2">
  <advance width="639.6"/>
  <unicode hex="0045"/>
  <anchor x="331.45454545454544" y="0.0" name="bottom"/>
  <anchor x="541.3636363636364" y="-4.0" name="ogonek"/>
  <anchor x="310.54545454545456" y="720.0" name="top"/>
  <outline>
    <contour>
      <point x="59.72727272727273" y="-5.0" type="line"/>
      <point x="107.27272727272727" y="-2.0"/>
      <point x="174.1818181818182" y="0.0"/>
      <point x="201.36363636363637" y="0.0" type="curve" smooth="yes"/>
      <point x="427.3636363636364" y="0.0" type="line" smooth="yes"/>
      <point x="451.3636363636364" y="0.0"/>
      <point x="503.3636363636364" y="-2.0"/>
      <point x="541.3636363636364" y="-4.0" type="curve"/>
      <point x="560.3636363636364" y="14.0" type="line"/>
      <point x="575.3636363636364" y="176.36363636363637" type="line"/>
      <point x="513.7272727272727" y="181.36363636363637" type="line"/>
      <point x="500.0" y="118.45454545454545" type="line" smooth="yes"/>
      <point x="496.3636363636364" y="102.54545454545455"/>
      <point x="475.72727272727275" y="68.63636363636364"/>
      <point x="454.09090909090907" y="42.36363636363637" type="curve"/>
      <point x="498.72727272727275" y="83.54545454545455" type="line"/>
      <point x="482.6363636363636" y="79.54545454545455"/>
      <point x="439.90909090909093" y="70.9090909090909"/>
      <point x="397.3636363636364" y="70.9090909090909" type="curve" smooth="yes"/>
      <point x="226.54545454545456" y="70.9090909090909" type="line"/>
      <point x="267.54545454545456" y="34.63636363636364" type="line"/>
      <point x="263.45454545454544" y="61.09090909090909"/>
      <point x="256.45454545454544" y="136.0"/>
      <point x="256.45454545454544" y="179.0" type="curve" smooth="yes"/>
      <point x="256.45454545454544" y="526.6363636363636" type="line" smooth="yes"/>
      <point x="256.45454545454544" y="552.6363636363636"/>
      <point x="260.54545454545456" y="617.6363636363636"/>
      <point x="265.54545454545456" y="663.6363636363636" type="curve"/>
      <point x="215.1818181818182" y="637.6363636363636" type="line"/>
      <point x="385.6363636363636" y="637.6363636363636" type="line" smooth="yes"/>
      <point x="424.1818181818182" y="637.6363636363636"/>
      <point x="469.0" y="633.3636363636364"/>
      <point x="492.1818181818182" y="631.0" type="curve"/>
      <point x="445.1818181818182" y="671.0" type="line"/>
      <point x="459.54545454545456" y="648.4545454545455"/>
      <point x="479.27272727272725" y="609.9090909090909"/>
      <point x="481.27272727272725" y="598.0" type="curve" smooth="yes"/>
      <point x="489.72727272727275" y="547.4545454545455" type="line"/>
      <point x="553.7272727272727" y="552.4545454545455" type="line"/>
      <point x="546.7272727272727" y="692.0" type="line"/>
      <point x="527.7272727272727" y="710.0" type="line"/>
      <point x="489.72727272727275" y="707.0"/>
      <point x="431.72727272727275" y="705.0"/>
      <point x="413.72727272727275" y="705.0" type="curve" smooth="yes"/>
      <point x="178.63636363636363" y="705.0" type="line" smooth="yes"/>
      <point x="154.54545454545453" y="705.0"/>
      <point x="97.45454545454545" y="708.0"/>
      <point x="61.09090909090909" y="710.0" type="curve"/>
      <point x="56.09090909090909" y="646.5454545454545" type="line"/>
      <point x="175.72727272727272" y="626.6363636363636" type="line"/>
      <point x="122.0909090909091" y="675.0" type="line"/>
      <point x="128.72727272727272" y="635.0909090909091"/>
      <point x="136.72727272727272" y="576.5454545454545"/>
      <point x="136.72727272727272" y="556.6363636363636" type="curve" smooth="yes"/>
      <point x="136.72727272727272" y="149.0" type="line" smooth="yes"/>
      <point x="136.72727272727272" y="123.54545454545455"/>
      <point x="125.72727272727272" y="54.18181818181818"/>
      <point x="121.72727272727272" y="31.909090909090907" type="curve"/>
      <point x="175.72727272727272" y="77.18181818181819" type="line"/>
      <point x="54.72727272727273" y="54.18181818181818" type="line"/>
    </contour>
    <contour>
      <point x="419.3636363636364" y="258.3636363636364" type="line"/>
      <point x="474.6363636363636" y="264.3636363636364" type="line"/>
      <point x="472.6363636363636" y="303.54545454545456"/>
      <point x="471.6363636363636" y="342.09090909090907"/>
      <point x="471.6363636363636" y="381.27272727272725" type="curve" smooth="yes"/>
      <point x="471.6363636363636" y="465.27272727272725" type="line"/>
      <point x="419.3636363636364" y="470.27272727272725" type="line"/>
      <point x="405.3636363636364" y="365.90909090909093" type="line"/>
      <point x="437.6363636363636" y="407.1818181818182" type="line"/>
      <point x="420.45454545454544" y="402.6363636363636"/>
      <point x="382.45454545454544" y="395.90909090909093"/>
      <point x="357.6363636363636" y="395.90909090909093" type="curve" smooth="yes"/>
      <point x="217.0" y="395.90909090909093" type="line"/>
      <point x="217.0" y="328.54545454545456" type="line"/>
      <point x="337.6363636363636" y="328.54545454545456" type="line" smooth="yes"/>
      <point x="366.1818181818182" y="328.54545454545456"/>
      <point x="422.54545454545456" y="322.45454545454544"/>
      <point x="449.6363636363636" y="320.09090909090907" type="curve"/>
      <point x="405.3636363636364" y="358.54545454545456" type="line"/>
    </contour>
  </outline>
</glyph>
<glyph name="F" format="2">
  <advance width="606.0"/>
  <unicode hex="0046"/>
  <anchor x="303.45454545454544" y="0.0" name="bottom"/>
  <anchor x="303.45454545454544" y="720.0" name="top"/>
  <outline>
    <contour>
      <point x="59.72727272727273" y="-5.0" type="line"/>
      <point x="110.36363636363636" y="-3.0"/>
      <point x="179.54545454545453" y="0.0"/>
      <point x="201.36363636363637" y="0.0" type="curve" smooth="yes"/>
      <point x="356.45454545454544" y="0.0" type="line"/>
      <point x="362.54545454545456" y="61.90909090909091" type="line"/>
      <point x="216.72727272727272" y="71.9090909090909" type="line"/>
      <point x="270.3636363636364" y="29.363636363636363" type="line"/>
      <point x="265.09090909090907" y="59.54545454545455"/>
      <point x="256.45454545454544" y="125.72727272727272"/>
      <point x="256.45454545454544" y="179.0" type="curve"/>
      <point x="256.45454545454544" y="526.6363636363636" type="line"/>
      <point x="256.45454545454544" y="572.7272727272727"/>
      <point x="264.54545454545456" y="653.0"/>
      <point x="265.54545454545456" y="664.7272727272727" type="curve"/>
      <point x="215.1818181818182" y="637.6363636363636" type="line"/>
      <point x="383.72727272727275" y="637.6363636363636" type="line" smooth="yes"/>
      <point x="424.45454545454544" y="637.6363636363636"/>
      <point x="472.1818181818182" y="631.3636363636364"/>
      <point x="488.3636363636364" y="630.3636363636364" type="curve"/>
      <point x="449.27272727272725" y="657.0909090909091" type="line"/>
      <point x="462.6363636363636" y="637.0909090909091"/>
      <point x="476.72727272727275" y="614.3636363636364"/>
      <point x="479.3636363636364" y="603.3636363636364" type="curve"/>
      <point x="484.0" y="586.4545454545455"/>
      <point x="487.72727272727275" y="563.1818181818181"/>
      <point x="489.72727272727275" y="547.1818181818181" type="curve"/>
      <point x="553.7272727272727" y="552.1818181818181" type="line"/>
      <point x="546.7272727272727" y="692.0" type="line"/>
      <point x="527.7272727272727" y="710.0" type="line"/>
      <point x="499.27272727272725" y="708.3636363636364"/>
      <point x="433.72727272727275" y="705.0"/>
      <point x="413.72727272727275" y="705.0" type="curve" smooth="yes"/>
      <point x="178.63636363636363" y="705.0" type="line" smooth="yes"/>
      <point x="154.54545454545453" y="705.0"/>
      <point x="97.45454545454545" y="708.0"/>
      <point x="61.09090909090909" y="710.0" type="curve"/>
      <point x="56.09090909090909" y="646.5454545454545" type="line"/>
      <point x="175.72727272727272" y="626.6363636363636" type="line"/>
      <point x="123.0" y="668.7272727272727" type="line"/>
      <point x="127.36363636363636" y="638.7272727272727"/>
      <point x="136.72727272727272" y="582.0909090909091"/>
      <point x="136.72727272727272" y="556.6363636363636" type="curve" smooth="yes"/>
      <point x="136.72727272727272" y="149.0" type="line" smooth="yes"/>
      <point x="136.72727272727272" y="125.0909090909091"/>
      <point x="128.0" y="66.54545454545455"/>
      <point x="121.36363636363636" y="27.909090909090907" type="curve"/>
      <point x="175.72727272727272" y="77.18181818181819" type="line"/>
      <point x="54.72727272727273" y="54.18181818181818" type="line"/>
    </contour>
    <contour>
      <point x="419.3636363636364" y="249.0909090909091" type="line"/>
      <point x="474.6363636363636" y="255.0909090909091" type="line"/>
      <point x="473.6363636363636" y="283.90909090909093"/>
      <point x="471.6363636363636" y="336.0"/>
      <point x="471.6363636363636" y="372.0" type="curve" smooth="yes"/>
      <point x="471.6363636363636" y="455.3636363636364" type="line"/>
      <point x="419.3636363636364" y="460.3636363636364" type="line"/>
      <point x="406.3636363636364" y="362.1818181818182" type="line"/>
      <point x="437.09090909090907" y="400.09090909090907" type="line"/>
      <point x="417.54545454545456" y="395.09090909090907"/>
      <point x="380.27272727272725" y="386.6363636363636"/>
      <point x="357.6363636363636" y="386.6363636363636" type="curve" smooth="yes"/>
      <point x="210.45454545454547" y="386.6363636363636" type="line"/>
      <point x="210.45454545454547" y="318.6363636363636" type="line"/>
      <point x="337.6363636363636" y="318.6363636363636" type="line" smooth="yes"/>
      <point x="366.1818181818182" y="318.6363636363636"/>
      <point x="422.54545454545456" y="312.90909090909093"/>
      <point x="445.90909090909093" y="310.54545454545456" type="curve"/>
      <point x="406.3636363636364" y="342.27272727272725" type="line"/>
    </contour>
  </outline>
</glyph>
<glyph name="G" format="2">
  <advance width="738.1999999999999"/>
  <unicode hex="0047"/>
  <anchor x="425.09090909090907" y="0.0" name="bottom"/>
  <anchor x="423.09090909090907" y="720.0" name="top"/>
  <outline>
    <contour>
      <point x="415.72727272727275" y="-15.0" type="curve" smooth="yes"/>
      <point x="503.6363636363636" y="-15.0"/>
      <point x="580.9090909090909" y="3.0"/>
      <point x="649.1818181818181" y="19.0" type="curve"/>
      <point x="649.1818181818181" y="179.9090909090909" type="line" smooth="yes"/>
      <point x="649.1818181818181" y="213.63636363636363"/>
      <point x="654.1818181818181" y="279.3636363636364"/>
      <point x="658.1818181818181" y="329.09090909090907" type="curve"/>
      <point x="635.0909090909091" y="349.90909090909093" type="line"/>
      <point x="604.4545454545455" y="348.90909090909093"/>
      <point x="560.0909090909091" y="346.90909090909093"/>
      <point x="544.5454545454545" y="346.90909090909093" type="curve" smooth="yes"/>
      <point x="433.54545454545456" y="346.90909090909093" type="line"/>
      <point x="428.54545454545456" y="270.90909090909093" type="line"/>
      <point x="582.5454545454545" y="258.6363636363636" type="line"/>
      <point x="531.0" y="299.90909090909093" type="line"/>
      <point x="535.2727272727273" y="276.0"/>
      <point x="544.5454545454545" y="226.45454545454547"/>
      <point x="544.5454545454545" y="196.0" type="curve" smooth="yes"/>
      <point x="544.5454545454545" y="128.0" type="line" smooth="yes"/>
      <point x="544.5454545454545" y="111.72727272727273"/>
      <point x="532.9090909090909" y="65.36363636363636"/>
      <point x="525.9090909090909" y="34.72727272727273" type="curve"/>
      <point x="566.5454545454545" y="80.0909090909091" type="line"/>
      <point x="515.3636363636364" y="67.27272727272728"/>
      <point x="461.0" y="58.45454545454545"/>
      <point x="413.3636363636364" y="58.45454545454545" type="curve" smooth="yes"/>
      <point x="268.1818181818182" y="58.45454545454545"/>
      <point x="203.27272727272728" y="189.1818181818182"/>
      <point x="203.27272727272728" y="353.0" type="curve" smooth="yes"/>
      <point x="203.27272727272728" y="517.1818181818181"/>
      <point x="268.45454545454544" y="646.5454545454545"/>
      <point x="414.0" y="646.5454545454545" type="curve" smooth="yes"/>
      <point x="465.27272727272725" y="646.5454545454545"/>
      <point x="530.3636363636364" y="634.0909090909091"/>
      <point x="577.6363636363636" y="618.7272727272727" type="curve"/>
      <point x="542.0" y="656.4545454545455" type="line"/>
      <point x="551.5454545454545" y="624.2727272727273"/>
      <point x="560.0909090909091" y="590.6363636363636"/>
      <point x="560.0909090909091" y="581.0909090909091" type="curve" smooth="yes"/>
      <point x="561.3636363636364" y="528.0909090909091" type="line"/>
      <point x="628.2727272727273" y="524.0909090909091" type="line"/>
      <point x="639.5454545454545" y="686.0" type="line"/>
      <point x="574.0909090909091" y="702.6363636363636"/>
      <point x="502.72727272727275" y="720.0"/>
      <point x="415.72727272727275" y="720.0" type="curve" smooth="yes"/>
      <point x="185.27272727272728" y="720.0"/>
      <point x="66.9090909090909" y="570.0"/>
      <point x="66.9090909090909" y="352.0" type="curve" smooth="yes"/>
      <point x="66.9090909090909" y="134.0"/>
      <point x="185.27272727272728" y="-15.0"/>
    </contour>
  </outline>
</glyph>
<glyph name="H" format="2">
  <advance width="824.6"/>
  <unicode hex="0048"/>
  <anchor x="410.45454545454544" y="0.0" name="bottom"/>
  <anchor x="411.09090909090907" y="520.0" name="center"/>
  <anchor x="410.45454545454544" y="720.0" name="top"/>
  <outline>
    <contour>
      <point x="486.45454545454544" y="-5.0" type="line"/>
      <point x="544.0" y="-2.0"/>
      <point x="590.9090909090909" y="0.0"/>
      <point x="628.0909090909091" y="0.0" type="curve" smooth="yes"/>
      <point x="763.7272727272727" y="0.0" type="line"/>
      <point x="770.0909090909091" y="61.90909090909091" type="line"/>
      <point x="643.1818181818181" y="72.54545454545455" type="line"/>
      <point x="697.0909090909091" y="26.09090909090909" type="line"/>
      <point x="691.4545454545455" y="53.63636363636363"/>
      <point x="683.5454545454545" y="126.36363636363636"/>
      <point x="683.5454545454545" y="179.0" type="curve" smooth="yes"/>
      <point x="683.5454545454545" y="526.6363636363636" type="line" smooth="yes"/>
      <point x="683.5454545454545" y="579.2727272727273"/>
      <point x="689.9090909090909" y="631.4545454545455"/>
      <point x="695.0909090909091" y="668.4545454545455" type="curve"/>
      <point x="643.1818181818181" y="630.2727272727273" type="line"/>
      <point x="763.4545454545455" y="641.5454545454545" type="line"/>
      <point x="759.4545454545455" y="710.0" type="line"/>
      <point x="698.0909090909091" y="707.0"/>
      <point x="646.7272727272727" y="705.0"/>
      <point x="605.3636363636364" y="705.0" type="curve" smooth="yes"/>
      <point x="581.2727272727273" y="705.0"/>
      <point x="524.5454545454545" y="708.0"/>
      <point x="488.1818181818182" y="710.0" type="curve"/>
      <point x="483.1818181818182" y="646.5454545454545" type="line"/>
      <point x="602.1818181818181" y="626.6363636363636" type="line"/>
      <point x="549.4545454545455" y="668.4545454545455" type="line"/>
      <point x="553.4545454545455" y="646.2727272727273"/>
      <point x="563.4545454545455" y="580.5454545454545"/>
      <point x="563.4545454545455" y="556.6363636363636" type="curve" smooth="yes"/>
      <point x="563.4545454545455" y="149.0" type="line" smooth="yes"/>
      <point x="563.4545454545455" y="122.9090909090909"/>
      <point x="552.9090909090909" y="55.72727272727273"/>
      <point x="547.5454545454545" y="26.09090909090909" type="curve"/>
      <point x="602.1818181818181" y="77.18181818181819" type="line"/>
      <point x="481.45454545454544" y="54.18181818181818" type="line"/>
    </contour>
    <contour>
      <point x="59.72727272727273" y="-5.0" type="line"/>
      <point x="117.27272727272727" y="-2.0"/>
      <point x="164.1818181818182" y="0.0"/>
      <point x="201.36363636363637" y="0.0" type="curve" smooth="yes"/>
      <point x="337.6363636363636" y="0.0" type="line"/>
      <point x="343.3636363636364" y="61.90909090909091" type="line"/>
      <point x="216.72727272727272" y="72.54545454545455" type="line"/>
      <point x="270.3636363636364" y="26.09090909090909" type="line"/>
      <point x="265.3636363636364" y="52.72727272727273"/>
      <point x="256.45454545454544" y="124.45454545454545"/>
      <point x="256.45454545454544" y="179.0" type="curve" smooth="yes"/>
      <point x="256.45454545454544" y="526.6363636363636" type="line" smooth="yes"/>
      <point x="256.45454545454544" y="577.3636363636364"/>
      <point x="264.45454545454544" y="640.6363636363636"/>
      <point x="270.0" y="672.2727272727273" type="curve"/>
      <point x="216.72727272727272" y="630.2727272727273" type="line"/>
      <point x="337.3636363636364" y="641.5454545454545" type="line"/>
      <point x="332.72727272727275" y="710.0" type="line"/>
      <point x="271.3636363636364" y="707.0"/>
      <point x="220.0" y="705.0"/>
      <point x="178.63636363636363" y="705.0" type="curve" smooth="yes"/>
      <point x="154.54545454545453" y="705.0"/>
      <point x="97.45454545454545" y="708.0"/>
      <point x="61.09090909090909" y="710.0" type="curve"/>
      <point x="56.09090909090909" y="646.5454545454545" type="line"/>
      <point x="175.72727272727272" y="626.6363636363636" type="line"/>
      <point x="121.45454545454545" y="671.0" type="line"/>
      <point x="128.0" y="641.4545454545455"/>
      <point x="136.72727272727272" y="581.4545454545455"/>
      <point x="136.72727272727272" y="556.6363636363636" type="curve" smooth="yes"/>
      <point x="136.72727272727272" y="149.0" type="line" smooth="yes"/>
      <point x="136.72727272727272" y="122.27272727272728"/>
      <point x="125.72727272727272" y="52.0"/>
      <point x="121.45454545454545" y="26.09090909090909" type="curve"/>
      <point x="175.72727272727272" y="77.18181818181819" type="line"/>
      <point x="54.72727272727273" y="54.18181818181818" type="line"/>
    </contour>
    <contour>
      <point x="201.45454545454544" y="315.6363636363636" type="line"/>
      <point x="618.4545454545455" y="315.6363636363636" type="line"/>
      <point x="618.4545454545455" y="387.72727272727275" type="line"/>
      <point x="201.45454545454544" y="382.72727272727275" type="line"/>
    </contour>
  </outline>
</glyph>
<glyph name="J" format="2">
  <advance width="370.59999999999997"/>
  <unicode hex="004A"/>
  <anchor x="185.27272727272728" y="0.0" name="bottom"/>
  <anchor x="185.27272727272728" y="705.0" name="top"/>
  <outline>
    <contour>
      <point x="89.45454545454545" y="-200.0" type="line"/>
      <point x="158.9090909090909" y="-129.1818181818182"/>
      <point x="244.45454545454544" y="-30.363636363636363"/>
      <point x="244.45454545454544" y="-1.1818181818181817" type="curve" smooth="yes"/>
      <point x="244.45454545454544" y="526.6363636363636" type="line" smooth="yes"/>
      <point x="244.45454545454544" y="578.6363636363636"/>
      <point x="252.72727272727272" y="646.0909090909091"/>
      <point x="256.3636363636364" y="674.0" type="curve"/>
      <point x="204.0909090909091" y="630.2727272727273" type="line"/>
      <point x="325.3636363636364" y="641.5454545454545" type="line"/>
      <point x="320.72727272727275" y="710.0" type="line"/>
      <point x="298.0" y="708.7272727272727"/>
      <point x="229.45454545454547" y="705.0"/>
      <point x="166.63636363636363" y="705.0" type="curve" smooth="yes"/>
      <point x="142.54545454545453" y="705.0"/>
      <point x="85.45454545454545" y="708.0"/>
      <point x="49.09090909090909" y="710.0" type="curve"/>
      <point x="44.09090909090909" y="646.5454545454545" type="line"/>
      <point x="163.72727272727272" y="626.6363636363636" type="line"/>
      <point x="110.0909090909091" y="674.0" type="line"/>
      <point x="114.36363636363636" y="649.4545454545455"/>
      <point x="124.72727272727272" y="582.0909090909091"/>
      <point x="124.72727272727272" y="556.6363636363636" type="curve" smooth="yes"/>
      <point x="124.72727272727272" y="11.0" type="line" smooth="yes"/>
      <point x="124.72727272727272" y="-4.0"/>
      <point x="80.0" y="-102.81818181818181"/>
      <point x="46.63636363636364" y="-173.9090909090909" type="curve"/>
    </contour>
  </outline>
</glyph>
<glyph name="K" format="2">
  <advance width="767.4"/>
  <unicode hex="004B"/>
  <anchor x="372.45454545454544" y="0.0" name="bottom"/>
  <anchor x="372.45454545454544" y="720.0" name="top"/>
  <outline>
    <contour>
      <point x="442.09090909090907" y="-5.0" type="line"/>
      <point x="491.90909090909093" y="-3.0"/>
      <point x="566.7272727272727" y="0.0"/>
      <point x="590.5454545454545" y="0.0" type="curve" smooth="yes"/>
      <point x="723.7272727272727" y="0.0" type="line"/>
      <point x="730.0909090909091" y="61.90909090909091" type="line"/>
      <point x="621.9090909090909" y="74.18181818181819" type="line"/>
      <point x="702.5454545454545" y="39.36363636363636" type="line"/>
      <point x="684.1818181818181" y="54.72727272727273"/>
      <point x="615.7272727272727" y="114.27272727272727"/>
      <point x="603.0" y="129.0" type="curve" smooth="yes"/>
      <point x="369.27272727272725" y="399.54545454545456" type="line"/>
      <point x="365.9090909090909" y="331.54545454545456" type="line"/>
      <point x="525.2727272727273" y="546.0" type="line" smooth="yes"/>
      <point x="535.2727272727273" y="559.3636363636364"/>
      <point x="607.4545454545455" y="628.0909090909091"/>
      <point x="633.5454545454545" y="651.1818181818181" type="curve"/>
      <point x="567.2727272727273" y="630.2727272727273" type="line"/>
      <point x="683.3636363636364" y="641.5454545454545" type="line"/>
      <point x="678.7272727272727" y="710.0" type="line"/>
      <point x="622.2727272727273" y="707.0"/>
      <point x="575.0909090909091" y="705.0"/>
      <point x="537.0" y="705.0" type="curve" smooth="yes"/>
      <point x="514.4545454545455" y="705.0"/>
      <point x="467.90909090909093" y="707.3636363636364"/>
      <point x="432.45454545454544" y="710.0" type="curve"/>
      <point x="427.45454545454544" y="646.5454545454545" type="line"/>
      <point x="518.7272727272727" y="628.5454545454545" type="line"/>
      <point x="499.1818181818182" y="679.5454545454545" type="line"/>
      <point x="434.27272727272725" y="577.6363636363636" type="line"/>
      <point x="266.45454545454544" y="349.54545454545456" type="line"/>
      <point x="422.6363636363636" y="164.0" type="line" smooth="yes"/>
      <point x="437.3636363636364" y="146.0"/>
      <point x="493.27272727272725" y="56.63636363636364"/>
      <point x="504.6363636363636" y="38.54545454545455" type="curve"/>
      <point x="534.9090909090909" y="75.54545454545455" type="line"/>
      <point x="437.09090909090907" y="54.18181818181818" type="line"/>
    </contour>
    <contour>
      <point x="59.72727272727273" y="-5.0" type="line"/>
      <point x="117.27272727272727" y="-2.0"/>
      <point x="164.1818181818182" y="0.0"/>
      <point x="201.36363636363637" y="0.0" type="curve" smooth="yes"/>
      <point x="337.6363636363636" y="0.0" type="line"/>
      <point x="343.3636363636364" y="61.90909090909091" type="line"/>
      <point x="216.72727272727272" y="72.54545454545455" type="line"/>
      <point x="270.3636363636364" y="26.09090909090909" type="line"/>
      <point x="265.3636363636364" y="52.72727272727273"/>
      <point x="256.45454545454544" y="124.45454545454545"/>
      <point x="256.45454545454544" y="179.0" type="curve" smooth="yes"/>
      <point x="256.45454545454544" y="526.6363636363636" type="line" smooth="yes"/>
      <point x="256.45454545454544" y="577.3636363636364"/>
      <point x="264.45454545454544" y="640.6363636363636"/>
      <point x="270.0" y="672.2727272727273" type="curve"/>
      <point x="216.72727272727272" y="630.2727272727273" type="line"/>
      <point x="337.3636363636364" y="641.5454545454545" type="line"/>
      <point x="332.72727272727275" y="710.0" type="line"/>
      <point x="271.3636363636364" y="707.0"/>
      <point x="220.0" y="705.0"/>
      <point x="178.63636363636363" y="705.0" type="curve" smooth="yes"/>
      <point x="154.54545454545453" y="705.0"/>
      <point x="97.45454545454545" y="708.0"/>
      <point x="61.09090909090909" y="710.0" type="curve"/>
      <point x="56.09090909090909" y="646.5454545454545" type="line"/>
      <point x="175.72727272727272" y="626.6363636363636" type="line"/>
      <point x="121.45454545454545" y="671.0" type="line"/>
      <point x="128.0" y="641.4545454545455"/>
      <point x="136.72727272727272" y="581.4545454545455"/>
      <point x="136.72727272727272" y="556.6363636363636" type="curve" smooth="yes"/>
      <point x="136.72727272727272" y="149.0" type="line" smooth="yes"/>
      <point x="136.72727272727272" y="122.27272727272728"/>
      <point x="125.72727272727272" y="52.0"/>
      <point x="121.45454545454545" y="26.09090909090909" type="curve"/>
      <point x="175.72727272727272" y="77.18181818181819" type="line"/>
      <point x="54.72727272727273" y="54.18181818181818" type="line"/>
    </contour>
  </outline>
</glyph>
<glyph name="L" format="2">
  <advance width="602.1818181818181"/>
  <unicode hex="004C"/>
  <anchor x="299.09090909090907" y="0.0" name="bottom"/>
  <anchor x="197.27272727272728" y="355.0" name="center"/>
  <anchor x="540.2727272727273" y="423.0" name="centerright"/>
  <anchor x="233.0909090909091" y="720.0" name="top"/>
  <anchor x="475.27272727272725" y="494.0" name="topright"/>
  <outline>
    <contour>
      <point x="59.72727272727273" y="-5.0" type="line"/>
      <point x="110.36363636363636" y="-3.0"/>
      <point x="179.54545454545453" y="0.0"/>
      <point x="201.36363636363637" y="0.0" type="curve" smooth="yes"/>
      <point x="401.3636363636364" y="0.0" type="line" smooth="yes"/>
      <point x="417.8181818181818" y="0.0"/>
      <point x="472.45454545454544" y="-2.0"/>
      <point x="515.3636363636364" y="-4.0" type="curve"/>
      <point x="534.3636363636364" y="14.0" type="line"/>
      <point x="549.3636363636364" y="176.36363636363637" type="line"/>
      <point x="487.72727272727275" y="181.36363636363637" type="line"/>
      <point x="474.0" y="118.45454545454545" type="line" smooth="yes"/>
      <point x="471.0" y="104.54545454545455"/>
      <point x="451.6363636363636" y="71.18181818181819"/>
      <point x="428.09090909090907" y="42.36363636363637" type="curve"/>
      <point x="472.72727272727275" y="83.54545454545455" type="line"/>
      <point x="456.6363636363636" y="79.54545454545455"/>
      <point x="413.90909090909093" y="70.9090909090909"/>
      <point x="371.3636363636364" y="70.9090909090909" type="curve" smooth="yes"/>
      <point x="226.54545454545456" y="70.9090909090909" type="line"/>
      <point x="270.3636363636364" y="26.09090909090909" type="line"/>
      <point x="265.3636363636364" y="52.72727272727273"/>
      <point x="256.45454545454544" y="124.45454545454545"/>
      <point x="256.45454545454544" y="179.0" type="curve" smooth="yes"/>
      <point x="256.45454545454544" y="526.6363636363636" type="line" smooth="yes"/>
      <point x="256.45454545454544" y="577.3636363636364"/>
      <point x="264.45454545454544" y="640.6363636363636"/>
      <point x="270.0" y="672.2727272727273" type="curve"/>
      <point x="216.72727272727272" y="630.2727272727273" type="line"/>
      <point x="347.3636363636364" y="641.5454545454545" type="line"/>
      <point x="342.72727272727275" y="710.0" type="line"/>
      <point x="317.1818181818182" y="708.7272727272727"/>
      <point x="247.45454545454547" y="705.0"/>
      <point x="178.63636363636363" y="705.0" type="curve" smooth="yes"/>
      <point x="154.54545454545453" y="705.0"/>
      <point x="97.45454545454545" y="708.0"/>
      <point x="61.09090909090909" y="710.0" type="curve"/>
      <point x="56.09090909090909" y="646.5454545454545" type="line"/>
      <point x="175.72727272727272" y="626.6363636363636" type="line"/>
      <point x="121.45454545454545" y="671.0" type="line"/>
      <point x="128.0" y="641.4545454545455"/>
      <point x="136.72727272727272" y="581.4545454545455"/>
      <point x="136.72727272727272" y="556.6363636363636" type="curve" smooth="yes"/>
      <point x="136.72727272727272" y="149.0" type="line" smooth="yes"/>
      <point x="136.72727272727272" y="122.27272727272728"/>
      <point x="125.72727272727272" y="52.0"/>
      <point x="121.45454545454545" y="26.09090909090909" type="curve"/>
      <point x="175.72727272727272" y="77.18181818181819" type="line"/>
      <point x="54.72727272727273" y="54.18181818181818" type="line"/>
    </contour>
  </outline>
</glyph>
<glyph name="M" format="2">
  <advance width="989.0"/>
  <unicode hex="004D"/>
  <anchor x="494.09090909090907" y="0.0" name="bottom"/>
  <anchor x="494.09090909090907" y="705.0" name="top"/>
  <outline>
    <contour>
      <point x="53.09090909090909" y="-5.0" type="line"/>
      <point x="93.0909090909091" y="-3.0"/>
      <point x="154.0909090909091" y="0.0"/>
      <point x="173.45454545454547" y="0.0" type="curve" smooth="yes"/>
      <point x="297.6363636363636" y="0.0" type="line"/>
      <point x="304.6363636363636" y="61.90909090909091" type="line"/>
      <point x="181.0" y="72.54545454545455" type="line"/>
      <point x="233.0" y="27.727272727272727" type="line"/>
      <point x="229.36363636363637" y="53.54545454545455"/>
      <point x="223.27272727272728" y="139.0"/>
      <point x="225.27272727272728" y="178.36363636363637" type="curve" smooth="yes"/>
      <point x="248.72727272727272" y="602.6363636363636" type="line"/>
      <point x="229.63636363636363" y="600.0" type="line"/>
      <point x="447.09090909090907" y="0.0" type="line"/>
      <point x="508.3636363636364" y="0.0" type="line"/>
      <point x="728.3636363636364" y="599.3636363636364" type="line"/>
      <point x="709.2727272727273" y="602.6363636363636" type="line"/>
      <point x="734.5454545454545" y="148.36363636363637" type="line" smooth="yes"/>
      <point x="735.9090909090909" y="121.18181818181819"/>
      <point x="727.0909090909091" y="48.54545454545455"/>
      <point x="724.0909090909091" y="27.727272727272727" type="curve"/>
      <point x="777.1818181818181" y="77.18181818181819" type="line"/>
      <point x="657.5454545454545" y="54.18181818181818" type="line"/>
      <point x="662.5454545454545" y="-5.0" type="line"/>
      <point x="708.1818181818181" y="-3.0"/>
      <point x="774.0909090909091" y="0.0"/>
      <point x="799.7272727272727" y="0.0" type="curve" smooth="yes"/>
      <point x="934.0909090909091" y="0.0" type="line"/>
      <point x="940.4545454545455" y="61.90909090909091" type="line"/>
      <point x="817.0909090909091" y="72.54545454545455" type="line"/>
      <point x="873.7272727272727" y="27.727272727272727" type="line"/>
      <point x="867.3636363636364" y="54.63636363636363"/>
      <point x="850.0" y="143.45454545454547"/>
      <point x="846.7272727272727" y="178.36363636363637" type="curve" smooth="yes"/>
      <point x="820.2727272727273" y="526.6363636363636" type="line" smooth="yes"/>
      <point x="817.0" y="565.0"/>
      <point x="820.6363636363636" y="622.5454545454545"/>
      <point x="821.6363636363636" y="660.6363636363636" type="curve"/>
      <point x="772.6363636363636" y="630.2727272727273" type="line"/>
      <point x="894.0" y="641.5454545454545" type="line"/>
      <point x="889.3636363636364" y="710.0" type="line"/>
      <point x="849.2727272727273" y="708.0"/>
      <point x="789.4545454545455" y="705.0"/>
      <point x="744.4545454545455" y="705.0" type="curve" smooth="yes"/>
      <point x="686.9090909090909" y="705.0" type="line"/>
      <point x="666.9090909090909" y="685.0" type="line"/>
      <point x="650.4545454545455" y="633.1818181818181"/>
      <point x="625.6363636363636" y="559.0"/>
      <point x="619.2727272727273" y="542.3636363636364" type="curve"/>
      <point x="478.1818181818182" y="150.1818181818182" type="line"/>
      <point x="510.1818181818182" y="150.1818181818182" type="line"/>
      <point x="374.27272727272725" y="531.5454545454545" type="line"/>
      <point x="366.6363636363636" y="553.0"/>
      <point x="342.8181818181818" y="631.4545454545455"/>
      <point x="326.3636363636364" y="684.6363636363636" type="curve"/>
      <point x="306.72727272727275" y="705.0" type="line"/>
      <point x="206.27272727272728" y="705.0" type="line" smooth="yes"/>
      <point x="182.1818181818182" y="705.0"/>
      <point x="125.72727272727273" y="708.0"/>
      <point x="89.36363636363636" y="710.0" type="curve"/>
      <point x="84.36363636363636" y="646.5454545454545" type="line"/>
      <point x="206.1818181818182" y="627.0" type="line"/>
      <point x="156.36363636363637" y="666.5454545454545" type="line"/>
      <point x="159.0909090909091" y="644.3636363636364"/>
      <point x="164.72727272727272" y="583.7272727272727"/>
      <point x="163.0909090909091" y="557.0" type="curve" smooth="yes"/>
      <point x="138.36363636363637" y="148.36363636363637" type="line" smooth="yes"/>
      <point x="136.72727272727272" y="122.27272727272728"/>
      <point x="118.45454545454545" y="53.72727272727273"/>
      <point x="112.27272727272727" y="27.727272727272727" type="curve"/>
      <point x="170.0" y="77.18181818181819" type="line"/>
      <point x="48.09090909090909" y="54.18181818181818" type="line"/>
    </contour>
  </outline>
</glyph>
<glyph name="N" format="2">
  <advance width="817.8000000000001"/>
  <unicode hex="004E"/>
  <anchor x="417.27272727272725" y="0.0" name="bottom"/>
  <anchor x="406.09090909090907" y="720.0" name="top"/>
  <outline>
    <contour>
      <point x="60.45454545454545" y="-5.0" type="line"/>
      <point x="100.45454545454545" y="-3.0"/>
      <point x="161.45454545454547" y="0.0"/>
      <point x="181.1818181818182" y="0.0" type="curve" smooth="yes"/>
      <point x="306.90909090909093" y="0.0" type="line"/>
      <point x="313.27272727272725" y="61.90909090909091" type="line"/>
      <point x="190.9090909090909" y="72.54545454545455" type="line"/>
      <point x="243.54545454545456" y="31.09090909090909" type="line"/>
      <point x="239.54545454545456" y="60.63636363636364"/>
      <point x="231.27272727272728" y="127.63636363636364"/>
      <point x="231.27272727272728" y="179.0" type="curve" smooth="yes"/>
      <point x="231.27272727272728" y="556.6363636363636" type="line"/>
      <point x="203.0" y="547.4545454545455" type="line"/>
      <point x="594.0" y="0.0" type="line"/>
      <point x="688.0909090909091" y="0.0" type="line"/>
      <point x="688.4545454545455" y="526.6363636363636" type="line" smooth="yes"/>
      <point x="688.4545454545455" y="581.6363636363636"/>
      <point x="703.2727272727273" y="647.3636363636364"/>
      <point x="707.0" y="673.2727272727273" type="curve"/>
      <point x="652.6363636363636" y="630.2727272727273" type="line"/>
      <point x="773.2727272727273" y="641.5454545454545" type="line"/>
      <point x="769.2727272727273" y="710.0" type="line"/>
      <point x="730.0909090909091" y="708.0"/>
      <point x="688.4545454545455" y="705.0"/>
      <point x="623.7272727272727" y="705.0" type="curve" smooth="yes"/>
      <point x="601.5454545454545" y="705.0"/>
      <point x="549.6363636363636" y="708.0"/>
      <point x="518.6363636363636" y="710.0" type="curve"/>
      <point x="513.6363636363636" y="646.5454545454545" type="line"/>
      <point x="633.0" y="626.6363636363636" type="line"/>
      <point x="578.3636363636364" y="675.7272727272727" type="line"/>
      <point x="583.0" y="652.2727272727273"/>
      <point x="594.6363636363636" y="581.0909090909091"/>
      <point x="594.6363636363636" y="556.6363636363636" type="curve" smooth="yes"/>
      <point x="594.6363636363636" y="147.45454545454544" type="line"/>
      <point x="622.9090909090909" y="156.63636363636363" type="line"/>
      <point x="351.27272727272725" y="533.4545454545455" type="line" smooth="yes"/>
      <point x="339.90909090909093" y="549.1818181818181"/>
      <point x="291.45454545454544" y="629.2727272727273"/>
      <point x="258.3636363636364" y="685.0" type="curve"/>
      <point x="239.0" y="705.0" type="line"/>
      <point x="173.1818181818182" y="705.0" type="line" smooth="yes"/>
      <point x="150.0" y="705.0"/>
      <point x="95.18181818181819" y="708.0"/>
      <point x="59.72727272727273" y="710.0" type="curve"/>
      <point x="54.72727272727273" y="646.5454545454545" type="line"/>
      <point x="175.45454545454547" y="627.0" type="line"/>
      <point x="122.54545454545455" y="670.4545454545455" type="line"/>
      <point x="125.45454545454545" y="651.6363636363636"/>
      <point x="137.0909090909091" y="580.4545454545455"/>
      <point x="137.0909090909091" y="556.6363636363636" type="curve" smooth="yes"/>
      <point x="137.0909090909091" y="149.0" type="line" smooth="yes"/>
      <point x="137.0909090909091" y="123.54545454545455"/>
      <point x="127.0909090909091" y="60.45454545454545"/>
      <point x="123.0909090909091" y="36.63636363636364" type="curve"/>
      <point x="176.0909090909091" y="77.18181818181819" type="line"/>
      <point x="55.45454545454545" y="54.18181818181818" type="line"/>
    </contour>
  </outline>
</glyph>
<glyph name="O" format="2">
  <advance width="816.6"/>
  <unicode hex="004F"/>
  <anchor x="408.1818181818182" y="0.0" name="bottom"/>
  <anchor x="424.1818181818182" y="353.0" name="center"/>
  <anchor x="519.7272727272727" y="0.0" name="ogonek"/>
  <anchor x="407.54545454545456" y="720.0" name="top"/>
  <anchor x="601.1818181818181" y="630.0" name="topright"/>
  <outline>
    <contour>
      <point x="408.1818181818182" y="-15.0" type="curve" smooth="yes"/>
      <point x="624.5454545454545" y="-15.0"/>
      <point x="749.0909090909091" y="133.0909090909091"/>
      <point x="749.0909090909091" y="352.0" type="curve" smooth="yes"/>
      <point x="749.0909090909091" y="571.9090909090909"/>
      <point x="624.5454545454545" y="720.0"/>
      <point x="408.1818181818182" y="720.0" type="curve" smooth="yes"/>
      <point x="191.1818181818182" y="720.0"/>
      <point x="66.9090909090909" y="571.9090909090909"/>
      <point x="66.9090909090909" y="352.0" type="curve" smooth="yes"/>
      <point x="66.9090909090909" y="133.0909090909091"/>
      <point x="191.1818181818182" y="-15.0"/>
    </contour>
    <contour>
      <point x="408.1818181818182" y="57.90909090909091" type="curve" smooth="yes"/>
      <point x="272.09090909090907" y="57.90909090909091"/>
      <point x="206.72727272727272" y="174.54545454545453"/>
      <point x="206.72727272727272" y="352.0" type="curve" smooth="yes"/>
      <point x="206.72727272727272" y="530.4545454545455"/>
      <point x="272.09090909090907" y="647.0909090909091"/>
      <point x="408.1818181818182" y="647.0909090909091" type="curve" smooth="yes"/>
      <point x="543.9090909090909" y="647.0909090909091"/>
      <point x="609.2727272727273" y="530.4545454545455"/>
      <point x="609.2727272727273" y="352.0" type="curve" smooth="yes"/>
      <point x="609.2727272727273" y="174.54545454545453"/>
      <point x="543.9090909090909" y="57.90909090909091"/>
    </contour>
  </outline>
</glyph>
<glyph name="P" format="2">
  <advance width="643.4"/>
  <unicode hex="0050"/>
  <anchor x="322.27272727272725" y="0.0" name="bottom"/>
  <anchor x="322.27272727272725" y="705.0" name="top"/>
  <outline>
    <contour>
      <point x="59.72727272727273" y="-5.0" type="line"/>
      <point x="107.27272727272727" y="-3.0"/>
      <point x="174.1818181818182" y="0.0"/>
      <point x="201.36363636363637" y="0.0" type="curve" smooth="yes"/>
      <point x="347.6363636363636" y="0.0" type="line"/>
      <point x="354.0" y="61.90909090909091" type="line"/>
      <point x="216.72727272727272" y="72.54545454545455" type="line"/>
      <point x="270.3636363636364" y="26.09090909090909" type="line"/>
      <point x="265.3636363636364" y="52.72727272727273"/>
      <point x="256.45454545454544" y="124.45454545454545"/>
      <point x="256.45454545454544" y="179.0" type="curve" smooth="yes"/>
      <point x="256.45454545454544" y="526.6363636363636" type="line" smooth="yes"/>
      <point x="256.45454545454544" y="576.7272727272727"/>
      <point x="262.90909090909093" y="640.6363636363636"/>
      <point x="267.45454545454544" y="672.2727272727273" type="curve"/>
      <point x="178.63636363636363" y="705.0" type="line"/>
      <point x="154.54545454545453" y="705.0"/>
      <point x="97.45454545454545" y="708.0"/>
      <point x="61.09090909090909" y="710.0" type="curve"/>
      <point x="56.09090909090909" y="646.5454545454545" type="line"/>
      <point x="175.72727272727272" y="626.6363636363636" type="line"/>
      <point x="121.45454545454545" y="671.0" type="line"/>
      <point x="128.0" y="641.4545454545455"/>
      <point x="136.72727272727272" y="581.4545454545455"/>
      <point x="136.72727272727272" y="556.6363636363636" type="curve" smooth="yes"/>
      <point x="136.72727272727272" y="149.0" type="line" smooth="yes"/>
      <point x="136.72727272727272" y="122.27272727272728"/>
      <point x="125.72727272727272" y="52.0"/>
      <point x="121.45454545454545" y="26.09090909090909" type="curve"/>
      <point x="175.72727272727272" y="77.18181818181819" type="line"/>
      <point x="54.72727272727273" y="54.18181818181818" type="line"/>
    </contour>
    <contour>
      <point x="330.6363636363636" y="282.1818181818182" type="curve" smooth="yes"/>
      <point x="467.45454545454544" y="282.1818181818182"/>
      <point x="588.0" y="361.0"/>
      <point x="588.0" y="499.45454545454544" type="curve" smooth="yes"/>
      <point x="588.0" y="635.5454545454545"/>
      <point x="497.6363636363636" y="710.0"/>
      <point x="359.0" y="710.0" type="curve" smooth="yes"/>
      <point x="304.0" y="710.0"/>
      <point x="233.63636363636363" y="705.0"/>
      <point x="178.63636363636363" y="705.0" type="curve"/>
      <point x="178.63636363636363" y="637.1818181818181" type="line"/>
      <point x="213.36363636363637" y="640.5454545454545"/>
      <point x="276.27272727272725" y="645.4545454545455"/>
      <point x="309.72727272727275" y="645.4545454545455" type="curve" smooth="yes"/>
      <point x="408.3636363636364" y="645.4545454545455"/>
      <point x="463.3636363636364" y="596.4545454545455"/>
      <point x="463.3636363636364" y="499.45454545454544" type="curve" smooth="yes"/>
      <point x="463.3636363636364" y="398.72727272727275"/>
      <point x="400.09090909090907" y="346.3636363636364"/>
      <point x="302.09090909090907" y="346.3636363636364" type="curve" smooth="yes"/>
      <point x="258.27272727272725" y="346.3636363636364"/>
      <point x="213.45454545454547" y="350.54545454545456"/>
      <point x="169.63636363636363" y="353.3636363636364" type="curve"/>
      <point x="169.63636363636363" y="284.6363636363636" type="line"/>
      <point x="246.0909090909091" y="282.90909090909093"/>
      <point x="288.6363636363636" y="282.1818181818182"/>
    </contour>
  </outline>
</glyph>
<glyph name="Q" format="2">
  <advance width="815.1999999999999"/>
  <unicode hex="0051"/>
  <anchor x="407.90909090909093" y="0.0" name="bottom"/>
  <anchor x="407.90909090909093" y="705.0" name="top"/>
  <outline>
    <contour>
      <point x="407.54545454545456" y="-15.0" type="curve" smooth="yes"/>
      <point x="623.9090909090909" y="-15.0"/>
      <point x="748.4545454545455" y="133.0909090909091"/>
      <point x="748.4545454545455" y="352.0" type="curve" smooth="yes"/>
      <point x="748.4545454545455" y="571.9090909090909"/>
      <point x="623.9090909090909" y="720.0"/>
      <point x="407.54545454545456" y="720.0" type="curve" smooth="yes"/>
      <point x="190.54545454545453" y="720.0"/>
      <point x="66.27272727272727" y="571.9090909090909"/>
      <point x="66.27272727272727" y="352.0" type="curve" smooth="yes"/>
      <point x="66.27272727272727" y="133.0909090909091"/>
      <point x="190.54545454545453" y="-15.0"/>
    </contour>
    <contour>
      <point x="705.0" y="-224.0" type="line"/>
      <point x="777.9090909090909" y="-117.45454545454545" type="line"/>
      <point x="716.9090909090909" y="-92.0909090909091"/>
      <point x="631.2727272727273" y="-54.72727272727273"/>
      <point x="619.9090909090909" y="-47.36363636363636" type="curve" smooth="yes"/>
      <point x="504.45454545454544" y="31.09090909090909" type="line"/>
      <point x="403.45454545454544" y="8.90909090909091" type="line"/>
    </contour>
    <contour>
      <point x="407.54545454545456" y="57.90909090909091" type="curve" smooth="yes"/>
      <point x="271.45454545454544" y="57.90909090909091"/>
      <point x="206.0909090909091" y="174.54545454545453"/>
      <point x="206.0909090909091" y="352.0" type="curve" smooth="yes"/>
      <point x="206.0909090909091" y="530.4545454545455"/>
      <point x="271.45454545454544" y="647.0909090909091"/>
      <point x="407.54545454545456" y="647.0909090909091" type="curve" smooth="yes"/>
      <point x="543.2727272727273" y="647.0909090909091"/>
      <point x="608.6363636363636" y="530.4545454545455"/>
      <point x="608.6363636363636" y="352.0" type="curve" smooth="yes"/>
      <point x="608.6363636363636" y="174.54545454545453"/>
      <point x="543.2727272727273" y="57.90909090909091"/>
    </contour>
  </outline>
</glyph>
<glyph name="R" format="2">
  <advance width="703.0"/>
  <unicode hex="0052"/>
  <anchor x="348.72727272727275" y="0.0" name="bottom"/>
  <anchor x="326.72727272727275" y="720.0" name="top"/>
  <outline>
    <contour>
      <point x="59.72727272727273" y="-5.0" type="line"/>
      <point x="107.27272727272727" y="-3.0"/>
      <point x="174.1818181818182" y="0.0"/>
      <point x="201.36363636363637" y="0.0" type="curve" smooth="yes"/>
      <point x="332.90909090909093" y="0.0" type="line"/>
      <point x="339.27272727272725" y="61.90909090909091" type="line"/>
      <point x="216.72727272727272" y="72.54545454545455" type="line"/>
      <point x="270.3636363636364" y="26.09090909090909" type="line"/>
      <point x="265.3636363636364" y="52.72727272727273"/>
      <point x="256.45454545454544" y="124.45454545454545"/>
      <point x="256.45454545454544" y="179.0" type="curve" smooth="yes"/>
      <point x="256.45454545454544" y="526.6363636363636" type="line" smooth="yes"/>
      <point x="256.45454545454544" y="576.7272727272727"/>
      <point x="262.90909090909093" y="640.6363636363636"/>
      <point x="267.45454545454544" y="672.2727272727273" type="curve"/>
      <point x="178.63636363636363" y="705.0" type="line"/>
      <point x="154.54545454545453" y="705.0"/>
      <point x="97.45454545454545" y="708.0"/>
      <point x="61.09090909090909" y="710.0" type="curve"/>
      <point x="56.09090909090909" y="646.5454545454545" type="line"/>
      <point x="175.72727272727272" y="626.6363636363636" type="line"/>
      <point x="121.45454545454545" y="671.0" type="line"/>
      <point x="128.0" y="641.4545454545455"/>
      <point x="136.72727272727272" y="581.4545454545455"/>
      <point x="136.72727272727272" y="556.6363636363636" type="curve" smooth="yes"/>
      <point x="136.72727272727272" y="149.0" type="line" smooth="yes"/>
      <point x="136.72727272727272" y="122.27272727272728"/>
      <point x="125.72727272727272" y="52.0"/>
      <point x="121.45454545454545" y="26.09090909090909" type="curve"/>
      <point x="175.72727272727272" y="77.18181818181819" type="line"/>
      <point x="54.72727272727273" y="54.18181818181818" type="line"/>
    </contour>
    <contour>
      <point x="479.54545454545456" y="0.0" type="curve"/>
      <point x="651.7272727272727" y="0.0" type="line"/>
      <point x="658.0909090909091" y="61.90909090909091" type="line"/>
      <point x="597.1818181818181" y="67.63636363636364" type="line"/>
      <point x="584.6363636363636" y="85.54545454545455"/>
      <point x="563.1818181818181" y="116.63636363636364"/>
      <point x="554.1818181818181" y="131.0" type="curve" smooth="yes"/>
      <point x="548.4545454545455" y="140.0"/>
      <point x="483.27272727272725" y="243.0"/>
      <point x="432.1818181818182" y="349.0" type="curve"/>
      <point x="307.0" y="345.0" type="line"/>
      <point x="426.72727272727275" y="116.0" type="line" smooth="yes"/>
      <point x="434.72727272727275" y="100.0"/>
      <point x="462.1818181818182" y="39.0"/>
    </contour>
    <contour>
      <point x="324.90909090909093" y="290.27272727272725" type="curve" smooth="yes"/>
      <point x="462.0" y="290.27272727272725"/>
      <point x="583.0909090909091" y="371.27272727272725"/>
      <point x="583.0909090909091" y="506.09090909090907" type="curve" smooth="yes"/>
      <point x="583.0909090909091" y="636.2727272727273"/>
      <point x="493.72727272727275" y="710.0"/>
      <point x="356.09090909090907" y="710.0" type="curve" smooth="yes"/>
      <point x="301.09090909090907" y="710.0"/>
      <point x="233.63636363636363" y="705.0"/>
      <point x="178.63636363636363" y="705.0" type="curve"/>
      <point x="178.63636363636363" y="635.4545454545455" type="line"/>
      <point x="214.0" y="639.5454545454545"/>
      <point x="283.1818181818182" y="645.4545454545455"/>
      <point x="311.27272727272725" y="645.4545454545455" type="curve" smooth="yes"/>
      <point x="408.27272727272725" y="645.4545454545455"/>
      <point x="458.45454545454544" y="595.0"/>
      <point x="458.45454545454544" y="502.90909090909093" type="curve" smooth="yes"/>
      <point x="458.45454545454544" y="404.54545454545456"/>
      <point x="401.90909090909093" y="355.72727272727275"/>
      <point x="304.90909090909093" y="355.72727272727275" type="curve" smooth="yes"/>
      <point x="258.54545454545456" y="355.72727272727275"/>
      <point x="212.54545454545453" y="359.90909090909093"/>
      <point x="166.1818181818182" y="362.72727272727275" type="curve"/>
      <point x="166.1818181818182" y="298.72727272727275" type="line"/>
      <point x="219.1818181818182" y="294.45454545454544"/>
      <point x="272.54545454545456" y="290.27272727272725"/>
    </contour>
  </outline>
</glyph>
<glyph name="S" format="2">
  <advance width="608.0"/>
  <unicode hex="0053"/>
  <anchor x="292.09090909090907" y="0.0" name="bottom"/>
  <anchor x="313.1818181818182" y="720.0" name="top"/>
  <outline>
    <contour>
      <point x="296.0" y="-15.0" type="curve" smooth="yes"/>
      <point x="433.3636363636364" y="-15.0"/>
      <point x="542.9090909090909" y="57.54545454545455"/>
      <point x="542.9090909090909" y="192.0909090909091" type="curve" smooth="yes"/>
      <point x="542.9090909090909" y="420.3636363636364"/>
      <point x="209.54545454545456" y="403.6363636363636"/>
      <point x="209.54545454545456" y="550.5454545454545" type="curve" smooth="yes"/>
      <point x="209.54545454545456" y="613.4545454545455"/>
      <point x="256.1818181818182" y="648.2727272727273"/>
      <point x="317.54545454545456" y="648.2727272727273" type="curve" smooth="yes"/>
      <point x="370.90909090909093" y="648.2727272727273"/>
      <point x="419.1818181818182" y="629.0"/>
      <point x="465.3636363636364" y="605.3636363636364" type="curve"/>
      <point x="407.45454545454544" y="663.3636363636364" type="line"/>
      <point x="418.27272727272725" y="631.6363636363636"/>
      <point x="433.09090909090907" y="584.5454545454545"/>
      <point x="433.09090909090907" y="573.0909090909091" type="curve" smooth="yes"/>
      <point x="434.3636363636364" y="521.5454545454545" type="line"/>
      <point x="501.90909090909093" y="516.4545454545455" type="line"/>
      <point x="515.9090909090909" y="686.0909090909091" type="line"/>
      <point x="448.72727272727275" y="704.6363636363636"/>
      <point x="371.0" y="720.0"/>
      <point x="305.3636363636364" y="720.0" type="curve" smooth="yes"/>
      <point x="176.0" y="720.0"/>
      <point x="80.45454545454545" y="649.6363636363636"/>
      <point x="80.45454545454545" y="529.0" type="curve" smooth="yes"/>
      <point x="80.45454545454545" y="302.90909090909093"/>
      <point x="410.72727272727275" y="324.54545454545456"/>
      <point x="410.72727272727275" y="168.0909090909091" type="curve" smooth="yes"/>
      <point x="410.72727272727275" y="98.18181818181819"/>
      <point x="361.27272727272725" y="61.72727272727273"/>
      <point x="291.3636363636364" y="61.72727272727273" type="curve" smooth="yes"/>
      <point x="228.63636363636363" y="61.72727272727273"/>
      <point x="175.27272727272728" y="86.36363636363636"/>
      <point x="135.1818181818182" y="105.27272727272728" type="curve"/>
      <point x="185.63636363636363" y="51.09090909090909" type="line"/>
      <point x="182.54545454545456" y="62.0"/>
      <point x="159.54545454545453" y="130.63636363636363"/>
      <point x="159.54545454545453" y="144.0" type="curve" smooth="yes"/>
      <point x="158.9090909090909" y="201.45454545454544" type="line"/>
      <point x="85.0" y="207.45454545454544" type="line"/>
      <point x="70.0" y="35.45454545454545" type="line"/>
      <point x="109.54545454545455" y="13.727272727272727"/>
      <point x="197.36363636363637" y="-15.0"/>
    </contour>
  </outline>
</glyph>
<glyph name="T" format="2">
  <advance width="699.8000000000001"/>
  <unicode hex="0054"/>
  <anchor x="352.1818181818182" y="0.0" name="bottom"/>
  <anchor x="348.0" y="353.0" name="center"/>
  <anchor x="349.72727272727275" y="720.0" name="top"/>
  <outline>
    <contour>
      <point x="198.0909090909091" y="-5.0" type="line"/>
      <point x="250.54545454545453" y="-3.0"/>
      <point x="330.1818181818182" y="0.0"/>
      <point x="354.45454545454544" y="0.0" type="curve" smooth="yes"/>
      <point x="505.1818181818182" y="0.0" type="line"/>
      <point x="510.90909090909093" y="61.90909090909091" type="line"/>
      <point x="369.54545454545456" y="72.54545454545455" type="line"/>
      <point x="423.45454545454544" y="26.09090909090909" type="line"/>
      <point x="418.1818181818182" y="54.63636363636363"/>
      <point x="409.90909090909093" y="125.72727272727272"/>
      <point x="409.90909090909093" y="179.0" type="curve" smooth="yes"/>
      <point x="409.90909090909093" y="526.6363636363636" type="line" smooth="yes"/>
      <point x="409.90909090909093" y="581.1818181818181"/>
      <point x="417.90909090909093" y="640.6363636363636"/>
      <point x="423.09090909090907" y="672.2727272727273" type="curve"/>
      <point x="274.90909090909093" y="671.0" type="line"/>
      <point x="280.45454545454544" y="643.3636363636364"/>
      <point x="290.1818181818182" y="581.4545454545455"/>
      <point x="290.1818181818182" y="556.6363636363636" type="curve" smooth="yes"/>
      <point x="290.1818181818182" y="149.0" type="line" smooth="yes"/>
      <point x="290.1818181818182" y="123.54545454545455"/>
      <point x="279.1818181818182" y="53.27272727272727"/>
      <point x="274.90909090909093" y="26.09090909090909" type="curve"/>
      <point x="328.54545454545456" y="77.18181818181819" type="line"/>
      <point x="193.0909090909091" y="54.18181818181818" type="line"/>
    </contour>
    <contour>
      <point x="118.18181818181819" y="515.7272727272727" type="line"/>
      <point x="120.18181818181819" y="537.6363636363636"/>
      <point x="126.54545454545455" y="580.6363636363636"/>
      <point x="130.54545454545453" y="596.2727272727273" type="curve"/>
      <point x="160.72727272727272" y="678.2727272727273" type="line"/>
      <point x="110.45454545454545" y="631.0" type="line"/>
      <point x="125.0909090909091" y="632.0"/>
      <point x="182.1818181818182" y="637.6363636363636"/>
      <point x="225.0909090909091" y="637.6363636363636" type="curve" smooth="yes"/>
      <point x="476.54545454545456" y="637.6363636363636" type="line" smooth="yes"/>
      <point x="520.0909090909091" y="637.6363636363636"/>
      <point x="571.4545454545455" y="633.0"/>
      <point x="591.4545454545455" y="631.0" type="curve"/>
      <point x="536.4545454545455" y="677.6363636363636" type="line"/>
      <point x="570.4545454545455" y="596.2727272727273" type="line"/>
      <point x="573.5454545454545" y="581.2727272727273"/>
      <point x="579.9090909090909" y="537.6363636363636"/>
      <point x="581.9090909090909" y="515.7272727272727" type="curve"/>
      <point x="645.2727272727273" y="520.7272727272727" type="line"/>
      <point x="637.6363636363636" y="692.0" type="line"/>
      <point x="618.6363636363636" y="710.0" type="line"/>
      <point x="586.0" y="708.0"/>
      <point x="521.3636363636364" y="705.0"/>
      <point x="504.0" y="705.0" type="curve" smooth="yes"/>
      <point x="195.0909090909091" y="705.0" type="line" smooth="yes"/>
      <point x="177.0909090909091" y="705.0"/>
      <point x="119.0909090909091" y="708.0"/>
      <point x="81.0909090909091" y="710.0" type="curve"/>
      <point x="61.45454545454545" y="692.0" type="line"/>
      <point x="54.45454545454545" y="520.7272727272727" type="line"/>
    </contour>
  </outline>
</glyph>
<glyph name="U" format="2">
  <advance width="795.4"/>
  <unicode hex="0055"/>
  <anchor x="400.27272727272725" y="0.0" name="bottom"/>
  <anchor x="639.6363636363636" y="460.0" name="horn"/>
  <anchor x="501.09090909090907" y="0.0" name="ogonek"/>
  <anchor x="403.1818181818182" y="720.0" name="top"/>
  <outline>
    <contour>
      <point x="396.72727272727275" y="-15.0" type="curve" smooth="yes"/>
      <point x="576.2727272727273" y="-15.0"/>
      <point x="669.6363636363636" y="96.27272727272727"/>
      <point x="669.6363636363636" y="267.27272727272725" type="curve" smooth="yes"/>
      <point x="669.6363636363636" y="523.5454545454545" type="line" smooth="yes"/>
      <point x="669.6363636363636" y="574.9090909090909"/>
      <point x="677.6363636363636" y="644.3636363636364"/>
      <point x="683.4545454545455" y="679.4545454545455" type="curve"/>
      <point x="629.9090909090909" y="630.2727272727273" type="line"/>
      <point x="750.9090909090909" y="641.5454545454545" type="line"/>
      <point x="746.2727272727273" y="710.0" type="line"/>
      <point x="708.6363636363636" y="708.0"/>
      <point x="660.1818181818181" y="705.0"/>
      <point x="601.6363636363636" y="705.0" type="curve" smooth="yes"/>
      <point x="578.4545454545455" y="705.0"/>
      <point x="528.5454545454545" y="708.0"/>
      <point x="494.09090909090907" y="710.0" type="curve"/>
      <point x="489.09090909090907" y="646.5454545454545" type="line"/>
      <point x="610.5454545454545" y="626.6363636363636" type="line"/>
      <point x="554.4545454545455" y="679.4545454545455" type="line"/>
      <point x="558.7272727272727" y="652.4545454545455"/>
      <point x="570.4545454545455" y="579.0"/>
      <point x="570.4545454545455" y="553.5454545454545" type="curve" smooth="yes"/>
      <point x="570.4545454545455" y="263.45454545454544" type="line" smooth="yes"/>
      <point x="570.4545454545455" y="149.1818181818182"/>
      <point x="522.2727272727273" y="71.72727272727272"/>
      <point x="409.54545454545456" y="71.72727272727272" type="curve" smooth="yes"/>
      <point x="303.3636363636364" y="71.72727272727272"/>
      <point x="249.54545454545456" y="153.54545454545456"/>
      <point x="249.54545454545456" y="263.45454545454544" type="curve" smooth="yes"/>
      <point x="249.54545454545456" y="523.5454545454545" type="line" smooth="yes"/>
      <point x="249.54545454545456" y="574.2727272727273"/>
      <point x="255.63636363636363" y="639.0"/>
      <point x="261.45454545454544" y="679.4545454545455" type="curve"/>
      <point x="208.54545454545453" y="630.2727272727273" type="line"/>
      <point x="330.1818181818182" y="641.5454545454545" type="line"/>
      <point x="325.54545454545456" y="710.0" type="line"/>
      <point x="299.27272727272725" y="708.6363636363636"/>
      <point x="227.45454545454544" y="705.0"/>
      <point x="166.63636363636363" y="705.0" type="curve" smooth="yes"/>
      <point x="142.54545454545453" y="705.0"/>
      <point x="85.45454545454545" y="708.0"/>
      <point x="49.09090909090909" y="710.0" type="curve"/>
      <point x="44.09090909090909" y="646.5454545454545" type="line"/>
      <point x="164.1818181818182" y="627.0" type="line"/>
      <point x="110.45454545454545" y="679.4545454545455" type="line"/>
      <point x="114.18181818181819" y="654.3636363636364"/>
      <point x="125.18181818181819" y="580.2727272727273"/>
      <point x="125.18181818181819" y="553.5454545454545" type="curve" smooth="yes"/>
      <point x="125.18181818181819" y="267.27272727272725" type="line" smooth="yes"/>
      <point x="125.18181818181819" y="96.27272727272727"/>
      <point x="216.9090909090909" y="-15.0"/>
    </contour>
  </outline>
</glyph>
<glyph name="V" format="2">
  <advance width="764.0"/>
  <unicode hex="0056"/>
  <anchor x="382.27272727272725" y="0.0" name="bottom"/>
  <anchor x="382.27272727272725" y="720.0" name="top"/>
  <outline>
    <contour>
      <point x="345.3636363636364" y="0.0" type="line"/>
      <point x="430.3636363636364" y="0.0" type="line"/>
      <point x="619.7272727272727" y="530.1818181818181" type="line" smooth="yes"/>
      <point x="638.9090909090909" y="582.7272727272727"/>
      <point x="674.1818181818181" y="643.0909090909091"/>
      <point x="687.0909090909091" y="664.0" type="curve"/>
      <point x="621.5454545454545" y="630.5454545454545" type="line"/>
      <point x="719.3636363636364" y="641.5454545454545" type="line"/>
      <point x="714.7272727272727" y="710.0" type="line"/>
      <point x="668.6363636363636" y="707.0"/>
      <point x="615.9090909090909" y="705.0"/>
      <point x="575.4545454545455" y="705.0" type="curve" smooth="yes"/>
      <point x="554.1818181818181" y="705.0"/>
      <point x="507.45454545454544" y="707.6363636363636"/>
      <point x="470.6363636363636" y="710.0" type="curve"/>
      <point x="465.6363636363636" y="646.5454545454545" type="line"/>
      <point x="586.3636363636364" y="625.9090909090909" type="line"/>
      <point x="551.0909090909091" y="664.9090909090909" type="line"/>
      <point x="549.4545454545455" y="643.2727272727273"/>
      <point x="540.1818181818181" y="587.0"/>
      <point x="531.4545454545455" y="561.9090909090909" type="curve" smooth="yes"/>
      <point x="383.72727272727275" y="129.1818181818182" type="line"/>
      <point x="415.3636363636364" y="129.1818181818182" type="line"/>
      <point x="275.27272727272725" y="523.5454545454545" type="line" smooth="yes"/>
      <point x="261.0" y="562.7272727272727"/>
      <point x="242.63636363636363" y="638.0"/>
      <point x="240.27272727272728" y="666.5454545454545" type="curve"/>
      <point x="197.9090909090909" y="628.0909090909091" type="line"/>
      <point x="329.6363636363636" y="641.5454545454545" type="line"/>
      <point x="325.0" y="710.0" type="line"/>
      <point x="270.09090909090907" y="707.0"/>
      <point x="209.54545454545453" y="705.0"/>
      <point x="160.63636363636363" y="705.0" type="curve" smooth="yes"/>
      <point x="137.45454545454547" y="705.0"/>
      <point x="83.9090909090909" y="707.3636363636364"/>
      <point x="49.09090909090909" y="710.0" type="curve"/>
      <point x="44.09090909090909" y="646.5454545454545" type="line"/>
      <point x="146.0909090909091" y="622.2727272727273" type="line"/>
      <point x="82.45454545454545" y="660.0" type="line"/>
      <point x="93.36363636363636" y="643.7272727272727"/>
      <point x="122.18181818181819" y="593.1818181818181"/>
      <point x="137.63636363636363" y="552.5454545454545" type="curve" smooth="yes"/>
    </contour>
  </outline>
</glyph>
<glyph name="W" format="2">
  <advance width="1087.0"/>
  <unicode hex="0057"/>
  <anchor x="543.7272727272727" y="0.0" name="bottom"/>
  <anchor x="543.7272727272727" y="705.0" name="top"/>
  <outline>
    <contour>
      <point x="312.27272727272725" y="0.0" type="line"/>
      <point x="397.90909090909093" y="0.0" type="line"/>
      <point x="555.4545454545455" y="515.0909090909091" type="line"/>
      <point x="527.5454545454545" y="515.0909090909091" type="line"/>
      <point x="691.0" y="0.0" type="line"/>
      <point x="776.6363636363636" y="0.0" type="line"/>
      <point x="940.0" y="530.1818181818181" type="line"/>
      <point x="954.3636363636364" y="576.2727272727273"/>
      <point x="990.1818181818181" y="641.9090909090909"/>
      <point x="1009.3636363636364" y="668.6363636363636" type="curve"/>
      <point x="939.9090909090909" y="630.5454545454545" type="line"/>
      <point x="1042.3636363636363" y="641.5454545454545" type="line"/>
      <point x="1038.3636363636363" y="710.0" type="line"/>
      <point x="1002.0" y="708.0"/>
      <point x="940.2727272727273" y="705.0"/>
      <point x="898.4545454545455" y="705.0" type="curve" smooth="yes"/>
      <point x="876.2727272727273" y="705.0"/>
      <point x="833.4545454545455" y="707.6363636363636"/>
      <point x="799.6363636363636" y="710.0" type="curve"/>
      <point x="794.6363636363636" y="646.5454545454545" type="line"/>
      <point x="913.9090909090909" y="625.1818181818181" type="line"/>
      <point x="869.4545454545455" y="668.2727272727273" type="line"/>
      <point x="870.7272727272727" y="647.2727272727273"/>
      <point x="860.4545454545455" y="590.6363636363636"/>
      <point x="853.0" y="562.5454545454545" type="curve"/>
      <point x="732.6363636363636" y="128.1818181818182" type="line"/>
      <point x="759.0" y="128.1818181818182" type="line"/>
      <point x="593.5454545454545" y="680.9090909090909" type="line"/>
      <point x="513.3636363636364" y="680.9090909090909" type="line"/>
      <point x="353.90909090909093" y="128.1818181818182" type="line"/>
      <point x="379.27272727272725" y="128.1818181818182" type="line"/>
      <point x="269.72727272727275" y="523.5454545454545" type="line"/>
      <point x="256.1818181818182" y="573.1818181818181"/>
      <point x="243.36363636363637" y="635.6363636363636"/>
      <point x="241.0" y="666.2727272727273" type="curve"/>
      <point x="197.9090909090909" y="628.0909090909091" type="line"/>
      <point x="323.6363636363636" y="641.5454545454545" type="line"/>
      <point x="319.0" y="710.0" type="line"/>
      <point x="276.27272727272725" y="708.0"/>
      <point x="207.63636363636363" y="705.0"/>
      <point x="161.27272727272728" y="705.0" type="curve" smooth="yes"/>
      <point x="138.0909090909091" y="705.0"/>
      <point x="83.9090909090909" y="708.0"/>
      <point x="49.09090909090909" y="710.0" type="curve"/>
      <point x="44.09090909090909" y="646.5454545454545" type="line"/>
      <point x="145.1818181818182" y="622.9090909090909" type="line"/>
      <point x="79.54545454545455" y="669.6363636363636" type="line"/>
      <point x="106.0" y="615.3636363636364"/>
      <point x="121.36363636363636" y="586.9090909090909"/>
      <point x="134.0" y="550.0" type="curve"/>
    </contour>
  </outline>
</glyph>
<glyph name="X" format="2">
  <advance width="795.4"/>
  <unicode hex="0058"/>
  <anchor x="398.0" y="0.0" name="bottom"/>
  <anchor x="398.0" y="705.0" name="top"/>
  <outline>
    <contour>
      <point x="57.0" y="-5.0" type="line"/>
      <point x="104.36363636363636" y="-3.0"/>
      <point x="172.0909090909091" y="0.0"/>
      <point x="199.45454545454547" y="0.0" type="curve" smooth="yes"/>
      <point x="299.90909090909093" y="0.0" type="line"/>
      <point x="304.90909090909093" y="61.90909090909091" type="line"/>
      <point x="195.9090909090909" y="75.63636363636364" type="line"/>
      <point x="231.72727272727272" y="42.45454545454545" type="line"/>
      <point x="241.45454545454547" y="65.72727272727273"/>
      <point x="264.27272727272725" y="112.0"/>
      <point x="277.0" y="132.0" type="curve" smooth="yes"/>
      <point x="403.09090909090907" y="319.6363636363636" type="line"/>
      <point x="349.1818181818182" y="319.6363636363636" type="line"/>
      <point x="474.0" y="142.0" type="line" smooth="yes"/>
      <point x="491.3636363636364" y="117.63636363636364"/>
      <point x="518.2727272727273" y="63.63636363636364"/>
      <point x="527.6363636363636" y="41.72727272727273" type="curve"/>
      <point x="563.4545454545455" y="76.72727272727273" type="line"/>
      <point x="462.45454545454544" y="53.45454545454545" type="line"/>
      <point x="467.09090909090907" y="-5.0" type="line"/>
      <point x="522.5454545454545" y="-3.0"/>
      <point x="597.6363636363636" y="0.0"/>
      <point x="632.7272727272727" y="0.0" type="curve" smooth="yes"/>
      <point x="739.6363636363636" y="0.0" type="line"/>
      <point x="744.6363636363636" y="61.90909090909091" type="line"/>
      <point x="632.6363636363636" y="78.18181818181819" type="line"/>
      <point x="702.9090909090909" y="46.45454545454545" type="line"/>
      <point x="673.3636363636364" y="74.36363636363636"/>
      <point x="640.4545454545455" y="110.9090909090909"/>
      <point x="625.0" y="132.0" type="curve" smooth="yes"/>
      <point x="426.1818181818182" y="411.90909090909093" type="line"/>
      <point x="427.45454545454544" y="331.6363636363636" type="line"/>
      <point x="581.5454545454545" y="568.3636363636364" type="line" smooth="yes"/>
      <point x="591.5454545454545" y="583.7272727272727"/>
      <point x="652.6363636363636" y="636.3636363636364"/>
      <point x="679.6363636363636" y="658.7272727272727" type="curve"/>
      <point x="603.7272727272727" y="629.9090909090909" type="line"/>
      <point x="719.1818181818181" y="641.5454545454545" type="line"/>
      <point x="714.5454545454545" y="710.0" type="line"/>
      <point x="664.4545454545455" y="708.0"/>
      <point x="603.7272727272727" y="705.0"/>
      <point x="564.0" y="705.0" type="curve" smooth="yes"/>
      <point x="541.4545454545455" y="705.0"/>
      <point x="497.0" y="708.0"/>
      <point x="463.3636363636364" y="710.0" type="curve"/>
      <point x="458.3636363636364" y="646.5454545454545" type="line"/>
      <point x="565.0" y="625.1818181818181" type="line"/>
      <point x="533.0" y="668.6363636363636" type="line"/>
      <point x="518.1818181818181" y="635.4545454545455"/>
      <point x="499.45454545454544" y="598.6363636363636"/>
      <point x="487.45454545454544" y="578.0" type="curve" smooth="yes"/>
      <point x="378.09090909090907" y="402.3636363636364" type="line"/>
      <point x="430.72727272727275" y="402.72727272727275" type="line"/>
      <point x="325.45454545454544" y="555.0" type="line" smooth="yes"/>
      <point x="308.1818181818182" y="580.2727272727273"/>
      <point x="281.3636363636364" y="638.0909090909091"/>
      <point x="276.90909090909093" y="655.6363636363636" type="curve"/>
      <point x="236.45454545454547" y="628.0909090909091" type="line"/>
      <point x="348.0" y="641.5454545454545" type="line"/>
      <point x="343.3636363636364" y="710.0" type="line"/>
      <point x="290.54545454545456" y="708.0"/>
      <point x="228.36363636363637" y="705.0"/>
      <point x="185.54545454545453" y="705.0" type="curve" smooth="yes"/>
      <point x="159.54545454545453" y="705.0"/>
      <point x="106.9090909090909" y="708.0"/>
      <point x="68.0" y="710.0" type="curve"/>
      <point x="63.0" y="646.5454545454545" type="line"/>
      <point x="171.63636363636363" y="624.4545454545455" type="line"/>
      <point x="105.18181818181819" y="654.2727272727273" type="line"/>
      <point x="120.9090909090909" y="634.9090909090909"/>
      <point x="163.27272727272728" y="583.6363636363636"/>
      <point x="180.9090909090909" y="558.0" type="curve" smooth="yes"/>
      <point x="355.3636363636364" y="310.1818181818182" type="line"/>
      <point x="355.3636363636364" y="389.72727272727275" type="line"/>
      <point x="199.27272727272728" y="164.0" type="line" smooth="yes"/>
      <point x="179.27272727272728" y="135.0"/>
      <point x="111.36363636363636" y="68.0909090909091"/>
      <point x="95.9090909090909" y="51.63636363636363" type="curve"/>
      <point x="158.27272727272728" y="76.63636363636364" type="line"/>
      <point x="52.36363636363637" y="53.45454545454545" type="line"/>
    </contour>
  </outline>
</glyph>
<glyph name="Y" format="2">
  <advance width="755.8000000000001"/>
  <unicode hex="0059"/>
  <anchor x="375.0" y="0.0" name="bottom"/>
  <anchor x="382.72727272727275" y="720.0" name="top"/>
  <outline>
    <contour>
      <point x="337.1818181818182" y="225.27272727272728" type="line"/>
      <point x="422.1818181818182" y="225.27272727272728" type="line"/>
      <point x="587.4545454545455" y="544.3636363636364" type="line" smooth="yes"/>
      <point x="616.3636363636364" y="599.4545454545455"/>
      <point x="656.1818181818181" y="642.2727272727273"/>
      <point x="671.3636363636364" y="657.5454545454545" type="curve"/>
      <point x="598.3636363636364" y="629.9090909090909" type="line"/>
      <point x="711.2727272727273" y="641.5454545454545" type="line"/>
      <point x="706.6363636363636" y="710.0" type="line"/>
      <point x="669.9090909090909" y="708.3636363636364"/>
      <point x="609.3636363636364" y="705.0"/>
      <point x="562.6363636363636" y="705.0" type="curve" smooth="yes"/>
      <point x="540.0909090909091" y="705.0"/>
      <point x="498.90909090909093" y="708.0"/>
      <point x="466.0" y="710.0" type="curve"/>
      <point x="461.0" y="646.5454545454545" type="line"/>
      <point x="567.2727272727273" y="625.1818181818181" type="line"/>
      <point x="535.5454545454545" y="672.4545454545455" type="line"/>
      <point x="531.9090909090909" y="651.0909090909091"/>
      <point x="517.3636363636364" y="608.3636363636364"/>
      <point x="505.54545454545456" y="583.3636363636364" type="curve" smooth="yes"/>
      <point x="371.3636363636364" y="312.27272727272725" type="line"/>
      <point x="414.45454545454544" y="312.6363636363636" type="line"/>
      <point x="290.1818181818182" y="552.2727272727273" type="line" smooth="yes"/>
      <point x="264.0909090909091" y="601.1818181818181"/>
      <point x="255.36363636363637" y="639.0909090909091"/>
      <point x="253.45454545454544" y="662.9090909090909" type="curve"/>
      <point x="214.63636363636363" y="628.0909090909091" type="line"/>
      <point x="326.1818181818182" y="641.5454545454545" type="line"/>
      <point x="321.54545454545456" y="710.0" type="line"/>
      <point x="280.3636363636364" y="708.3636363636364"/>
      <point x="217.45454545454547" y="705.0"/>
      <point x="166.63636363636363" y="705.0" type="curve" smooth="yes"/>
      <point x="140.63636363636363" y="705.0"/>
      <point x="88.0" y="708.0"/>
      <point x="49.09090909090909" y="710.0" type="curve"/>
      <point x="44.09090909090909" y="646.5454545454545" type="line"/>
      <point x="152.72727272727272" y="624.4545454545455" type="line"/>
      <point x="92.36363636363636" y="658.1818181818181" type="line"/>
      <point x="106.54545454545455" y="639.7272727272727"/>
      <point x="136.0" y="604.4545454545455"/>
      <point x="156.63636363636363" y="565.4545454545455" type="curve" smooth="yes"/>
    </contour>
    <contour>
      <point x="244.72727272727272" y="-5.0" type="line"/>
      <point x="294.72727272727275" y="-3.0"/>
      <point x="368.27272727272725" y="0.0"/>
      <point x="386.3636363636364" y="0.0" type="curve" smooth="yes"/>
      <point x="522.0" y="0.0" type="line"/>
      <point x="528.3636363636364" y="61.90909090909091" type="line"/>
      <point x="401.09090909090907" y="72.54545454545455" type="line"/>
      <point x="455.3636363636364" y="26.09090909090909" type="line"/>
      <point x="449.72727272727275" y="54.63636363636363"/>
      <point x="441.45454545454544" y="125.72727272727272"/>
      <point x="441.45454545454544" y="179.0" type="curve" smooth="yes"/>
      <point x="441.45454545454544" y="312.72727272727275" type="line"/>
      <point x="321.72727272727275" y="312.72727272727275" type="line"/>
      <point x="321.72727272727275" y="149.0" type="line" smooth="yes"/>
      <point x="321.72727272727275" y="123.54545454545455"/>
      <point x="310.72727272727275" y="53.27272727272727"/>
      <point x="306.45454545454544" y="26.09090909090909" type="curve"/>
      <point x="360.09090909090907" y="77.18181818181819" type="line"/>
      <point x="239.72727272727272" y="54.18181818181818" type="line"/>
    </contour>
  </outline>
</glyph>
<glyph name="Z" format="2">
  <advance width="650.0"/>
  <unicode hex="005A"/>
  <anchor x="326.1818181818182" y="0.0" name="bottom"/>
  <anchor x="326.1818181818182" y="353.0" name="center"/>
  <anchor x="326.1818181818182" y="720.0" name="top"/>
  <outline>
    <contour>
      <point x="552.9090909090909" y="-4.0" type="curve"/>
      <point x="571.9090909090909" y="14.0" type="line"/>
      <point x="586.9090909090909" y="185.0909090909091" type="line"/>
      <point x="526.5454545454545" y="190.0909090909091" type="line"/>
      <point x="523.2727272727273" y="168.72727272727272"/>
      <point x="515.5454545454545" y="133.1818181818182"/>
      <point x="512.1818181818181" y="121.63636363636364" type="curve" smooth="yes"/>
      <point x="508.72727272727275" y="110.63636363636364"/>
      <point x="482.45454545454544" y="63.27272727272727"/>
      <point x="466.3636363636364" y="38.45454545454545" type="curve"/>
      <point x="532.7272727272727" y="86.63636363636364" type="line"/>
      <point x="510.27272727272725" y="82.63636363636364"/>
      <point x="447.0" y="72.9090909090909"/>
      <point x="405.72727272727275" y="72.9090909090909" type="curve" smooth="yes"/>
      <point x="175.27272727272728" y="72.9090909090909" type="line"/>
      <point x="204.63636363636363" y="37.72727272727273" type="line"/>
      <point x="232.72727272727272" y="91.45454545454545"/>
      <point x="267.6363636363636" y="160.27272727272728"/>
      <point x="292.45454545454544" y="200.1818181818182" type="curve" smooth="yes"/>
      <point x="468.0" y="480.09090909090907" type="line" smooth="yes"/>
      <point x="498.54545454545456" y="528.7272727272727"/>
      <point x="540.9090909090909" y="588.4545454545455"/>
      <point x="575.3636363636364" y="638.2727272727273" type="curve"/>
      <point x="567.0909090909091" y="705.0" type="line"/>
      <point x="214.63636363636363" y="705.0" type="line"/>
      <point x="167.1818181818182" y="707.6363636363636"/>
      <point x="141.1818181818182" y="711.0"/>
      <point x="100.0" y="715.0" type="curve"/>
      <point x="80.36363636363636" y="697.0" type="line"/>
      <point x="73.36363636363636" y="520.7272727272727" type="line"/>
      <point x="138.0" y="515.7272727272727" type="line"/>
      <point x="140.0" y="540.1818181818181"/>
      <point x="147.63636363636363" y="582.9090909090909"/>
      <point x="151.63636363636363" y="596.2727272727273" type="curve" smooth="yes"/>
      <point x="187.0909090909091" y="671.4545454545455" type="line"/>
      <point x="134.72727272727272" y="626.0909090909091" type="line"/>
      <point x="147.0" y="626.4545454545455"/>
      <point x="209.36363636363637" y="632.7272727272727"/>
      <point x="251.0909090909091" y="632.7272727272727" type="curve" smooth="yes"/>
      <point x="468.54545454545456" y="632.7272727272727" type="line"/>
      <point x="439.45454545454544" y="670.7272727272727" type="line"/>
      <point x="415.54545454545456" y="622.4545454545455"/>
      <point x="388.54545454545456" y="564.0"/>
      <point x="359.3636363636364" y="518.0909090909091" type="curve" smooth="yes"/>
      <point x="176.63636363636363" y="226.9090909090909" type="line" smooth="yes"/>
      <point x="156.54545454545453" y="194.0909090909091"/>
      <point x="100.9090909090909" y="116.72727272727272"/>
      <point x="64.63636363636364" y="67.0909090909091" type="curve"/>
      <point x="72.9090909090909" y="0.0" type="line"/>
      <point x="438.27272727272725" y="0.0" type="line" smooth="yes"/>
      <point x="470.27272727272725" y="0.0"/>
      <point x="514.9090909090909" y="-2.0"/>
    </contour>
  </outline>
</glyph>
<glyph name="bracketleft" format="2">
  <advance width="441.40000000000003"/>
  <unicode hex="005B"/>
  <outline>
    <contour>
      <point x="353.90909090909093" y="-107.0" type="line"/>
      <point x="356.90909090909093" y="-50.09090909090909" type="line"/>
      <point x="197.0" y="-33.09090909090909" type="line"/>
      <point x="250.1818181818182" y="-90.0909090909091" type="line"/>
      <point x="239.9090909090909" y="-23.90909090909091"/>
      <point x="233.36363636363637" y="44.18181818181818"/>
      <point x="233.36363636363637" y="66.0" type="curve" smooth="yes"/>
      <point x="233.36363636363637" y="656.0" type="line" smooth="yes"/>
      <point x="233.36363636363637" y="679.6363636363636"/>
      <point x="242.0909090909091" y="764.0"/>
      <point x="250.1818181818182" y="813.0909090909091" type="curve"/>
      <point x="197.0" y="755.0909090909091" type="line"/>
      <point x="356.90909090909093" y="773.0909090909091" type="line"/>
      <point x="353.90909090909093" y="829.0" type="line"/>
      <point x="156.63636363636363" y="825.0" type="line"/>
      <point x="134.45454545454547" y="800.0" type="line"/>
      <point x="137.54545454545453" y="734.9090909090909"/>
      <point x="141.0" y="629.0909090909091"/>
      <point x="141.0" y="604.0" type="curve" smooth="yes"/>
      <point x="141.0" y="120.54545454545455" type="line" smooth="yes"/>
      <point x="141.0" y="94.45454545454545"/>
      <point x="137.54545454545453" y="-12.272727272727273"/>
      <point x="134.45454545454547" y="-78.0" type="curve"/>
      <point x="156.63636363636363" y="-103.0" type="line"/>
    </contour>
  </outline>
</glyph>
<glyph name="backslash" format="2">
  <advance width="421.40000000000003"/>
  <unicode hex="005C"/>
  <outline>
    <contour>
      <point x="322.27272727272725" y="-65.72727272727273" type="line"/>
      <point x="405.27272727272725" y="-39.72727272727273" type="line"/>
      <point x="97.0909090909091" y="773.0" type="line"/>
      <point x="16.09090909090909" y="747.0" type="line"/>
    </contour>
  </outline>
</glyph>
<glyph name="bracketright" format="2">
  <advance width="441.40000000000003"/>
  <unicode hex="005D"/>
  <outline>
    <contour>
      <point x="87.45454545454545" y="829.0" type="line"/>
      <point x="84.45454545454545" y="772.0909090909091" type="line"/>
      <point x="244.36363636363637" y="755.0909090909091" type="line"/>
      <point x="191.1818181818182" y="812.0909090909091" type="line"/>
      <point x="201.45454545454547" y="745.9090909090909"/>
      <point x="208.0" y="677.8181818181819"/>
      <point x="208.0" y="656.0" type="curve" smooth="yes"/>
      <point x="208.0" y="66.0" type="line" smooth="yes"/>
      <point x="208.0" y="42.36363636363636"/>
      <point x="199.27272727272728" y="-42.0"/>
      <point x="191.1818181818182" y="-91.0909090909091" type="curve"/>
      <point x="244.36363636363637" y="-33.09090909090909" type="line"/>
      <point x="84.45454545454545" y="-51.09090909090909" type="line"/>
      <point x="87.45454545454545" y="-107.0" type="line"/>
      <point x="284.72727272727275" y="-103.0" type="line"/>
      <point x="306.90909090909093" y="-78.0" type="line"/>
      <point x="303.8181818181818" y="-12.90909090909091"/>
      <point x="300.3636363636364" y="92.9090909090909"/>
      <point x="300.3636363636364" y="118.0" type="curve" smooth="yes"/>
      <point x="300.3636363636364" y="601.4545454545455" type="line" smooth="yes"/>
      <point x="300.3636363636364" y="627.5454545454545"/>
      <point x="303.8181818181818" y="734.2727272727273"/>
      <point x="306.90909090909093" y="800.0" type="curve"/>
      <point x="284.72727272727275" y="825.0" type="line"/>
    </contour>
  </outline>
</glyph>
<glyph name="asciicircum" format="2">
  <advance width="730.1999999999999"/>
  <unicode hex="005E"/>
  <outline>
    <contour>
      <point x="166.0909090909091" y="106.54545454545455" type="line"/>
      <point x="387.27272727272725" y="585.6363636363636" type="line"/>
      <point x="344.0" y="585.6363636363636" type="line"/>
      <point x="565.1818181818181" y="106.54545454545455" type="line"/>
      <point x="649.3636363636364" y="135.9090909090909" type="line"/>
      <point x="365.6363636363636" y="719.6363636363636" type="line"/>
      <point x="80.9090909090909" y="135.9090909090909" type="line"/>
    </contour>
  </outline>
</glyph>
<glyph name="a" format="2">
  <advance width="539.1999999999999"/>
  <unicode hex="0061"/>
  <anchor x="260.3636363636364" y="0.0" name="bottom"/>
  <anchor x="510.27272727272725" y="0.0" name="ogonek"/>
  <anchor x="242.72727272727272" y="494.0" name="top"/>
  <outline>
    <contour>
      <point x="191.54545454545453" y="-10.0" type="curve" smooth="yes"/>
      <point x="274.54545454545456" y="-10.0"/>
      <point x="334.09090909090907" y="40.54545454545455"/>
      <point x="355.6363636363636" y="117.9090909090909" type="curve"/>
      <point x="331.27272727272725" y="127.0" type="line"/>
      <point x="348.09090909090907" y="0.0" type="line"/>
      <point x="510.6363636363636" y="0.0" type="line"/>
      <point x="516.6363636363636" y="64.0909090909091" type="line"/>
      <point x="402.72727272727275" y="75.72727272727272" type="line"/>
      <point x="458.6363636363636" y="36.18181818181818" type="line"/>
      <point x="453.6363636363636" y="65.0"/>
      <point x="443.6363636363636" y="117.36363636363636"/>
      <point x="443.6363636363636" y="182.45454545454544" type="curve" smooth="yes"/>
      <point x="443.6363636363636" y="313.72727272727275" type="line" smooth="yes"/>
      <point x="443.6363636363636" y="443.3636363636364"/>
      <point x="379.0" y="506.45454545454544"/>
      <point x="252.0909090909091" y="506.45454545454544" type="curve" smooth="yes"/>
      <point x="201.9090909090909" y="506.45454545454544"/>
      <point x="130.1818181818182" y="495.90909090909093"/>
      <point x="70.18181818181819" y="480.90909090909093" type="curve"/>
      <point x="83.36363636363636" y="325.0" type="line"/>
      <point x="152.1818181818182" y="328.0" type="line"/>
      <point x="151.1818181818182" y="370.27272727272725" type="line"/>
      <point x="167.0" y="462.45454545454544" type="line"/>
      <point x="128.36363636363637" y="402.27272727272725" type="line"/>
      <point x="150.36363636363637" y="413.1818181818182"/>
      <point x="206.45454545454547" y="430.3636363636364"/>
      <point x="244.63636363636363" y="430.3636363636364" type="curve" smooth="yes"/>
      <point x="302.27272727272725" y="430.3636363636364"/>
      <point x="327.27272727272725" y="397.3636363636364"/>
      <point x="327.27272727272725" y="321.09090909090907" type="curve" smooth="yes"/>
      <point x="327.27272727272725" y="161.0" type="line"/>
      <point x="317.27272727272725" y="111.18181818181819"/>
      <point x="278.6363636363636" y="77.36363636363636"/>
      <point x="230.9090909090909" y="77.36363636363636" type="curve" smooth="yes"/>
      <point x="189.9090909090909" y="77.36363636363636"/>
      <point x="169.27272727272728" y="101.0"/>
      <point x="169.27272727272728" y="145.63636363636363" type="curve" smooth="yes"/>
      <point x="169.27272727272728" y="180.63636363636363"/>
      <point x="186.27272727272728" y="203.0909090909091"/>
      <point x="225.63636363636363" y="209.45454545454547" type="curve"/>
      <point x="342.1818181818182" y="230.27272727272728" type="line"/>
      <point x="342.1818181818182" y="289.45454545454544" type="line"/>
      <point x="178.0" y="262.3636363636364" type="line" smooth="yes"/>
      <point x="86.72727272727273" y="247.36363636363637"/>
      <point x="45.27272727272727" y="198.0909090909091"/>
      <point x="45.27272727272727" y="126.54545454545455" type="curve" smooth="yes"/>
      <point x="45.27272727272727" y="42.54545454545455"/>
      <point x="101.27272727272727" y="-10.0"/>
    </contour>
  </outline>
</glyph>
<glyph name="b" format="2">
  <advance width="573.6363636363636"/>
  <unicode hex="0062"/>
  <anchor x="286.8181818181818" y="0.0" name="bottom"/>
  <anchor x="286.8181818181818" y="756.0" name="top"/>
  <outline>
    <contour>
      <point x="285.6363636363636" y="-10.0" type="curve" smooth="yes"/>
      <point x="441.27272727272725" y="-10.0"/>
      <point x="528.2727272727273" y="99.72727272727272"/>
      <point x="528.2727272727273" y="256.6363636363636" type="curve" smooth="yes"/>
      <point x="528.2727272727273" y="395.90909090909093"/>
      <point x="471.1818181818182" y="506.45454545454544"/>
      <point x="335.0" y="506.45454545454544" type="curve" smooth="yes"/>
      <point x="253.8181818181818" y="506.45454545454544"/>
      <point x="207.36363636363637" y="460.90909090909093"/>
      <point x="175.27272727272728" y="405.90909090909093" type="curve"/>
      <point x="194.0909090909091" y="378.3636363636364" type="line"/>
      <point x="194.0909090909091" y="568.2727272727273" type="line" smooth="yes"/>
      <point x="194.0909090909091" y="605.2727272727273"/>
      <point x="199.36363636363637" y="686.0909090909091"/>
      <point x="203.0" y="737.3636363636364" type="curve"/>
      <point x="182.72727272727272" y="756.0" type="line"/>
      <point x="106.72727272727272" y="756.0" type="line"/>
      <point x="-0.09090909090909083" y="760.2727272727273" type="line"/>
      <point x="-7.636363636363637" y="697.5454545454545" type="line"/>
      <point x="118.9090909090909" y="669.0909090909091" type="line"/>
      <point x="63.09090909090909" y="709.0" type="line"/>
      <point x="69.0" y="674.9090909090909"/>
      <point x="77.72727272727273" y="619.0"/>
      <point x="77.72727272727273" y="598.2727272727273" type="curve" smooth="yes"/>
      <point x="77.72727272727273" y="152.45454545454544" type="line" smooth="yes"/>
      <point x="77.72727272727273" y="137.45454545454544"/>
      <point x="72.45454545454545" y="71.63636363636364"/>
      <point x="68.81818181818181" y="26.0" type="curve"/>
      <point x="144.1818181818182" y="2.3636363636363633"/>
      <point x="214.36363636363637" y="-10.0"/>
    </contour>
    <contour>
      <point x="200.72727272727272" y="56.63636363636364" type="line"/>
      <point x="199.1818181818182" y="73.45454545454545"/>
      <point x="195.36363636363637" y="135.0909090909091"/>
      <point x="195.36363636363637" y="182.45454545454544" type="curve" smooth="yes"/>
      <point x="195.36363636363637" y="269.27272727272725" type="line" smooth="yes"/>
      <point x="195.36363636363637" y="345.0"/>
      <point x="225.9090909090909" y="414.54545454545456"/>
      <point x="296.6363636363636" y="414.54545454545456" type="curve" smooth="yes"/>
      <point x="379.0" y="414.54545454545456"/>
      <point x="396.1818181818182" y="332.45454545454544"/>
      <point x="396.1818181818182" y="248.0" type="curve" smooth="yes"/>
      <point x="396.1818181818182" y="150.0"/>
      <point x="372.1818181818182" y="69.36363636363636"/>
      <point x="276.1818181818182" y="69.36363636363636" type="curve" smooth="yes"/>
      <point x="238.1818181818182" y="69.36363636363636"/>
      <point x="199.1818181818182" y="82.0909090909091"/>
      <point x="167.54545454545456" y="92.0909090909091" type="curve"/>
    </contour>
  </outline>
</glyph>
<glyph name="c" format="2">
  <advance width="502.59999999999997"/>
  <unicode hex="0063"/>
  <anchor x="277.90909090909093" y="0.0" name="bottom"/>
  <anchor x="283.45454545454544" y="494.0" name="top"/>
  <outline>
    <contour>
      <point x="286.09090909090907" y="-13.181818181818182" type="curve" smooth="yes"/>
      <point x="348.27272727272725" y="-13.181818181818182"/>
      <point x="409.54545454545456" y="9.181818181818182"/>
      <point x="462.3636363636364" y="51.27272727272727" type="curve"/>
      <point x="430.27272727272725" y="104.9090909090909" type="line"/>
      <point x="388.0" y="82.54545454545455"/>
      <point x="348.09090909090907" y="71.0909090909091"/>
      <point x="304.1818181818182" y="71.0909090909091" type="curve" smooth="yes"/>
      <point x="216.1818181818182" y="71.0909090909091"/>
      <point x="177.63636363636363" y="140.63636363636363"/>
      <point x="177.63636363636363" y="247.27272727272728" type="curve" smooth="yes"/>
      <point x="177.63636363636363" y="362.09090909090907"/>
      <point x="210.54545454545456" y="436.54545454545456"/>
      <point x="289.0" y="436.54545454545456" type="curve" smooth="yes"/>
      <point x="329.09090909090907" y="436.54545454545456"/>
      <point x="367.90909090909093" y="414.1818181818182"/>
      <point x="399.45454545454544" y="392.0" type="curve"/>
      <point x="350.6363636363636" y="445.6363636363636" type="line"/>
      <point x="360.1818181818182" y="420.45454545454544"/>
      <point x="364.72727272727275" y="392.72727272727275"/>
      <point x="366.0" y="371.90909090909093" type="curve" smooth="yes"/>
      <point x="365.3636363636364" y="325.1818181818182" type="line"/>
      <point x="439.45454545454544" y="322.1818181818182" type="line"/>
      <point x="452.6363636363636" y="478.09090909090907" type="line"/>
      <point x="393.27272727272725" y="493.3636363636364"/>
      <point x="343.27272727272725" y="506.45454545454544"/>
      <point x="283.6363636363636" y="506.45454545454544" type="curve" smooth="yes"/>
      <point x="131.27272727272728" y="506.45454545454544"/>
      <point x="44.45454545454545" y="405.6363636363636"/>
      <point x="44.45454545454545" y="247.27272727272728" type="curve" smooth="yes"/>
      <point x="44.45454545454545" y="83.54545454545455"/>
      <point x="127.0909090909091" y="-13.181818181818182"/>
    </contour>
  </outline>
</glyph>
<glyph name="d" format="2">
  <advance width="592.0"/>
  <unicode hex="0064"/>
  <anchor x="301.90909090909093" y="0.0" name="bottom"/>
  <anchor x="414.27272727272725" y="594.0909090909091" name="center"/>
  <anchor x="353.09090909090907" y="756.0" name="top"/>
  <anchor x="601.1818181818181" y="494.0" name="topright"/>
  <outline>
    <contour>
      <point x="240.45454545454547" y="-10.0" type="curve" smooth="yes"/>
      <point x="312.45454545454544" y="-10.0"/>
      <point x="377.27272727272725" y="36.0"/>
      <point x="408.3636363636364" y="112.54545454545455" type="curve"/>
      <point x="383.54545454545456" y="128.9090909090909" type="line"/>
      <point x="400.3636363636364" y="0.0" type="line"/>
      <point x="562.9090909090909" y="0.0" type="line"/>
      <point x="568.9090909090909" y="64.0909090909091" type="line"/>
      <point x="453.1818181818182" y="75.72727272727272" type="line"/>
      <point x="510.6363636363636" y="35.27272727272727" type="line"/>
      <point x="505.6363636363636" y="64.9090909090909"/>
      <point x="495.9090909090909" y="119.9090909090909"/>
      <point x="495.9090909090909" y="182.0909090909091" type="curve" smooth="yes"/>
      <point x="495.9090909090909" y="568.6363636363636" type="line" smooth="yes"/>
      <point x="495.9090909090909" y="605.2727272727273"/>
      <point x="500.8181818181818" y="686.0909090909091"/>
      <point x="504.45454545454544" y="737.3636363636364" type="curve"/>
      <point x="484.54545454545456" y="756.0" type="line"/>
      <point x="408.1818181818182" y="756.0" type="line"/>
      <point x="296.6363636363636" y="760.2727272727273" type="line"/>
      <point x="289.09090909090907" y="697.5454545454545" type="line"/>
      <point x="420.0" y="670.1818181818181" type="line"/>
      <point x="364.1818181818182" y="712.0909090909091" type="line"/>
      <point x="367.54545454545456" y="695.4545454545455"/>
      <point x="379.54545454545456" y="627.1818181818181"/>
      <point x="379.54545454545456" y="598.6363636363636" type="curve" smooth="yes"/>
      <point x="379.54545454545456" y="222.0909090909091" type="line"/>
      <point x="376.3636363636364" y="132.0909090909091"/>
      <point x="339.09090909090907" y="83.0"/>
      <point x="275.54545454545456" y="83.0" type="curve" smooth="yes"/>
      <point x="211.72727272727272" y="83.0"/>
      <point x="177.45454545454544" y="141.1818181818182"/>
      <point x="177.45454545454544" y="251.36363636363637" type="curve" smooth="yes"/>
      <point x="177.45454545454544" y="368.09090909090907"/>
      <point x="215.36363636363637" y="425.6363636363636"/>
      <point x="291.6363636363636" y="425.6363636363636" type="curve" smooth="yes"/>
      <point x="322.72727272727275" y="425.6363636363636"/>
      <point x="356.72727272727275" y="416.72727272727275"/>
      <point x="397.3636363636364" y="394.3636363636364" type="curve"/>
      <point x="398.0" y="489.27272727272725" type="line"/>
      <point x="349.90909090909093" y="502.3636363636364"/>
      <point x="316.6363636363636" y="506.45454545454544"/>
      <point x="280.3636363636364" y="506.45454545454544" type="curve" smooth="yes"/>
      <point x="132.72727272727272" y="506.45454545454544"/>
      <point x="46.09090909090909" y="409.09090909090907"/>
      <point x="46.09090909090909" y="244.1818181818182" type="curve" smooth="yes"/>
      <point x="46.09090909090909" y="83.54545454545455"/>
      <point x="117.72727272727272" y="-10.0"/>
    </contour>
  </outline>
</glyph>
<glyph name="e" format="2">
  <advance width="521.4"/>
  <unicode hex="0065"/>
  <anchor x="280.6363636363636" y="0.0" name="bottom"/>
  <anchor x="411.27272727272725" y="14.727272727272727" name="ogonek"/>
  <anchor x="274.27272727272725" y="494.0" name="top"/>
  <outline>
    <contour>
      <point x="283.27272727272725" y="-13.181818181818182" type="curve" smooth="yes"/>
      <point x="376.1818181818182" y="-13.181818181818182"/>
      <point x="441.09090909090907" y="26.09090909090909"/>
      <point x="471.27272727272725" y="53.45454545454545" type="curve"/>
      <point x="439.54545454545456" y="106.36363636363636" type="line"/>
      <point x="415.6363636363636" y="90.9090909090909"/>
      <point x="363.1818181818182" y="70.0909090909091"/>
      <point x="306.54545454545456" y="70.0909090909091" type="curve" smooth="yes"/>
      <point x="216.63636363636363" y="70.0909090909091"/>
      <point x="176.54545454545456" y="138.72727272727272"/>
      <point x="176.54545454545456" y="253.45454545454547" type="curve" smooth="yes"/>
      <point x="176.54545454545456" y="351.1818181818182"/>
      <point x="193.36363636363637" y="438.72727272727275"/>
      <point x="267.90909090909093" y="438.72727272727275" type="curve" smooth="yes"/>
      <point x="322.54545454545456" y="438.72727272727275"/>
      <point x="348.0" y="393.09090909090907"/>
      <point x="348.0" y="319.27272727272725" type="curve" smooth="yes"/>
      <point x="348.0" y="295.45454545454544"/>
      <point x="344.45454545454544" y="273.72727272727275"/>
      <point x="341.27272727272725" y="251.0" type="curve"/>
      <point x="399.3636363636364" y="305.72727272727275" type="line"/>
      <point x="162.54545454545456" y="290.72727272727275" type="line"/>
      <point x="161.9090909090909" y="227.9090909090909" type="line"/>
      <point x="458.54545454545456" y="227.9090909090909" type="line"/>
      <point x="477.72727272727275" y="264.3636363636364" type="line"/>
      <point x="483.0909090909091" y="414.3636363636364"/>
      <point x="417.27272727272725" y="506.45454545454544"/>
      <point x="276.0" y="506.45454545454544" type="curve" smooth="yes"/>
      <point x="130.9090909090909" y="506.45454545454544"/>
      <point x="44.45454545454545" y="407.27272727272725"/>
      <point x="44.45454545454545" y="245.0" type="curve" smooth="yes"/>
      <point x="44.45454545454545" y="86.54545454545455"/>
      <point x="131.0" y="-13.181818181818182"/>
    </contour>
  </outline>
</glyph>
<glyph name="f" format="2">
  <advance width="378.3636363636364"/>
  <unicode hex="0066"/>
  <anchor x="189.0" y="0.0" name="bottom"/>
  <anchor x="189.0" y="756.0" name="top"/>
  <outline>
    <contour>
      <point x="41.81818181818182" y="-5.0" type="line"/>
      <point x="78.81818181818181" y="-3.0"/>
      <point x="137.8181818181818" y="0.0"/>
      <point x="151.8181818181818" y="0.0" type="curve"/>
      <point x="319.54545454545456" y="0.0" type="line"/>
      <point x="324.90909090909093" y="64.0909090909091" type="line"/>
      <point x="182.0" y="75.36363636363636" type="line"/>
      <point x="239.36363636363637" y="31.363636363636363" type="line"/>
      <point x="234.72727272727272" y="60.45454545454545"/>
      <point x="226.54545454545456" y="120.27272727272728"/>
      <point x="226.54545454545456" y="182.45454545454544" type="curve" smooth="yes"/>
      <point x="226.54545454545456" y="460.0" type="line"/>
      <point x="211.63636363636363" y="427.3636363636364" type="line"/>
      <point x="341.6363636363636" y="427.3636363636364" type="line"/>
      <point x="349.1818181818182" y="494.0" type="line"/>
      <point x="211.63636363636363" y="494.0" type="line"/>
      <point x="226.54545454545456" y="478.0" type="line"/>
      <point x="211.36363636363637" y="609.5454545454545"/>
      <point x="204.63636363636363" y="700.2727272727273"/>
      <point x="277.09090909090907" y="700.2727272727273" type="curve" smooth="yes"/>
      <point x="288.72727272727275" y="700.2727272727273"/>
      <point x="324.3636363636364" y="691.3636363636364"/>
      <point x="330.1818181818182" y="691.3636363636364" type="curve"/>
      <point x="288.54545454545456" y="719.0" type="line"/>
      <point x="294.09090909090907" y="698.1818181818181"/>
      <point x="298.6363636363636" y="661.9090909090909"/>
      <point x="298.6363636363636" y="647.9090909090909" type="curve"/>
      <point x="297.3636363636364" y="606.5454545454545" type="line"/>
      <point x="358.6363636363636" y="603.5454545454545" type="line"/>
      <point x="375.3636363636364" y="760.4545454545455" type="line"/>
      <point x="342.72727272727275" y="766.0"/>
      <point x="319.6363636363636" y="770.0"/>
      <point x="289.0" y="770.0" type="curve" smooth="yes"/>
      <point x="177.1818181818182" y="770.0"/>
      <point x="110.18181818181819" y="694.7272727272727"/>
      <point x="110.18181818181819" y="586.9090909090909" type="curve" smooth="yes"/>
      <point x="110.18181818181819" y="469.72727272727275" type="line"/>
      <point x="124.72727272727272" y="496.6363636363636" type="line"/>
      <point x="42.18181818181818" y="482.72727272727275" type="line"/>
      <point x="45.18181818181818" y="427.3636363636364" type="line"/>
      <point x="125.0909090909091" y="427.3636363636364" type="line"/>
      <point x="110.18181818181819" y="451.45454545454544" type="line"/>
      <point x="110.18181818181819" y="152.45454545454544" type="line" smooth="yes"/>
      <point x="110.18181818181819" y="124.27272727272728"/>
      <point x="98.0909090909091" y="52.90909090909091"/>
      <point x="94.18181818181819" y="29.0" type="curve"/>
      <point x="152.27272727272728" y="80.0" type="line"/>
      <point x="36.81818181818182" y="57.0" type="line"/>
    </contour>
  </outline>
</glyph>
<glyph name="g" format="2">
  <advance width="535.4"/>
  <unicode hex="0067"/>
  <anchor x="253.36363636363637" y="494.0" name="top"/>
  <outline>
    <contour>
      <point x="235.0909090909091" y="-235.0" type="curve" smooth="yes"/>
      <point x="381.09090909090907" y="-235.0"/>
      <point x="497.6363636363636" y="-149.0"/>
      <point x="497.6363636363636" y="-41.18181818181818" type="curve" smooth="yes"/>
      <point x="497.6363636363636" y="7.454545454545454"/>
      <point x="480.3636363636364" y="38.09090909090909"/>
      <point x="448.54545454545456" y="49.63636363636364" type="curve" smooth="yes"/>
      <point x="418.09090909090907" y="59.72727272727273"/>
      <point x="357.6363636363636" y="67.18181818181819"/>
      <point x="248.27272727272728" y="79.63636363636364" type="curve" smooth="yes"/>
      <point x="182.0909090909091" y="86.72727272727273"/>
      <point x="160.9090909090909" y="95.27272727272728"/>
      <point x="160.9090909090909" y="116.54545454545455" type="curve" smooth="yes"/>
      <point x="160.9090909090909" y="124.45454545454545"/>
      <point x="170.0" y="141.27272727272728"/>
      <point x="195.1818181818182" y="165.54545454545453" type="curve"/>
      <point x="150.72727272727272" y="181.0" type="line"/>
      <point x="95.9090909090909" y="131.72727272727272"/>
      <point x="69.54545454545455" y="102.18181818181819"/>
      <point x="69.54545454545455" y="86.54545454545455" type="curve" smooth="yes"/>
      <point x="69.54545454545455" y="41.54545454545455"/>
      <point x="88.18181818181819" y="10.90909090909091"/>
      <point x="131.27272727272728" y="-4.363636363636363" type="curve" smooth="yes"/>
      <point x="171.9090909090909" y="-18.909090909090907"/>
      <point x="192.1818181818182" y="-23.18181818181818"/>
      <point x="225.0" y="-28.18181818181818" type="curve" smooth="yes"/>
      <point x="355.0" y="-46.72727272727273" type="line" smooth="yes"/>
      <point x="379.6363636363636" y="-50.09090909090909"/>
      <point x="390.54545454545456" y="-62.36363636363636"/>
      <point x="390.54545454545456" y="-85.0909090909091" type="curve" smooth="yes"/>
      <point x="390.54545454545456" y="-133.1818181818182"/>
      <point x="343.54545454545456" y="-164.0909090909091"/>
      <point x="272.90909090909093" y="-164.0909090909091" type="curve" smooth="yes"/>
      <point x="183.54545454545456" y="-164.0909090909091"/>
      <point x="138.27272727272728" y="-135.0"/>
      <point x="138.27272727272728" y="-77.0909090909091" type="curve" smooth="yes"/>
      <point x="138.27272727272728" y="-58.0"/>
      <point x="148.27272727272728" y="-36.27272727272727"/>
      <point x="179.0909090909091" y="-2.7272727272727266" type="curve"/>
      <point x="132.54545454545453" y="12.090909090909092" type="line"/>
      <point x="70.36363636363636" y="-25.636363636363637"/>
      <point x="24.18181818181818" y="-68.45454545454545"/>
      <point x="24.18181818181818" y="-91.27272727272727" type="curve" smooth="yes"/>
      <point x="24.18181818181818" y="-185.63636363636363"/>
      <point x="95.63636363636364" y="-235.0"/>
    </contour>
    <contour>
      <point x="248.0" y="144.45454545454547" type="curve" smooth="yes"/>
      <point x="371.90909090909093" y="144.45454545454547"/>
      <point x="454.27272727272725" y="217.0909090909091"/>
      <point x="454.27272727272725" y="326.72727272727275" type="curve" smooth="yes"/>
      <point x="454.27272727272725" y="437.27272727272725"/>
      <point x="370.3636363636364" y="506.45454545454544"/>
      <point x="250.54545454545453" y="506.45454545454544" type="curve" smooth="yes"/>
      <point x="126.63636363636364" y="506.45454545454544"/>
      <point x="44.27272727272727" y="434.1818181818182"/>
      <point x="44.27272727272727" y="324.54545454545456" type="curve" smooth="yes"/>
      <point x="44.27272727272727" y="212.72727272727272"/>
      <point x="130.0909090909091" y="144.45454545454547"/>
    </contour>
    <contour>
      <point x="248.63636363636363" y="204.63636363636363" type="curve" smooth="yes"/>
      <point x="196.27272727272728" y="204.63636363636363"/>
      <point x="170.0909090909091" y="243.54545454545453"/>
      <point x="170.0909090909091" y="323.27272727272725" type="curve" smooth="yes"/>
      <point x="170.0909090909091" y="406.09090909090907"/>
      <point x="197.27272727272728" y="446.6363636363636"/>
      <point x="250.54545454545453" y="446.6363636363636" type="curve" smooth="yes"/>
      <point x="302.90909090909093" y="446.6363636363636"/>
      <point x="328.09090909090907" y="407.72727272727275"/>
      <point x="328.09090909090907" y="328.0" type="curve" smooth="yes"/>
      <point x="328.09090909090907" y="244.45454545454547"/>
      <point x="302.27272727272725" y="204.63636363636363"/>
    </contour>
    <contour>
      <point x="500.54545454545456" y="426.72727272727275" type="line"/>
      <point x="495.09090909090907" y="504.72727272727275" type="line"/>
      <point x="337.3636363636364" y="477.1818181818182" type="line"/>
      <point x="408.27272727272725" y="427.45454545454544" type="line"/>
    </contour>
  </outline>
</glyph>
<glyph name="h" format="2">
  <advance width="629.1818181818181"/>
  <unicode hex="0068"/>
  <anchor x="318.3636363636364" y="0.0" name="bottom"/>
  <anchor x="189.54545454545453" y="594.0909090909091" name="center"/>
  <anchor x="185.54545454545456" y="742.5454545454545" name="top"/>
  <outline>
    <contour>
      <point x="25.363636363636363" y="-5.0" type="line"/>
      <point x="64.27272727272727" y="-3.0"/>
      <point x="127.72727272727272" y="0.0"/>
      <point x="141.72727272727272" y="0.0" type="curve"/>
      <point x="289.09090909090907" y="0.0" type="line"/>
      <point x="294.8181818181818" y="64.0909090909091" type="line"/>
      <point x="172.27272727272728" y="75.36363636363636" type="line"/>
      <point x="229.63636363636363" y="31.363636363636363" type="line"/>
      <point x="225.0" y="60.45454545454545"/>
      <point x="216.8181818181818" y="120.27272727272728"/>
      <point x="216.8181818181818" y="182.45454545454544" type="curve" smooth="yes"/>
      <point x="216.8181818181818" y="268.6363636363636" type="line" smooth="yes"/>
      <point x="217.1818181818182" y="361.90909090909093"/>
      <point x="265.8181818181818" y="418.6363636363636"/>
      <point x="327.09090909090907" y="418.6363636363636" type="curve" smooth="yes"/>
      <point x="392.1818181818182" y="418.6363636363636"/>
      <point x="412.72727272727275" y="361.90909090909093"/>
      <point x="412.72727272727275" y="297.1818181818182" type="curve" smooth="yes"/>
      <point x="412.72727272727275" y="152.45454545454544" type="line" smooth="yes"/>
      <point x="412.72727272727275" y="130.54545454545456"/>
      <point x="406.27272727272725" y="65.9090909090909"/>
      <point x="401.54545454545456" y="35.72727272727273" type="curve"/>
      <point x="457.0" y="81.63636363636364" type="line"/>
      <point x="345.54545454545456" y="57.0" type="line"/>
      <point x="350.54545454545456" y="-5.0" type="line"/>
      <point x="390.27272727272725" y="-3.0"/>
      <point x="448.27272727272725" y="0.0"/>
      <point x="463.27272727272725" y="0.0" type="curve"/>
      <point x="602.0909090909091" y="0.0" type="line"/>
      <point x="607.8181818181819" y="64.0909090909091" type="line"/>
      <point x="485.27272727272725" y="75.36363636363636" type="line"/>
      <point x="542.2727272727273" y="35.63636363636363" type="line"/>
      <point x="538.2727272727273" y="62.27272727272727"/>
      <point x="529.0909090909091" y="121.36363636363636"/>
      <point x="529.0909090909091" y="182.45454545454544" type="curve" smooth="yes"/>
      <point x="529.0909090909091" y="305.3636363636364" type="line" smooth="yes"/>
      <point x="529.0909090909091" y="430.09090909090907"/>
      <point x="480.09090909090907" y="503.0"/>
      <point x="355.3636363636364" y="503.0" type="curve" smooth="yes"/>
      <point x="279.27272727272725" y="503.0"/>
      <point x="229.54545454545456" y="459.1818181818182"/>
      <point x="197.63636363636363" y="402.72727272727275" type="curve"/>
      <point x="216.8181818181818" y="379.6363636363636" type="line"/>
      <point x="216.8181818181818" y="568.2727272727273" type="line" smooth="yes"/>
      <point x="216.8181818181818" y="617.1818181818181"/>
      <point x="221.72727272727272" y="699.0909090909091"/>
      <point x="225.36363636363637" y="737.3636363636364" type="curve"/>
      <point x="205.0909090909091" y="756.0" type="line"/>
      <point x="129.0909090909091" y="756.0" type="line"/>
      <point x="22.272727272727273" y="760.2727272727273" type="line"/>
      <point x="14.727272727272727" y="697.5454545454545" type="line"/>
      <point x="141.27272727272728" y="669.0909090909091" type="line"/>
      <point x="82.54545454545455" y="733.5454545454545" type="line"/>
      <point x="88.18181818181819" y="697.1818181818181"/>
      <point x="100.0909090909091" y="626.4545454545455"/>
      <point x="100.0909090909091" y="598.2727272727273" type="curve" smooth="yes"/>
      <point x="100.0909090909091" y="152.45454545454544" type="line" smooth="yes"/>
      <point x="100.0909090909091" y="124.27272727272728"/>
      <point x="88.36363636363636" y="52.90909090909091"/>
      <point x="84.0909090909091" y="29.0" type="curve"/>
      <point x="142.54545454545453" y="80.0" type="line"/>
      <point x="20.363636363636363" y="57.0" type="line"/>
    </contour>
  </outline>
</glyph>
<glyph name="k" format="2">
  <advance width="627.8181818181819"/>
  <unicode hex="006B"/>
  <anchor x="313.09090909090907" y="0.0" name="bottom"/>
  <anchor x="313.09090909090907" y="756.0" name="top"/>
  <outline>
    <contour>
      <point x="25.363636363636363" y="-5.0" type="line"/>
      <point x="64.27272727272727" y="-3.0"/>
      <point x="127.72727272727272" y="0.0"/>
      <point x="141.72727272727272" y="0.0" type="curve"/>
      <point x="289.09090909090907" y="0.0" type="line"/>
      <point x="294.8181818181818" y="64.0909090909091" type="line"/>
      <point x="172.27272727272728" y="75.36363636363636" type="line"/>
      <point x="229.63636363636363" y="31.363636363636363" type="line"/>
      <point x="225.0" y="60.45454545454545"/>
      <point x="216.8181818181818" y="120.27272727272728"/>
      <point x="216.8181818181818" y="182.45454545454544" type="curve" smooth="yes"/>
      <point x="216.8181818181818" y="568.2727272727273" type="line" smooth="yes"/>
      <point x="216.8181818181818" y="617.1818181818181"/>
      <point x="221.72727272727272" y="699.0909090909091"/>
      <point x="225.36363636363637" y="737.3636363636364" type="curve"/>
      <point x="205.0909090909091" y="756.0" type="line"/>
      <point x="129.0909090909091" y="756.0" type="line"/>
      <point x="22.272727272727273" y="760.2727272727273" type="line"/>
      <point x="14.727272727272727" y="697.5454545454545" type="line"/>
      <point x="141.27272727272728" y="669.0909090909091" type="line"/>
      <point x="82.54545454545455" y="733.5454545454545" type="line"/>
      <point x="88.18181818181819" y="697.1818181818181"/>
      <point x="100.0909090909091" y="626.4545454545455"/>
      <point x="100.0909090909091" y="598.2727272727273" type="curve" smooth="yes"/>
      <point x="100.0909090909091" y="152.45454545454544" type="line" smooth="yes"/>
      <point x="100.0909090909091" y="124.27272727272728"/>
      <point x="88.36363636363636" y="52.90909090909091"/>
      <point x="84.0909090909091" y="29.0" type="curve"/>
      <point x="142.54545454545453" y="80.0" type="line"/>
      <point x="20.363636363636363" y="57.0" type="line"/>
    </contour>
    <contour>
      <point x="353.0" y="-2.1818181818181817" type="line"/>
      <point x="403.72727272727275" y="-1.0909090909090908"/>
      <point x="442.27272727272725" y="0.0"/>
      <point x="470.1818181818182" y="0.0" type="curve" smooth="yes"/>
      <point x="589.7272727272727" y="0.0" type="line"/>
      <point x="595.7272727272727" y="64.0909090909091" type="line"/>
      <point x="482.54545454545456" y="75.0" type="line"/>
      <point x="561.3636363636364" y="45.27272727272727" type="line"/>
      <point x="529.8181818181819" y="73.0909090909091"/>
      <point x="462.72727272727275" y="133.9090909090909"/>
      <point x="451.27272727272725" y="148.9090909090909" type="curve" smooth="yes"/>
      <point x="321.1818181818182" y="322.09090909090907" type="line"/>
      <point x="318.0" y="238.72727272727272" type="line"/>
      <point x="424.0" y="366.0" type="line" smooth="yes"/>
      <point x="443.8181818181818" y="389.6363636363636"/>
      <point x="507.54545454545456" y="425.45454545454544"/>
      <point x="539.7272727272727" y="442.6363636363636" type="curve"/>
      <point x="460.8181818181818" y="421.72727272727275" type="line"/>
      <point x="574.6363636363636" y="433.09090909090907" type="line"/>
      <point x="574.8181818181819" y="494.0" type="line"/>
      <point x="454.0909090909091" y="494.0" type="line"/>
      <point x="428.0909090909091" y="494.0"/>
      <point x="367.3636363636364" y="494.0"/>
      <point x="324.1818181818182" y="494.0" type="curve"/>
      <point x="319.1818181818182" y="427.3636363636364" type="line"/>
      <point x="420.90909090909093" y="421.1818181818182" type="line"/>
      <point x="402.0" y="467.72727272727275" type="line"/>
      <point x="227.8181818181818" y="265.0" type="line"/>
      <point x="337.90909090909093" y="112.18181818181819" type="line"/>
      <point x="371.54545454545456" y="64.36363636363636" type="line"/>
      <point x="351.1818181818182" y="55.27272727272727" type="line"/>
    </contour>
  </outline>
</glyph>
<glyph name="l" format="2">
  <advance width="316.1818181818182"/>
  <unicode hex="006C"/>
  <anchor x="157.54545454545453" y="0.0" name="bottom"/>
  <anchor x="144.0909090909091" y="382.0" name="center"/>
  <anchor x="370.3636363636364" y="410.0" name="centerright"/>
  <anchor x="134.9090909090909" y="756.0" name="top"/>
  <anchor x="322.8181818181818" y="494.0" name="topright"/>
  <outline>
    <contour>
      <point x="25.363636363636363" y="-5.0" type="line"/>
      <point x="64.27272727272727" y="-3.0"/>
      <point x="127.72727272727272" y="0.0"/>
      <point x="141.72727272727272" y="0.0" type="curve" smooth="yes"/>
      <point x="289.09090909090907" y="0.0" type="line"/>
      <point x="294.8181818181818" y="64.0909090909091" type="line"/>
      <point x="172.27272727272728" y="75.36363636363636" type="line"/>
      <point x="229.63636363636363" y="31.363636363636363" type="line"/>
      <point x="225.0" y="60.45454545454545"/>
      <point x="216.8181818181818" y="119.9090909090909"/>
      <point x="216.8181818181818" y="182.45454545454544" type="curve" smooth="yes"/>
      <point x="216.8181818181818" y="568.2727272727273" type="line" smooth="yes"/>
      <point x="216.8181818181818" y="617.1818181818181"/>
      <point x="221.72727272727272" y="699.0909090909091"/>
      <point x="225.36363636363637" y="737.3636363636364" type="curve"/>
      <point x="205.0909090909091" y="756.0" type="line"/>
      <point x="129.0909090909091" y="756.0" type="line"/>
      <point x="22.272727272727273" y="760.2727272727273" type="line"/>
      <point x="14.727272727272727" y="697.5454545454545" type="line"/>
      <point x="141.27272727272728" y="669.0909090909091" type="line"/>
      <point x="82.54545454545455" y="733.5454545454545" type="line"/>
      <point x="88.18181818181819" y="697.1818181818181"/>
      <point x="100.0909090909091" y="626.4545454545455"/>
      <point x="100.0909090909091" y="598.2727272727273" type="curve" smooth="yes"/>
      <point x="100.0909090909091" y="152.45454545454544" type="line" smooth="yes"/>
      <point x="100.0909090909091" y="124.27272727272728"/>
      <point x="88.36363636363636" y="52.90909090909091"/>
      <point x="84.0909090909091" y="29.0" type="curve"/>
      <point x="142.54545454545453" y="80.0" type="line"/>
      <point x="20.363636363636363" y="57.0" type="line"/>
    </contour>
  </outline>
</glyph>
<glyph name="m" format="2">
  <advance width="930.0"/>
  <unicode hex="006D"/>
  <anchor x="465.27272727272725" y="0.0" name="bottom"/>
  <anchor x="465.27272727272725" y="494.0" name="top"/>
  <outline>
    <contour>
      <point x="651.5454545454545" y="-5.0" type="line"/>
      <point x="689.0" y="-3.0"/>
      <point x="754.2727272727273" y="0.0"/>
      <point x="764.2727272727273" y="0.0" type="curve"/>
      <point x="903.0909090909091" y="0.0" type="line"/>
      <point x="908.4545454545455" y="64.0909090909091" type="line"/>
      <point x="786.2727272727273" y="75.36363636363636" type="line"/>
      <point x="841.3636363636364" y="44.45454545454545" type="line"/>
      <point x="839.0" y="59.54545454545455"/>
      <point x="830.0909090909091" y="132.45454545454544"/>
      <point x="830.0909090909091" y="182.45454545454544" type="curve" smooth="yes"/>
      <point x="830.0909090909091" y="309.1818181818182" type="line" smooth="yes"/>
      <point x="830.0909090909091" y="433.90909090909093"/>
      <point x="786.0" y="506.45454545454544"/>
      <point x="672.9090909090909" y="506.45454545454544" type="curve" smooth="yes"/>
      <point x="589.3636363636364" y="506.45454545454544"/>
      <point x="530.5454545454545" y="452.54545454545456"/>
      <point x="495.09090909090907" y="368.3636363636364" type="curve"/>
      <point x="533.4545454545455" y="272.09090909090907" type="line"/>
      <point x="534.1818181818181" y="365.3636363636364"/>
      <point x="580.2727272727273" y="422.09090909090907"/>
      <point x="637.9090909090909" y="422.09090909090907" type="curve" smooth="yes"/>
      <point x="696.1818181818181" y="422.09090909090907"/>
      <point x="713.7272727272727" y="365.3636363636364"/>
      <point x="713.7272727272727" y="300.6363636363636" type="curve" smooth="yes"/>
      <point x="713.7272727272727" y="152.45454545454544" type="line" smooth="yes"/>
      <point x="713.7272727272727" y="136.63636363636363"/>
      <point x="707.9090909090909" y="73.18181818181819"/>
      <point x="704.1818181818181" y="42.63636363636364" type="curve"/>
      <point x="758.0" y="81.63636363636364" type="line"/>
      <point x="646.5454545454545" y="57.0" type="line"/>
    </contour>
    <contour>
      <point x="45.72727272727273" y="-5.0" type="line"/>
      <point x="84.63636363636364" y="-3.0"/>
      <point x="148.0909090909091" y="0.0"/>
      <point x="162.0909090909091" y="0.0" type="curve"/>
      <point x="309.45454545454544" y="0.0" type="line"/>
      <point x="315.1818181818182" y="64.0909090909091" type="line"/>
      <point x="192.63636363636363" y="75.36363636363636" type="line"/>
      <point x="250.0" y="31.363636363636363" type="line"/>
      <point x="245.36363636363637" y="60.45454545454545"/>
      <point x="237.1818181818182" y="120.27272727272728"/>
      <point x="237.1818181818182" y="182.45454545454544" type="curve" smooth="yes"/>
      <point x="237.1818181818182" y="288.27272727272725" type="line"/>
      <point x="213.0" y="475.3636363636364" type="line"/>
      <point x="192.72727272727272" y="494.0" type="line"/>
      <point x="42.63636363636363" y="494.0" type="line"/>
      <point x="35.09090909090909" y="427.3636363636364" type="line"/>
      <point x="161.63636363636363" y="407.09090909090907" type="line"/>
      <point x="103.18181818181819" y="465.1818181818182" type="line"/>
      <point x="107.18181818181819" y="441.6363636363636"/>
      <point x="120.45454545454545" y="364.45454545454544"/>
      <point x="120.45454545454545" y="336.27272727272725" type="curve" smooth="yes"/>
      <point x="120.45454545454545" y="152.45454545454544" type="line"/>
      <point x="120.45454545454545" y="124.27272727272728"/>
      <point x="108.72727272727273" y="52.90909090909091"/>
      <point x="104.45454545454545" y="29.0" type="curve"/>
      <point x="162.9090909090909" y="80.0" type="line"/>
      <point x="40.72727272727273" y="57.0" type="line"/>
    </contour>
    <contour>
      <point x="354.90909090909093" y="-5.0" type="line"/>
      <point x="392.3636363636364" y="-3.0"/>
      <point x="457.6363636363636" y="0.0"/>
      <point x="467.6363636363636" y="0.0" type="curve"/>
      <point x="606.4545454545455" y="0.0" type="line"/>
      <point x="612.1818181818181" y="64.0909090909091" type="line"/>
      <point x="489.6363636363636" y="75.36363636363636" type="line"/>
      <point x="544.7272727272727" y="44.45454545454545" type="line"/>
      <point x="542.3636363636364" y="59.54545454545455"/>
      <point x="533.4545454545455" y="132.45454545454544"/>
      <point x="533.4545454545455" y="182.45454545454544" type="curve" smooth="yes"/>
      <point x="533.4545454545455" y="309.1818181818182" type="line" smooth="yes"/>
      <point x="533.4545454545455" y="433.90909090909093"/>
      <point x="489.3636363636364" y="506.45454545454544"/>
      <point x="376.27272727272725" y="506.45454545454544" type="curve" smooth="yes"/>
      <point x="292.72727272727275" y="506.45454545454544"/>
      <point x="233.9090909090909" y="448.72727272727275"/>
      <point x="198.45454545454544" y="364.90909090909093" type="curve"/>
      <point x="237.1818181818182" y="268.6363636363636" type="line"/>
      <point x="237.54545454545456" y="361.90909090909093"/>
      <point x="283.6363636363636" y="422.09090909090907"/>
      <point x="341.27272727272725" y="422.09090909090907" type="curve" smooth="yes"/>
      <point x="399.54545454545456" y="422.09090909090907"/>
      <point x="417.09090909090907" y="365.3636363636364"/>
      <point x="417.09090909090907" y="300.6363636363636" type="curve" smooth="yes"/>
      <point x="417.09090909090907" y="152.45454545454544" type="line" smooth="yes"/>
      <point x="417.09090909090907" y="136.63636363636363"/>
      <point x="411.27272727272725" y="73.18181818181819"/>
      <point x="407.54545454545456" y="42.63636363636364" type="curve"/>
      <point x="461.3636363636364" y="81.63636363636364" type="line"/>
      <point x="349.90909090909093" y="57.0" type="line"/>
    </contour>
  </outline>
</glyph>
